<?xml version="1.0" encoding="utf-8"?>
<!-- Generator: Adobe Illustrator 24.3.0, SVG Export Plug-In . SVG Version: 6.00 Build 0)  -->
<svg version="1.1" id="Слой_1" xmlns="http://www.w3.org/2000/svg" xmlns:xlink="http://www.w3.org/1999/xlink" x="0px" y="0px"
	 viewBox="0 0 129 78" style="enable-background:new 0 0 129 78;" xml:space="preserve">
<style type="text/css">
	.st0{fill:#FEFEFE;}
	.st1{fill:#020202;}
</style>
<g>
	<g>
		<path class="st0" d="M157-71c0,81.2,0,162.3,0,243.6c-62,0-123.9,0-186,0c0-81.1,0-162.3,0-243.6C32.9-71,95-71,157-71z M64.5,52
			C49,36,34,20.6,19.2,5C13.1-1.5,9.3-1.8,3.3,5C-1,9.9-1.2,13.3,3.4,18.1c18.1,18.7,36.3,37.5,54.4,56.2c4.7,4.9,8.1,4.9,12.8,0
			c17.6-18.2,35.1-36.5,52.9-54.5c6.1-6.2,6.8-9.9-0.1-16.4c-4.7-4.4-8-4.6-12.5,0C96.1,18.7,81.2,34.1,66.3,49.5
			C65.7,50.2,65.2,51,64.5,52z"/>
		<path class="st1" d="M64.5,52c0.7-1,1.2-1.8,1.8-2.5C81.2,34.1,96.1,18.7,111,3.3c4.5-4.6,7.8-4.4,12.5,0
			c6.9,6.5,6.1,10.3,0.1,16.4c-17.8,18-35.3,36.3-52.9,54.5c-4.7,4.9-8.1,4.9-12.8,0C39.7,55.5,21.6,36.8,3.4,18.1
			C-1.2,13.3-1,9.9,3.3,5c6-6.8,9.8-6.5,15.9,0C34,20.6,49,36,64.5,52z"/>
	</g>
</g>
</svg>
