<?xml version="1.0" encoding="utf-8"?>
<!-- Generator: Adobe Illustrator 24.3.0, SVG Export Plug-In . SVG Version: 6.00 Build 0)  -->
<svg version="1.1" id="Слой_1" xmlns="http://www.w3.org/2000/svg" xmlns:xlink="http://www.w3.org/1999/xlink" x="0px" y="0px"
	 viewBox="0 0 200 200" style="enable-background:new 0 0 200 200;" xml:space="preserve">
<style type="text/css">
	.st0{fill:#030302;}
	.st1{fill:#FDFDFD;}
	.st2{fill:#AD6E32;}
	.st3{fill:#FDDE00;}
	.st4{fill:#835224;}
	.st5{fill:#4E4E4E;}
	.st6{fill:#343434;}
</style>
<g>
	<g>
		<path class="st0" d="M111.3,0c19.8,0,39.6,0,59.4,0c1.5,0.9,2.1,2.1,2,3.9c-0.1,1.9,0,3.8,0,5.7c0,4.8,0,9.6,0,14.6
			c3,0,5.7,0,8.5,0c2.7,0,3.6,1,3.6,3.7c0,7.6,0,15.2,0,22.8c0,2.8-0.9,3.7-3.7,3.7c-2.8,0-5.5,0-8.4,0c0,1,0,1.7,0,2.4
			c0,10.6,0,21.2,0,31.8c0,2.2-0.8,3.5-2.9,3.9c-2.5-0.8-3-1.4-3-4.1c0-10.6,0-21.2,0-31.8c0-0.7,0.2-1.4-0.3-2.3
			c-2.2,0-4.4,0.2-6.7,0c-2.1-0.2-2.4,0.6-2.4,2.5c0.1,29.2,0,58.4,0,87.6c0,0.5,0,0.9,0,1.4c0,0.6,0.2,1,0.9,1c2.8,0,5.6,0,8.5,0
			c0-1,0-1.8,0-2.5c0-13.7,0-27.3,0-41c0-2.7,0.5-3.3,3-4c2.2,0.4,2.9,1.8,2.9,3.9c-0.1,13.8,0,27.6,0,41.4c0,0.7-0.2,1.4,0.3,2.2
			c2.7,0,5.5,0,8.3,0c2.5,0,3.5,1,3.5,3.6c0,7.7,0,15.4,0,23c0,2.7-1,3.6-3.6,3.6c-2.8,0-5.6,0-8.5,0c0,6.4-0.1,12.7,0,18.9
			c0,1.8-0.4,3.2-2,4.1c-41,0-82,0-123.1,0c-1.7-0.8-2.2-2.2-2.2-4c0.1-6,0-12,0-17.9c0-0.8,0.2-1.5-0.2-2.2c-2,0-4,0-6.1,0
			c0,4.9,0,9.7,0,14.5c0,3-1,5.6-3.3,7.6c-1.1,1-2.6,1.3-3.9,2c-1.3,0-2.6,0-3.9,0c-5.6-2.1-7.3-6.4-7-12c0.2-3.6,0-7.3,0.1-10.9
			c0-1.2-0.3-1.9-1.5-2.5c-5.6-3.1-6.3-11-1.1-14.7c2.3-1.6,2.8-3.3,2.6-5.7c-0.1-0.6-0.1-1.3,0-1.9c0.1-0.9-0.3-1.4-1.1-1.8
			c-2.9-1.6-4.6-4-4.6-7.4c-0.1-4.4-0.1-8.8,0-13.3c0.1-3.3,1.7-5.7,4.5-7.3c0.8-0.5,1.2-0.9,1.2-1.9c0-13.7,0-27.5,0-41.2
			c0-0.9-0.3-1.3-1.1-1.8c-2.9-1.6-4.6-4-4.6-7.4c-0.1-4.4,0-8.8,0-13.3c0-2.5,0.9-4.9,3-6.1c2.9-1.6,2.9-3.8,2.7-6.4
			c0-0.5,0-0.9,0-1.4c0.1-1-0.2-1.6-1.2-2.1c-3.1-1.6-4.8-4.3-4.8-7.9c0-3.6,1.7-6.2,4.8-7.9c1-0.5,1.3-1,1.3-2.1
			c-0.1-4.6-0.1-9.1,0-13.7c0-4.5,2.2-7.5,6.4-9c0.2-0.1,0.5-0.1,0.5-0.4c1.2,0,2.3,0,3.5,0c6.3,2.6,7.6,4.5,7.6,11.6
			c0,2.5,0,5.1,0,7.6c0,1.6-0.2,3.2,0.2,4.8c2,0,3.9,0,5.8,0c0.4-0.7,0.2-1.5,0.2-2.2c0-6,0-12,0-17.9c0-1.8,0.4-3.2,2.2-4
			c17.6,0,35.2,0,52.7,0c1,0.8,1.9,1.6,2,3c-0.5,2.2-1.8,2.9-4,2.9c-14.9,0-29.8,0-44.7,0c-0.7,0-1.5-0.2-2.2,0.2c0,6,0,12,0,18.1
			c3.4,0,6.5-0.1,9.7,0c5.6,0.2,9.5,5.8,8,11.2c-1.1,4-4.4,6.5-8.8,6.7c-3,0.1-5.9,0-8.9,0c0,38.7,0,77.1,0,115.7
			c3.2,0,6.4-0.1,9.5,0c3.8,0.1,7,2.6,8.2,6.1c1.8,5.7-2.2,11.5-8.2,11.7c-3.1,0.1-6.2,0-9.4,0c0,6.2,0,12.3,0,18.3
			c38.5,0,76.9,0,115.3,0c0-5.7,0-11.3,0-17.1c-3.3,0-6.6,0.1-9.8,0c-8.9-0.3-15.7-8.9-14.1-17.7c0.5-2.9,1.9-5.3,3.7-7.8
			c-1,0-1.7,0-2.4,0c-15.2,0-30.5,0-45.7,0c-0.8,0-1.6,0-2.3-0.2c-1.3-0.4-2.4-1.2-2.2-2.8c0.2-1.6,1-2.7,2.7-2.8c0.6-0.1,1.3,0,2,0
			c16.9,0,33.7,0,50.6,0c0.8,0,1.6,0.2,2.3-0.2c0-30.3,0-60.6,0-91c-0.8,0-1.4,0-2.1,0c-26.9,0-53.8,0-80.7,0
			c-1.8,0-2.3,0.4-2.3,2.3c0.1,29,0.1,57.9,0,86.9c0,1.7,0.4,2.2,2.2,2.2c5.1-0.1,10.2-0.1,15.2,0c2.1,0,3.5,1.5,3.1,3.3
			c-0.4,1.9-1.8,2.5-3.7,2.5c-6.1,0-12.1,0-18.2,0c-3.6,0-4.5-0.9-4.5-4.5c0-31.3,0-62.6,0-93.9c0-3.6,0.9-4.5,4.5-4.5
			c26,0,52,0,77.9,0c0.7,0,1.5,0,2.2,0c0-1-0.5-1.5-0.8-2c-2.1-3.9-2.5-8-1-12.3c2.1-6,7.5-9.9,14-10.1c3.1-0.1,6.2,0,9.3,0
			c0-6.3,0-12.2,0-18.3c-0.9,0-1.7,0-2.4,0c-17.1,0-34.1,0-51.2,0c-2.5,0-3.2-0.5-3.9-2.9C109.3,1.5,110.2,0.7,111.3,0z M161,48.4
			c5.9,0,11.9,0,17.8,0c0-6.2,0-12.2,0-18.3c-6,0-11.9,0-17.9,0c-1.2,0-2.5-0.1-3.7-0.1c-3.8,0.1-7.3,2.8-8.4,6.4
			c-1.1,3.9,0.2,7.9,3.3,10.2C154.9,48.7,157.9,48.6,161,48.4z M161,152.8c-1.2,0-2.5-0.1-3.7-0.1c-3.8,0.1-7.3,2.8-8.4,6.4
			c-1.1,3.8,0.2,7.9,3.3,10.2c2.7,2,5.7,1.9,8.7,1.7c5.9,0,11.9,0,17.8,0c0-6.2,0-12.2,0-18.3C172.8,152.8,166.9,152.8,161,152.8z
			 M45.4,54.4c-7.2,0-14.2-0.1-21.3,0c-1.7,0-2.7,1.2-2.7,3c0,4,0,8.1,0,12.1c0,2.2,1,3.1,3.3,3.2c2.4,0.1,4.8,0,7.2,0
			c4.5,0,8.9,0,13.5,0C45.4,66.6,45.4,60.6,45.4,54.4z M45.4,127.5c-0.5-0.4-1-0.3-1.4-0.3c-6.4,0-12.7,0-19.1,0
			c-2.6,0-3.5,0.9-3.5,3.5c0,3.6,0,7.3,0,10.9c0,2.9,0.9,3.9,3.8,3.9c6.2,0,12.3,0,18.5,0c0.6,0,1.2,0.2,1.7-0.3
			C45.4,139.4,45.4,133.4,45.4,127.5z M33.2,121.2c0-14.3,0-28.4,0-42.4c-2.1,0-4,0-5.9,0c0,14.2,0,28.3,0,42.4
			C29.3,121.2,31.2,121.2,33.2,121.2z M45.4,121.3c0-14.3,0-28.4,0-42.5c-2.1,0-4.1,0-6,0c0,14.2,0,28.3,0,42.5
			C41.4,121.3,43.3,121.3,45.4,121.3z M42.4,163.6C42.4,163.6,42.4,163.6,42.4,163.6c-5.9,0-11.7,0-17.6,0c-2.4,0-3.7,1.1-3.8,3
			c0,2,1.3,3.2,3.8,3.2c11.6,0,23.3,0,34.9,0c2.4,0,3.9-1.2,3.8-3.2c0-2-1.4-3.1-3.9-3.1C54,163.6,48.2,163.6,42.4,163.6z M42.4,30
			c-1.6,0-3.3,0-4.9,0c-4.5,0-9,0-13.5,0.1c-1.7,0-2.8,1-3,2.7c-0.2,1.6,0.9,3,2.6,3.3c0.6,0.1,1.2,0.1,1.7,0.1c9.3,0,18.6,0,27.9,0
			c2.3,0,4.6,0,6.8,0c1.5,0,2.7-0.6,3.3-2c0.9-2.1-0.6-4.2-3.3-4.2C54.3,30,48.4,30,42.4,30z M33.3,24c0-4.9,0-9.7,0-14.4
			c0-2.3-1.2-3.7-3.1-3.7c-1.8,0-3.1,1.5-3.1,3.8c0,4.4,0,8.8,0,13.3c0,0.4-0.1,0.8,0.4,1.1C29.3,24,31.2,24,33.3,24z M27.1,175.9
			c0,2.4,0,4.9,0,7.3c0,2.6-0.1,5.2,0,7.8c0.1,1.9,1.5,3.1,3.1,3.1c1.6,0,3-1.2,3-3c0.1-5,0-10.1,0-15.2
			C31.2,175.9,29.3,175.9,27.1,175.9z M45.4,42.2c-2.1,0-4.1,0-6,0c0,2.1,0,4.2,0,6.2c2.1,0,4,0,6,0C45.4,46.4,45.4,44.4,45.4,42.2z
			 M45.4,157.7c0-2.1,0-4.1,0-6.1c-2.1,0-4.1,0-6,0c0,2.1,0,4.1,0,6.1C41.4,157.7,43.4,157.7,45.4,157.7z M33.2,157.6c0-2.1,0-4,0-6
			c-2,0-4,0-6,0c0,2,0,4,0,6C29.2,157.6,31.2,157.6,33.2,157.6z M33.2,42.3c-2.1,0-4.1,0-6,0c0,2.1,0,4.1,0,6c2.1,0,4.1,0,6,0
			C33.2,46.2,33.2,44.3,33.2,42.3z"/>
		<path class="st1" d="M170.7,200c1.6-0.9,2-2.3,2-4.1c-0.1-6.2,0-12.5,0-18.9c2.9,0,5.7,0,8.5,0c2.7,0,3.6-1,3.6-3.6
			c0-7.7,0-15.4,0-23c0-2.6-1-3.5-3.5-3.6c-2.8,0-5.6,0-8.3,0c-0.5-0.8-0.3-1.5-0.3-2.2c0-13.8,0-27.6,0-41.4c0-2.1-0.7-3.5-2.9-3.9
			c0-2.2,0-4.5,0-6.7c2.1-0.4,2.9-1.8,2.9-3.9c-0.1-10.6,0-21.2,0-31.8c0-0.7,0-1.4,0-2.4c2.8,0,5.6,0,8.4,0c2.8,0,3.7-0.9,3.7-3.7
			c0-7.6,0-15.2,0-22.8c0-2.7-0.9-3.6-3.6-3.7c-2.8,0-5.6,0-8.5,0c0-5,0-9.8,0-14.6c0-1.9-0.1-3.8,0-5.7c0.1-1.8-0.5-3-2-3.9
			c9.8,0,19.5,0,29.3,0c0,66.7,0,133.3,0,200C190.2,200,180.5,200,170.7,200z"/>
		<path class="st1" d="M28.1,0c0,0.3-0.3,0.3-0.5,0.4c-4.2,1.5-6.3,4.6-6.4,9c0,4.6,0,9.1,0,13.7c0,1-0.3,1.5-1.3,2.1
			c-3.1,1.7-4.8,4.4-4.8,7.9c0,3.6,1.7,6.2,4.8,7.9c1,0.5,1.3,1.1,1.2,2.1c-0.1,0.4,0,0.9,0,1.4c0.2,2.6,0.2,4.9-2.7,6.4
			c-2.1,1.1-2.9,3.6-3,6.1c0,4.4-0.1,8.8,0,13.3c0.1,3.3,1.7,5.8,4.6,7.4c0.8,0.5,1.1,0.9,1.1,1.8c0,13.7,0,27.5,0,41.2
			c0,1-0.4,1.4-1.2,1.9c-2.8,1.6-4.4,4-4.5,7.3c-0.1,4.4-0.1,8.8,0,13.3c0.1,3.3,1.7,5.8,4.6,7.4c0.8,0.4,1.2,0.9,1.1,1.8
			c-0.1,0.6-0.1,1.3,0,1.9c0.2,2.4-0.2,4.1-2.6,5.7c-5.2,3.6-4.5,11.6,1.1,14.7c1.2,0.6,1.5,1.3,1.5,2.5c-0.1,3.6,0.2,7.3-0.1,10.9
			c-0.4,5.7,1.4,9.9,7,12c-9.4,0-18.8,0-28.1,0C0,133.3,0,66.7,0,0C9.4,0,18.8,0,28.1,0z"/>
		<path class="st1" d="M47.7,0c-1.7,0.8-2.2,2.2-2.2,4c0,6,0,12,0,17.9c0,0.7,0.2,1.4-0.2,2.2c-1.9,0-3.8,0-5.8,0
			c-0.4-1.6-0.2-3.2-0.2-4.8c0-2.5,0-5.1,0-7.6c0-7.1-1.2-9-7.6-11.6C37,0,42.3,0,47.7,0z"/>
		<path class="st1" d="M32,200c1.3-0.7,2.7-1,3.9-2c2.3-2,3.3-4.5,3.3-7.6c0-4.8,0-9.6,0-14.5c2.1,0,4.1,0,6.1,0
			c0.4,0.7,0.2,1.5,0.2,2.2c0,6,0,12,0,17.9c0,1.8,0.5,3.2,2.2,4C42.5,200,37.2,200,32,200z"/>
		<path class="st1" d="M102.4,3c-0.1-1.4-1-2.2-2-3c3.6,0,7.3,0,10.9,0c-1.2,0.7-2,1.5-2.1,3C106.9,3,104.7,3,102.4,3z"/>
		<path class="st2" d="M102.4,3c2.3,0,4.5,0,6.8,0c0.7,2.3,1.4,2.9,3.9,2.9c17.1,0,34.1,0,51.2,0c0.8,0,1.5,0,2.4,0
			c0,6.1,0,12.1,0,18.3c-3.1,0-6.2-0.1-9.3,0c-6.4,0.1-11.8,4-14,10.1c-1.5,4.2-1.1,8.3,1,12.3c0.3,0.6,0.8,1,0.8,2
			c-0.8,0-1.5,0-2.2,0c-26,0-52,0-77.9,0c-3.6,0-4.5,0.9-4.5,4.5c0,31.3,0,62.6,0,93.9c0,3.7,0.9,4.5,4.5,4.5c6.1,0,12.1,0,18.2,0
			c1.8,0,3.2-0.6,3.7-2.5c0.4-1.8-1-3.3-3.1-3.3c-5.1,0-10.2-0.1-15.2,0c-1.8,0-2.2-0.5-2.2-2.2c0.1-29,0.1-57.9,0-86.9
			c0-1.8,0.5-2.3,2.3-2.3c26.9,0.1,53.8,0,80.7,0c0.6,0,1.3,0,2.1,0c0,30.5,0,60.7,0,91c-0.8,0.4-1.6,0.2-2.3,0.2
			c-16.9,0-33.7,0-50.6,0c-0.7,0-1.3,0-2,0c-1.7,0.2-2.5,1.2-2.7,2.8c-0.2,1.6,0.9,2.4,2.2,2.8c0.7,0.2,1.5,0.2,2.3,0.2
			c15.2,0,30.5,0,45.7,0c0.7,0,1.4,0,2.4,0c-1.8,2.5-3.2,4.9-3.7,7.8c-1.6,8.8,5.2,17.4,14.1,17.7c3.2,0.1,6.5,0,9.8,0
			c0,5.8,0,11.4,0,17.1c-38.4,0-76.8,0-115.3,0c0-6.1,0-12.1,0-18.3c3.2,0,6.3,0.1,9.4,0c6-0.3,10.1-6.1,8.2-11.7
			c-1.2-3.6-4.4-6.1-8.2-6.1c-3.1-0.1-6.2,0-9.5,0c0-38.6,0-77,0-115.7c3,0,6,0.1,8.9,0c4.4-0.1,7.7-2.6,8.8-6.7
			c1.5-5.4-2.4-11-8-11.2c-3.2-0.1-6.4,0-9.7,0c0-6.1,0-12.1,0-18.1c0.7-0.5,1.5-0.2,2.2-0.2c14.9,0,29.8,0,44.7,0
			C100.6,5.9,102,5.2,102.4,3z M96.1,118.2c-0.2,0.4-0.4,0.6-0.6,0.9c-1,1.8-0.8,3.4,0.5,4.3c1.4,0.9,3.1,0.5,4.3-1
			c2.5-3.1,2-7-1.1-9.5c-3.1-2.4-7.5-2.6-11-0.4c-3.6,2.2-5.4,6.2-4.6,10.6c0.7,3.9,3.8,7,8.1,7.7c7.9,1.3,15-0.3,20.6-6.5
			c1.1-1.3,2.3-2.5,3.4-3.8c2.4-2.6,4.7-5.3,7.4-8.3c0,1.2,0,1.8,0,2.4c0,4.1,0,8.2,0,12.3c0,2.6,1.1,4,2.9,4.1
			c1.9,0.1,2.9-1.3,2.9-4c0-6.3,0-12.6,0-18.9c0-1.2,0.4-1.8,1.5-2.3c4.7-1.8,9.1-4.2,13.3-6.9c3-2,3-4.2,0-6.2
			c-0.8-0.5-1.6-1-2.5-1.5C132,85.7,122,82,111,81.7C97.4,81.2,85.3,85.8,74.1,93c-2.7,1.7-2.7,4-0.1,5.7
			c12.4,7.9,25.6,12.5,40.6,11.1c0.8-0.1,1.6-0.1,2.9-0.2c-4.2,4.5-7.5,9.1-11.8,12.6c-1.5,1.2-3.1,2.2-4.9,2.8
			c-3.9,1.5-7.9,0.8-10.3-1.8c-1.5-1.6-1.6-3.8-0.2-5.2C92,116.5,94.2,116.5,96.1,118.2z M108.3,68.9C96.1,69,84.5,73.3,73.8,80.4
			c-1.7,1.1-2.1,2.9-1.2,4.3c1,1.4,2.5,1.6,4.3,0.6c1.9-1.1,3.8-2.3,5.7-3.4c13.1-7.1,26.8-9.3,41.2-4.9c6.2,1.9,11.9,4.8,17.4,8.3
			c1.8,1.1,3.5,0.8,4.4-0.8c0.9-1.4,0.5-3-1.1-4C133.8,73.4,122.1,69,108.3,68.9z M106.1,181.9c7.6,0,15.1,0,22.7,0
			c3.2,0,4.5-0.9,4.5-3c-0.1-2-1.4-2.9-4.5-2.9c-15.1,0-30.2,0-45.3,0c-0.7,0-1.4,0-2.1,0.1c-1.5,0.3-2.3,1.2-2.3,2.7
			c0,1.6,0.8,2.6,2.3,2.9c0.6,0.1,1.3,0.1,1.9,0.1C90.8,181.9,98.4,181.9,106.1,181.9z M106.3,30.4c-7.9,0-15.9,0-23.8,0
			c-1.6,0-2.9,0.4-3.4,2c-0.7,2.1,0.9,3.8,3.6,3.8c15.6,0,31.2,0,46.9,0c2.4,0,3.8-1.1,3.7-3c-0.1-1.8-1.2-2.7-3.7-2.7
			C121.8,30.4,114,30.4,106.3,30.4z M105.9,23.8c5,0,10,0,15,0c3.1,0,6.2,0,9.4,0c1.7,0,2.9-1.2,2.9-2.8c0-1.6-1-2.8-2.7-3
			c-0.6-0.1-1.2,0-1.8,0c-14.8,0-29.6,0-44.3,0c-0.9,0-1.8-0.1-2.7,0c-2.2,0.3-3.4,2.5-2.4,4.3c0.7,1.2,1.8,1.5,3.2,1.5
			C90.2,23.8,98.1,23.8,105.9,23.8z M106.1,169.5c6.6,0,13.1,0,19.7,0c1.5,0,3,0,4.5,0c1.7-0.1,2.9-1.2,2.9-2.8c0-1.6-1-2.8-2.7-3
			c-0.5-0.1-1,0-1.6,0c-15.2,0-30.5,0-45.7,0c-0.6,0-1.2-0.1-1.8,0.1c-1.6,0.3-2.6,1.3-2.5,3c0.1,1.7,1.1,2.6,2.7,2.8
			c0.5,0.1,1,0,1.6,0C90.8,169.5,98.5,169.5,106.1,169.5z"/>
		<path class="st2" d="M169.8,92.5c0,2.2,0,4.5,0,6.7c-2.5,0.8-3,1.4-3,4c0,13.7,0,27.3,0,41c0,0.8,0,1.5,0,2.5c-2.9,0-5.7,0-8.5,0
			c-0.7,0-0.9-0.4-0.9-1c0-0.5,0-0.9,0-1.4c0-29.2,0-58.4,0-87.6c0-1.9,0.4-2.7,2.4-2.5c2.2,0.2,4.5,0,6.7,0
			c0.5,0.9,0.3,1.6,0.3,2.3c0,10.6,0,21.2,0,31.8C166.9,91.1,167.3,91.7,169.8,92.5z"/>
		<path class="st3" d="M45.4,54.4c0,6.1,0,12.1,0,18.4c-4.6,0-9,0-13.5,0c-2.4,0-4.8,0-7.2,0c-2.3,0-3.3-1-3.3-3.2c0-4,0-8.1,0-12.1
			c0-1.8,1-3,2.7-3C31.1,54.4,38.2,54.4,45.4,54.4z"/>
		<path class="st3" d="M45.4,127.5c0,5.9,0,11.8,0,17.8c-0.5,0.6-1.1,0.3-1.7,0.3c-6.2,0-12.3,0-18.5,0c-2.9,0-3.8-0.9-3.8-3.9
			c0-3.6,0-7.3,0-10.9c0-2.6,0.9-3.5,3.5-3.5c6.4,0,12.7,0,19.1,0C44.4,127.2,44.9,127.1,45.4,127.5z"/>
		<path class="st2" d="M161,152.8c5.9,0,11.8,0,17.9,0c0,6.1,0,12.1,0,18.3c-5.9,0-11.9,0-17.8,0c0-0.5-0.3-0.8-0.7-1.2
			c-3.2-3.5-3.5-7.6-2.4-12C158.5,155.9,160.1,154.6,161,152.8z"/>
		<path class="st2" d="M161,30.1c5.9,0,11.8,0,17.9,0c0,6.1,0,12.1,0,18.3c-5.9,0-11.9,0-17.8,0c0-0.5-0.3-0.8-0.7-1.2
			c-3.2-3.5-3.5-7.6-2.4-12C158.5,33.2,160.1,31.9,161,30.1z"/>
		<path class="st1" d="M33.2,121.2c-2,0-3.9,0-5.9,0c0-14.1,0-28.2,0-42.4c1.9,0,3.9,0,5.9,0C33.2,92.9,33.2,107,33.2,121.2z"/>
		<path class="st1" d="M45.4,121.3c-2.1,0-4,0-6,0c0-14.2,0-28.2,0-42.5c2,0,3.9,0,6,0C45.4,92.9,45.4,107,45.4,121.3z"/>
		<path class="st3" d="M42.4,163.6c5.8,0,11.6,0,17.4,0c2.5,0,3.9,1.1,3.9,3.1c0,2-1.4,3.2-3.8,3.2c-11.6,0-23.3,0-34.9,0
			c-2.5,0-3.8-1.2-3.8-3.2c0-1.9,1.3-3,3.8-3C30.7,163.6,36.6,163.7,42.4,163.6C42.4,163.6,42.4,163.6,42.4,163.6z"/>
		<path class="st3" d="M42.4,30c5.9,0,11.8,0,17.8,0c2.6,0,4.2,2.1,3.3,4.2c-0.6,1.4-1.8,2-3.3,2c-2.3,0-4.6,0-6.8,0
			c-9.3,0-18.6,0-27.9,0c-0.6,0-1.2,0-1.7-0.1c-1.7-0.3-2.8-1.7-2.6-3.3c0.2-1.7,1.2-2.7,3-2.7c4.5-0.1,9-0.1,13.5-0.1
			C39.2,30,40.8,30,42.4,30z"/>
		<path class="st4" d="M161,152.8c-0.8,1.8-2.5,3.1-3,5.1c-1.1,4.4-0.8,8.5,2.4,12c0.3,0.3,0.6,0.7,0.7,1.2
			c-3.1,0.2-6.1,0.3-8.7-1.7c-3.1-2.3-4.5-6.4-3.3-10.2c1.1-3.6,4.6-6.3,8.4-6.4C158.5,152.7,159.7,152.7,161,152.8z"/>
		<path class="st4" d="M161,30.1c-0.8,1.8-2.5,3.1-3,5.1c-1.1,4.4-0.8,8.5,2.4,12c0.3,0.3,0.6,0.7,0.7,1.2c-3.1,0.2-6.1,0.3-8.7-1.7
			c-3.1-2.3-4.5-6.4-3.3-10.2c1.1-3.6,4.6-6.3,8.4-6.4C158.5,30,159.7,30.1,161,30.1z"/>
		<path class="st1" d="M33.3,24c-2.1,0-4,0-5.8,0c-0.4-0.3-0.4-0.7-0.4-1.1c0-4.4,0-8.8,0-13.3c0-2.3,1.3-3.8,3.1-3.8
			c1.9,0,3.1,1.4,3.1,3.7C33.3,14.3,33.3,19.1,33.3,24z"/>
		<path class="st1" d="M27.1,175.9c2.2,0,4.1,0,6.2,0c0,5.1,0,10.2,0,15.2c0,1.7-1.4,3-3,3c-1.6,0-3-1.2-3.1-3.1
			c-0.1-2.6,0-5.2,0-7.8C27.1,180.8,27.1,178.3,27.1,175.9z"/>
		<path class="st1" d="M45.4,42.2c0,2.2,0,4.2,0,6.2c-2,0-4,0-6,0c0-2,0-4.1,0-6.2C41.3,42.2,43.3,42.2,45.4,42.2z"/>
		<path class="st1" d="M45.4,157.7c-2,0-3.9,0-6,0c0-2,0-4,0-6.1c1.9,0,3.9,0,6,0C45.4,153.6,45.4,155.6,45.4,157.7z"/>
		<path class="st1" d="M33.2,157.6c-2.1,0-4,0-6,0c0-2,0-3.9,0-6c2,0,4,0,6,0C33.2,153.6,33.2,155.5,33.2,157.6z"/>
		<path class="st1" d="M33.2,42.3c0,2,0,4,0,6c-1.9,0-3.9,0-6,0c0-2,0-3.9,0-6C29.2,42.3,31.1,42.3,33.2,42.3z"/>
		<path class="st0" d="M96.1,118.2c-1.9-1.7-4.1-1.7-5.7-0.2c-1.4,1.4-1.3,3.6,0.2,5.2c2.4,2.6,6.4,3.3,10.3,1.8
			c1.8-0.7,3.4-1.6,4.9-2.8c4.4-3.6,7.6-8.2,11.8-12.6c-1.4,0.1-2.2,0.1-2.9,0.2c-14.9,1.4-28.2-3.2-40.6-11.1
			c-2.7-1.7-2.6-4,0.1-5.7c11.2-7.2,23.3-11.8,36.9-11.4c11,0.4,21,4,30.3,9.6c0.8,0.5,1.7,1,2.5,1.5c3,2,3.1,4.2,0,6.2
			c-4.2,2.7-8.6,5.1-13.3,6.9c-1.2,0.4-1.6,1-1.5,2.3c0.1,6.3,0,12.6,0,18.9c0,2.6-1,4-2.9,4c-1.9,0-2.9-1.5-2.9-4.1
			c0-4.1,0-8.2,0-12.3c0-0.6,0-1.3,0-2.4c-2.7,3-5.1,5.7-7.4,8.3c-1.1,1.3-2.3,2.5-3.4,3.8c-5.6,6.2-12.6,7.8-20.6,6.5
			c-4.3-0.7-7.4-3.8-8.1-7.7c-0.8-4.4,0.9-8.4,4.6-10.6c3.5-2.1,7.9-2,11,0.4c3.1,2.5,3.6,6.4,1.1,9.5c-1.2,1.5-2.9,1.9-4.3,1
			c-1.4-0.9-1.6-2.6-0.5-4.3C95.7,118.9,95.9,118.6,96.1,118.2z M110.6,103.9c3.8-0.3,6.9-3.9,7-8c0.1-4.1-3.1-7.8-7-8.2
			c-0.3-0.1-0.6-0.3-0.9-0.3c-5.5-0.4-9.9,4.7-8.8,10.1C101.8,102.1,106.6,105.2,110.6,103.9z M137.6,95.9
			c-4.9-3.4-10.1-5.5-15.9-6.8c1,2.4,1.6,4.6,1.6,6.9c0,2.2-0.7,4.4-1.5,6.7C127.6,101.3,132.6,99,137.6,95.9z M80.7,96
			c5,2.9,10.1,5.2,15.7,6.7c-2-5.7-2-7-0.1-13.3C92.2,90,84.5,93.3,80.7,96z"/>
		<path class="st0" d="M108.3,68.9c13.9,0.1,25.5,4.5,36.3,11.6c1.6,1,2,2.7,1.1,4c-1,1.5-2.6,1.9-4.4,0.8
			c-5.5-3.5-11.2-6.4-17.4-8.3c-14.5-4.4-28.1-2.1-41.2,4.9c-1.9,1.1-3.8,2.3-5.7,3.4c-1.8,1-3.3,0.8-4.3-0.6
			c-1-1.4-0.6-3.2,1.2-4.3C84.5,73.3,96.1,69,108.3,68.9z"/>
		<path class="st0" d="M106.1,181.9c-7.6,0-15.2,0-22.8,0c-0.6,0-1.3,0-1.9-0.1c-1.5-0.3-2.4-1.3-2.3-2.9c0-1.5,0.9-2.4,2.3-2.7
			c0.7-0.1,1.4-0.1,2.1-0.1c15.1,0,30.2,0,45.3,0c3.1,0,4.4,0.9,4.5,2.9c0.1,2.1-1.3,3-4.5,3C121.2,181.9,113.6,181.9,106.1,181.9z"
			/>
		<path class="st0" d="M106.3,30.4c7.7,0,15.5,0,23.2,0c2.5,0,3.7,0.9,3.7,2.7c0.1,1.9-1.3,3-3.7,3c-15.6,0-31.2,0-46.9,0
			c-2.7,0-4.3-1.7-3.6-3.8c0.5-1.6,1.8-2,3.4-2C90.4,30.4,98.3,30.4,106.3,30.4z"/>
		<path class="st0" d="M105.9,23.8c-7.8,0-15.6,0-23.4,0c-1.3,0-2.4-0.3-3.2-1.5c-1-1.8,0.2-4,2.4-4.3c0.9-0.1,1.8,0,2.7,0
			c14.8,0,29.6,0,44.3,0c0.6,0,1.2,0,1.8,0c1.7,0.2,2.8,1.4,2.7,3c0,1.6-1.2,2.7-2.9,2.8c-3.1,0.1-6.2,0-9.4,0
			C115.9,23.8,110.9,23.8,105.9,23.8z"/>
		<path class="st0" d="M106.1,169.5c-7.6,0-15.2,0-22.8,0c-0.5,0-1,0-1.6,0c-1.6-0.2-2.7-1.1-2.7-2.8c-0.1-1.7,0.9-2.7,2.5-3
			c0.6-0.1,1.2-0.1,1.8-0.1c15.2,0,30.5,0,45.7,0c0.5,0,1,0,1.6,0c1.7,0.2,2.8,1.4,2.7,3c0,1.6-1.2,2.7-2.9,2.8c-1.5,0.1-3,0-4.5,0
			C119.2,169.5,112.6,169.5,106.1,169.5z"/>
		<path class="st5" d="M110.6,87.8c3.9,0.4,7.1,4,7,8.2c-0.1,4.1-3.2,7.6-7,8c-0.3-0.4-0.5-0.9-0.8-1.3c-2.3-3.1-2.9-6.5-1.7-10.2
			C108.6,90.7,109.7,89.3,110.6,87.8z"/>
		<path class="st1" d="M137.6,95.9c-5,3.2-10.1,5.4-15.9,6.8c0.9-2.3,1.5-4.4,1.5-6.7c0-2.3-0.6-4.5-1.6-6.9
			C127.5,90.4,132.7,92.5,137.6,95.9z"/>
		<path class="st1" d="M80.7,96c3.8-2.7,11.5-6,15.6-6.7c-1.9,6.3-1.9,7.6,0.1,13.3C90.8,101.2,85.7,98.9,80.7,96z"/>
		<path class="st6" d="M110.6,87.8c-0.9,1.5-1.9,2.9-2.5,4.6c-1.2,3.7-0.6,7.1,1.7,10.2c0.3,0.4,0.5,0.9,0.8,1.3
			c-3.9,1.3-8.8-1.9-9.7-6.3c-1.1-5.4,3.3-10.5,8.8-10.1C110,87.5,110.3,87.7,110.6,87.8z"/>
	</g>
</g>
</svg>
