<?xml version="1.0" encoding="utf-8"?>
<!-- Generator: Adobe Illustrator 24.3.0, SVG Export Plug-In . SVG Version: 6.00 Build 0)  -->
<svg version="1.1" id="Слой_1" xmlns="http://www.w3.org/2000/svg" xmlns:xlink="http://www.w3.org/1999/xlink" x="0px" y="0px"
	 viewBox="0 0 100 100" style="enable-background:new 0 0 100 100;" xml:space="preserve">
<style type="text/css">
	.st0{fill:#FEFDFD;}
	.st1{fill:#FC8F03;}
	.st2{fill:#FBBE43;}
	.st3{fill:#793E3E;}
	.st4{fill:#A62C2B;}
	.st5{fill:#D63231;}
	.st6{fill:#FEF1B3;}
	.st7{fill:#FEDE8D;}
</style>
<g>
	<g>
		<path class="st0" d="M100,100c-33.3,0-66.7,0-100,0C0,66.7,0,33.3,0,0c33.3,0,66.7,0,100,0C100,33.3,100,66.7,100,100z M4.9,68.7
			c1.7,4.8,4.3,8.9,7.7,12.6c1.3,1.7,2.8,3.3,4.5,4.6c0.3,0.3,0.5,0.6,0.8,0.8c12,9.9,25.7,13.4,40.9,10.4c7.9-1.6,15-5,21-10.4
			c0.1-0.1,0.3-0.2,0.4-0.4c1-0.9,2.1-1.8,3.1-2.6c0.1,0.9,0.2,1.9,0.3,2.8c1,0.2,1.9,0.2,3,0c0-0.7,0.3-1.6-0.2-2.2
			c-0.9-1-0.8-2.2-0.9-3.4c5.8-6.6,9.2-14.3,10.6-23c0.1-1,0.3-2,0.4-3c1.1,0,2-0.3,2.3-1.5c0.3-1.2-0.5-1.8-1.4-2.3
			c-0.3-0.2-0.5-0.3-0.8-0.5c0.6-24.6-19.1-46.1-43.8-48C27.4,0.8,4.8,18.9,1.6,43.8C0.7,50,1,56.2,2.7,62.2c-0.1,0.7,0.3,1.3,0.5,2
			C3.7,65.7,4.1,67.3,4.9,68.7z"/>
		<path class="st1" d="M1.6,43.8c3.2-24.9,25.8-43,51.2-41.1c24.7,1.9,44.4,23.4,43.8,48c-1.9-1.1-4-1.9-6.2-2.3
			c0-2.8,0.3-5.6-0.1-8.4c-1.4-8.7-5.3-16-12.2-21.7c-5.7-4.7-12.1-7.4-19.4-8c-7.2-0.6-14.2,0.7-20.5,4.5
			c-10.2,6-16.3,14.8-17.4,26.8c-1.8-1.8-3.6-3.6-5.4-5.3c-2.2-2.1-4.1-2-6.3,0.1C6.7,38.8,4.2,41.3,1.6,43.8z"/>
		<path class="st2" d="M79.8,86.7c-6,5.4-13.1,8.9-21,10.4c-15.2,3-28.9-0.5-40.9-10.4c-0.3-0.2-0.5-0.5-0.8-0.8
			c0.6-1.4-0.9-1.7-1.3-2.6c-1.4-3-0.8-5.2,2-7.4c1.4,2.6,2.9,5.1,4.3,7.6c-1.1,0.2-1.6,0.9-1.5,2c0.2,1.4,1.3,1,2.2,1c1,0,2,0,3,0
			c2,0,3.9,0,5.9,0c1.1,0,2.1,0.3,3.2-0.1c0.4-1.9-0.9-3.4-0.6-5.3c0.2-1.7,0-3.5,0-5.3c1.5,3.5,4.1,6.6,4,10.6
			c1.1,0.2,2.1,0.2,3.4-0.1c-1.1-3.3-2-6.6-2.3-10c0.9,0,1.9,0,2.8,0c0.9,0,1.5-0.4,1.5-1.3c0-0.9-0.6-1.4-1.5-1.4
			c-1.1-0.1-2.3,0-3.4,0c-0.7-1.5,0.2-2.5,1.2-3.4c3.8-1.7,6-5,7.9-8.5c2.4-0.6,4.8-1.2,7.2-1.9c-0.2,1.9-0.7,3.9,0.4,5.7
			c-1.3,0-2.7,0-4,0c-1.1,0-2,0.5-1.9,1.7c0,1.1,0.9,1.4,1.9,1.4c1.7,0,3.4,0,5.1,0c1,4.9-0.3,10.2,1.9,14.9c-0.4,0-0.9,0-1.3,0
			c-1.1,0.1-1.7,0.6-1.7,1.8c0,1.1,0.8,1.3,1.7,1.2c0.7,0,1.4,0,2.1,0c1,0,2,0,3,0c1.8,0,3.6,0,5.5,0c1,0,2,0.3,2.8-0.1
			c1.1-1.7-0.6-2.4-0.9-3.5c-0.8-2.8-1.6-5.6-2.5-8.4c-0.4-1.3,0.1-2,1.4-2c1.1-0.1,2.3,0,3.4,0c1.5-0.1,2.3,0.5,2.6,2
			c0.8,4,2.6,7.8,2.3,12C78.2,86.6,79,86.7,79.8,86.7z M50.7,79.4C50.7,79.4,50.7,79.4,50.7,79.4c-0.4,0-0.8,0-1.1,0
			c-1,0-1.8,0.4-1.8,1.5c0,1.1,0.7,1.5,1.8,1.5c0.8,0,1.5,0,2.3,0c0.9,0,1.5-0.5,1.6-1.5c0.1-1.1-0.7-1.4-1.5-1.5
			C51.5,79.4,51.1,79.4,50.7,79.4z M58.5,93.9C58.5,93.9,58.5,93.9,58.5,93.9c0.3,0,0.6,0,1,0c1,0.1,1.9-0.2,1.9-1.3
			c0-1.1-0.9-1.4-1.9-1.4c-0.8,0-1.7,0-2.5,0c-0.9,0-1.2,0.5-1.2,1.3c0,0.9,0.4,1.3,1.3,1.3C57.5,93.9,58,93.9,58.5,93.9z"/>
		<path class="st3" d="M39.5,76.4c0.3,3.4,1.2,6.7,2.3,10c-1.3,0.3-2.3,0.3-3.4,0.1c0.1-4.1-2.5-7.1-4-10.6c0,1.8,0.2,3.6,0,5.3
			c-0.2,1.8,1,3.4,0.6,5.3c-1,0.4-2.1,0.2-3.2,0.2c0-1,0.1-2,0.1-3c-0.6-2.1-1.1-4.3-1.7-6.4c-1.4-5.4-0.4-4.5-6-4.5
			c-2.1,0-2.6,0.5-2,2.5c0.8,2.9,1.7,5.7,2.6,8.6c1.1,0.7,1.2,1.8,1,3c-1,0-2,0-3,0c-0.1-1,0.2-2.2-0.8-3c-1.4-2.5-2.8-5.1-4.3-7.6
			c-2.9,2.2-3.5,4.4-2,7.4c0.4,0.9,1.9,1.2,1.3,2.6c-1.7-1.3-3.2-2.9-4.5-4.6c-0.8-2.5-0.3-5.1-0.6-7.7c0.3-1-0.2-2-0.3-3
			c0-0.7,0.1-1.4-0.3-2c0-1.8-1.1-3.1-1.9-4.6c0-1.8,0.5-3.6,0.7-5.4c0.1-1.5,0.8-2.4,2-3.2c3.6-2.3,7.1-4.7,10.6-7.1
			c1.1-0.8,2.3-1,3.5-0.3c0,0.2,0,0.4-0.1,0.5c-2.8,4-2.1,7.8,0.3,11.6c3.2,5.1,8.1,8,13.6,10c-1,0.9-1.8,1.9-1.2,3.4
			C38.9,74.6,39.2,75.5,39.5,76.4z"/>
		<path class="st3" d="M55.7,65.7c-1.1-1.8-0.7-3.8-0.4-5.7c0.3-1.5,0.1-3.1,1.6-4.1c2.8-1.8,5.6-3.7,8.4-5.5c0.1,2,0,3.9,0.3,5.9
			c1.3,8.9,9.4,16.2,18.3,16.3c0.5,2.8,1.1,5.6,1.6,8.4c0.1,1.2,0.1,2.4,0.9,3.4c0.5,0.6,0.2,1.4,0.2,2.2c-1,0.2-2,0.2-3,0
			c-0.1-1-0.2-1.9-0.3-2.8c-1.2-2.8-2.4-5.5-3.7-8.3c-0.3,1.9-0.3,3.7-0.1,5.5c0.2,1.8,0.4,3.6,0.6,5.4c-0.1,0.1-0.3,0.2-0.4,0.4
			c-0.8,0-1.6-0.1-2.7-0.1c0.4-4.2-1.5-8-2.3-12c-0.3-1.6-1.1-2.1-2.6-2c-1.1,0.1-2.3,0-3.4,0c-1.3,0.1-1.8,0.7-1.4,2
			c0.9,2.8,1.7,5.6,2.5,8.4c0.3,1.1,2,1.8,0.9,3.5C70,86.8,69,86.6,68,86.6c-0.1-1,0.3-2.2-0.7-3c-1.5-2.6-2.9-5.2-4.3-7.6
			c-3.4,1.8-3,4.5-2,7.3c0,0.1,0.1,0.2,0.1,0.4c1,0.7,1.7,1.6,1.4,3c-1,0-2,0-3,0c0-1.1-0.2-2.1-0.7-3c-2.2-4.8-0.9-10-1.9-14.9
			C56.9,67.5,56.2,66.6,55.7,65.7z"/>
		<path class="st4" d="M83.9,72.5c-9-0.1-17.1-7.4-18.3-16.3c-0.3-2-0.3-3.9-0.3-5.9c0.4-0.4,0.8-0.7,1.2-1.1
			c0.4-0.2,0.9-0.5,1.3-0.7c2.5-1.6,3.4-1.4,4.9,1.3c1,1.6,1.6,3.4,2.9,4.8c1.3,1.5,3,2.1,4.8,2.5c2.4,0.5,4.6,0,6.5-1.4
			c1.7-1.1,0.7-2.9,0.8-4.4c0.1-2.5,0.2-2.6,2.7-2.8c2.2,0.3,4.3,1.1,6.2,2.3c0.3,0.2,0.5,0.4,0.8,0.5c0.9,0.5,1.7,1.2,1.4,2.3
			c-0.3,1.2-1.2,1.4-2.3,1.5c-0.7,0-1.4-0.2-2.2,0.3c0,0.8,0,1.7,0,2.7c-1.2,5.4-4.1,9.6-8.9,12.4C84.5,70.9,84.1,71.6,83.9,72.5z
			 M86.9,58.1c-2.8,1.7-5.8,1.7-9.1,0.9c0.6,1.1,1,1.8,1.4,2.5c0.9,1.6,2.1,1.9,3.7,1.1C84.7,61.6,86.3,60.4,86.9,58.1z"/>
		<path class="st4" d="M1.6,43.8c2.5-2.5,5-5,7.6-7.5c2.1-2.1,4.1-2.1,6.3-0.1c1.8,1.8,3.6,3.5,5.4,5.3c0.3,0.4,0.6,0.7,0.9,1.1
			c0,0.8-0.7,1.2-1.1,1.7c-6,5.9-12,11.9-18,17.8C1,56.2,0.7,50,1.6,43.8z"/>
		<path class="st5" d="M2.7,62.2c6-5.9,12-11.9,18-17.8c0.5-0.5,1.1-0.9,1.1-1.7c0.8,0,1.2-0.7,1.7-1.1c4.6-4.6,9.2-9.1,13.7-13.7
			c1.3-1.3,2.9-2,4.8-1.8c0,0.5-0.3,1-0.6,1.4c-4.9,6.9-9.8,13.8-14.8,20.7c-0.1,0-0.2,0-0.3,0c-1.2-0.8-2.4-0.5-3.5,0.3
			c-3.5,2.4-7,4.7-10.6,7.1c-1.2,0.8-1.9,1.7-2,3.2c-0.1,1.8-0.7,3.6-0.7,5.4c-2.1,0-4.2,0.1-6.4,0.1C3,63.5,2.6,62.9,2.7,62.2z"/>
		<path class="st2" d="M83.9,72.5c0.2-0.9,0.6-1.6,1.5-2.1c4.8-2.8,7.7-7,8.9-12.4c0.6,0,1.2,0,1.8,0c-1.4,8.6-4.8,16.4-10.6,23
			C85,78.2,84.5,75.3,83.9,72.5z"/>
		<path class="st2" d="M11.5,68.7c0.4,0.6,0.3,1.3,0.3,2c-1.2,0.1-2.9-0.4-2.9,1.5c0,2,1.7,1.5,3,1.6c0.1,0,0.1,0,0.2,0
			c0.3,2.6-0.2,5.2,0.6,7.7c-3.4-3.7-6.1-7.9-7.7-12.6C7.1,68.7,9.3,68.7,11.5,68.7z"/>
		<path class="st1" d="M11.5,68.7c-2.2,0-4.4,0-6.5,0.1c-0.9-1.4-1.2-3-1.7-4.5c2.1,0,4.2-0.1,6.4-0.1
			C10.4,65.5,11.5,66.9,11.5,68.7z"/>
		<path class="st2" d="M80.3,86.4c-0.2-1.8-0.5-3.6-0.6-5.4c-0.2-1.8-0.2-3.6,0.1-5.5c1.2,2.8,2.4,5.5,3.7,8.3
			C82.4,84.6,81.3,85.5,80.3,86.4z"/>
		<path class="st1" d="M96.1,58c-0.6,0-1.2,0-1.8,0c0-0.9,0-1.9,0-2.7c0.8-0.6,1.5-0.3,2.2-0.3C96.4,56,96.2,57,96.1,58z"/>
		<path class="st2" d="M42,26c-1.9-0.2-3.5,0.5-4.8,1.8C32.6,32.4,28,37,23.5,41.6c-0.5,0.5-0.8,1.2-1.7,1.1
			c-0.3-0.4-0.6-0.7-0.9-1.1c1.1-12,7.2-20.7,17.4-26.8c6.3-3.7,13.2-5.1,20.5-4.5c7.2,0.6,13.7,3.3,19.4,8
			c6.9,5.7,10.8,13,12.2,21.7c0.4,2.7,0.1,5.6,0.1,8.4c-2.5,0.2-2.6,0.3-2.7,2.8c-0.1,1.5,0.8,3.3-0.8,4.4c-1.9,1.3-4.2,1.8-6.5,1.4
			c-1.8-0.4-3.5-1-4.8-2.5c4.3-5.4,6.1-11.4,4.9-18.3c-0.6-3.4-1.7-6.6-4.1-9.2c-0.1-0.2-0.1-0.5-0.2-0.7
			c-7.9-9.8-21.4-10.6-30.3-3.7c-1.2,0.9-3.1,1.5-3.1,3.6C42.5,26.2,42.2,26.1,42,26z"/>
		<path class="st1" d="M42,26c0.3,0.1,0.5,0.2,0.8,0.3c0.8,0.2,1.4,0.6,1.9,1.1c1.5,1.4,3,2.8,4.5,4.3c0.5,0.6,1,1.1,1.5,1.7
			c5.2,5.3,10.5,10.6,15.8,15.9c-0.4,0.4-0.8,0.7-1.2,1.1c-2.8,1.8-5.6,3.7-8.4,5.5c-1.5,1-1.3,2.6-1.6,4.1
			c-2.4,0.6-4.8,1.2-7.2,1.9c0.6-2.2,1.2-4.4,1.3-6.8c0.8,0,1.5,0,2.2,0c1,0,1.7-0.4,2-1.4c0.4-1-0.2-1.7-1-2.2
			c-2-1.3-4.2-2.4-6.6-2.8c-2.7-0.5-3.5,0.1-3.5,2.9c0,0.8-0.1,1.7,0,2.5c0.1,1-0.4,1.6-1.3,2.1c-2.8,1.5-5.7,1.6-8.6,0.2
			c-3.5-1.6-4.2-5.2-5.9-8.1c4.9-6.9,9.8-13.8,14.8-20.7C41.7,27,42,26.6,42,26z"/>
		<path class="st4" d="M26.7,48.1c1.7,2.9,2.4,6.5,5.9,8.1c2.9,1.3,5.7,1.3,8.6-0.2c0.9-0.5,1.4-1,1.3-2.1c-0.1-0.8,0-1.6,0-2.5
			c0-2.7,0.8-3.4,3.5-2.9c2.4,0.4,4.5,1.5,6.6,2.8c0.8,0.5,1.4,1.1,1,2.2c-0.3,1-1,1.4-2,1.4c-0.7,0-1.4,0-2.2,0
			c-0.1,2.5-0.7,4.6-1.3,6.8c-1.9,3.5-4.1,6.8-7.9,8.5c-5.5-2-10.4-4.9-13.6-10c-2.4-3.8-3.1-7.7-0.3-11.6c0.1-0.1,0.1-0.4,0.1-0.5
			C26.4,48.1,26.5,48.1,26.7,48.1z M32.6,59c1,1.9,1.4,3.7,3.4,3.9c2,0.3,5.1-2.4,5.6-4.9C38.8,59.8,36,59.8,32.6,59z"/>
		<path class="st1" d="M55.7,65.7c0.5,0.9,1.3,1.8,1.1,3c-1.7,0-3.4,0-5.1,0c-1,0-1.9-0.3-1.9-1.4c0-1.1,0.9-1.6,1.9-1.7
			C53,65.7,54.3,65.7,55.7,65.7z"/>
		<path class="st1" d="M31.9,83.6c0,1-0.1,2-0.1,3c-2,0-3.9,0-5.9,0c0.2-1.2,0-2.2-1-3C27.2,83.6,29.6,83.6,31.9,83.6z"/>
		<path class="st1" d="M67.3,83.6c1,0.8,0.5,2,0.7,3c-1.8,0-3.6,0-5.5,0c0.3-1.4-0.4-2.2-1.4-3C63.2,83.6,65.3,83.6,67.3,83.6z"/>
		<path class="st1" d="M50.7,79.4c0.4,0,0.8,0,1.1,0c0.9,0.1,1.6,0.4,1.5,1.5c-0.1,1-0.7,1.5-1.6,1.5c-0.8,0-1.5,0-2.3,0
			c-1,0-1.8-0.5-1.8-1.5c0-1.1,0.8-1.5,1.8-1.5C50,79.4,50.4,79.4,50.7,79.4C50.7,79.4,50.7,79.4,50.7,79.4z"/>
		<path class="st1" d="M58.5,93.9c-0.5,0-1,0-1.5,0c-0.9,0-1.3-0.5-1.3-1.3c0-0.8,0.4-1.3,1.2-1.3c0.8,0,1.7,0,2.5,0
			c1,0,1.9,0.3,1.9,1.4c0,1.1-0.9,1.4-1.9,1.3C59.2,93.9,58.8,93.9,58.5,93.9C58.5,93.9,58.5,93.9,58.5,93.9z"/>
		<path class="st1" d="M39.5,76.4c-0.3-0.9-0.6-1.8-0.5-2.7c1.1,0,2.3,0,3.4,0c0.8,0,1.5,0.5,1.5,1.4c0,0.9-0.6,1.3-1.5,1.3
			C41.3,76.3,40.4,76.4,39.5,76.4z"/>
		<path class="st1" d="M58.7,83.6c0.5,0.9,0.7,1.9,0.7,3c-0.7,0-1.4,0-2.1,0c-0.9,0-1.7-0.1-1.7-1.2c0-1.2,0.6-1.7,1.7-1.8
			C57.9,83.6,58.3,83.6,58.7,83.6z"/>
		<path class="st1" d="M22.1,83.6c1,0.8,0.7,2,0.8,3c-0.9,0-2,0.3-2.2-1C20.5,84.5,21,83.8,22.1,83.6z"/>
		<path class="st2" d="M31.9,83.6c-2.3,0-4.7,0-7,0.1c-0.9-2.9-1.8-5.7-2.6-8.6c-0.6-2-0.2-2.5,2-2.5c5.6,0.1,4.6-0.8,6,4.5
			C30.8,79.3,31.3,81.4,31.9,83.6z"/>
		<path class="st1" d="M12,73.7c-0.1,0-0.1,0-0.2,0c-1.2-0.1-3,0.4-3-1.6c0-1.8,1.7-1.4,2.9-1.5C11.8,71.6,12.3,72.6,12,73.7z"/>
		<path class="st2" d="M67.3,83.6c-2.1,0-4.1,0-6.2,0.1c0-0.1-0.1-0.2-0.1-0.4c-1-2.8-1.3-5.6,2-7.3C64.4,78.4,65.9,81,67.3,83.6z"
			/>
		<path class="st6" d="M66.5,49.2C61.2,44,55.9,38.7,50.7,33.4c-0.5-0.5-1-1.1-1.5-1.7c0.3-0.3,0.7-0.5,1-0.8
			c6.7-6.3,14.4-8,23.1-4.9c1,0.4,1.8,1.2,3,1.1c2.4,2.6,3.5,5.8,4.1,9.2c1.2,6.8-0.6,12.9-4.9,18.3c-1.3-1.4-1.9-3.2-2.9-4.8
			c-1.6-2.6-2.4-2.9-4.9-1.3C67.3,48.8,66.9,49,66.5,49.2z"/>
		<path class="st2" d="M86.9,58.1c-0.6,2.3-2.2,3.5-4,4.4c-1.6,0.8-2.8,0.5-3.7-1.1c-0.4-0.7-0.8-1.4-1.4-2.5
			C81.1,59.8,84.1,59.8,86.9,58.1z"/>
		<path class="st7" d="M76.3,27.1c-1.2,0.1-2-0.7-3-1.1c-8.7-3.1-16.4-1.5-23.1,4.9c-0.3,0.3-0.7,0.5-1,0.8c-1.5-1.4-3-2.9-4.5-4.3
			c-0.5-0.5-1.2-1-1.9-1.1c0-2,1.9-2.6,3.1-3.6c8.9-6.9,22.4-6.1,30.3,3.7C76.3,26.6,76.3,26.9,76.3,27.1z"/>
		<path class="st1" d="M32.6,59c3.4,0.8,6.2,0.8,8.9-1c-0.5,2.5-3.6,5.2-5.6,4.9C34,62.7,33.6,60.9,32.6,59z"/>
	</g>
</g>
</svg>
