<?xml version="1.0" encoding="utf-8"?>
<!-- Generator: Adobe Illustrator 24.3.0, SVG Export Plug-In . SVG Version: 6.00 Build 0)  -->
<svg version="1.1" id="Слой_1" xmlns="http://www.w3.org/2000/svg" xmlns:xlink="http://www.w3.org/1999/xlink" x="0px" y="0px"
	 viewBox="0 0 700 300" style="enable-background:new 0 0 700 300;" xml:space="preserve">
<style type="text/css">
	.st0{enable-background:new    ;}
	.st1{clip-path:url(#SVGID_2_);enable-background:new    ;}
	.st2{fill:#939393;}
	.st3{fill:#8E8E8E;}
	.st4{fill:#898989;}
	.st5{fill:#848484;}
	.st6{clip-path:url(#SVGID_4_);enable-background:new    ;}
	.st7{fill:#989898;}
	.st8{clip-path:url(#SVGID_6_);enable-background:new    ;}
	.st9{clip-path:url(#SVGID_8_);enable-background:new    ;}
	.st10{clip-path:url(#SVGID_10_);enable-background:new    ;}
	.st11{clip-path:url(#SVGID_12_);enable-background:new    ;}
	.st12{fill:#93721F;}
	.st13{clip-path:url(#SVGID_14_);enable-background:new    ;}
	.st14{fill:#8A6B1D;}
	.st15{fill:#85671C;}
	.st16{clip-path:url(#SVGID_16_);enable-background:new    ;}
	.st17{fill:#7C601A;}
	.st18{fill:#81641B;}
	.st19{clip-path:url(#SVGID_18_);enable-background:new    ;}
	.st20{clip-path:url(#SVGID_20_);enable-background:new    ;}
	.st21{clip-path:url(#SVGID_22_);enable-background:new    ;}
	.st22{clip-path:url(#SVGID_24_);enable-background:new    ;}
	.st23{clip-path:url(#SVGID_26_);enable-background:new    ;}
	.st24{clip-path:url(#SVGID_28_);enable-background:new    ;}
	.st25{clip-path:url(#SVGID_30_);enable-background:new    ;}
	.st26{clip-path:url(#SVGID_32_);enable-background:new    ;}
	.st27{fill:#7E2514;}
	.st28{fill:#832715;}
	.st29{clip-path:url(#SVGID_34_);enable-background:new    ;}
	.st30{clip-path:url(#SVGID_36_);enable-background:new    ;}
	.st31{clip-path:url(#SVGID_38_);enable-background:new    ;}
	.st32{fill:#8C2A16;}
	.st33{fill:#912B17;}
	.st34{fill:#882815;}
	.st35{clip-path:url(#SVGID_40_);enable-background:new    ;}
	.st36{fill:#8E6E1E;}
	.st37{clip-path:url(#SVGID_42_);enable-background:new    ;}
	.st38{clip-path:url(#SVGID_44_);enable-background:new    ;}
	.st39{clip-path:url(#SVGID_46_);enable-background:new    ;}
	.st40{clip-path:url(#SVGID_48_);enable-background:new    ;}
	.st41{clip-path:url(#SVGID_50_);enable-background:new    ;}
	.st42{fill:#84661C;}
	.st43{fill:#F2BA33;}
	.st44{clip-path:url(#SVGID_52_);enable-background:new    ;}
	.st45{fill:#8C610D;}
	.st46{fill:#875E0C;}
	.st47{clip-path:url(#SVGID_54_);enable-background:new    ;}
	.st48{clip-path:url(#SVGID_56_);enable-background:new    ;}
	.st49{clip-path:url(#SVGID_58_);enable-background:new    ;}
	.st50{clip-path:url(#SVGID_60_);enable-background:new    ;}
	.st51{clip-path:url(#SVGID_62_);enable-background:new    ;}
	.st52{clip-path:url(#SVGID_64_);enable-background:new    ;}
	.st53{fill:#DBA92F;}
	.st54{clip-path:url(#SVGID_66_);enable-background:new    ;}
	.st55{clip-path:url(#SVGID_68_);enable-background:new    ;}
	.st56{clip-path:url(#SVGID_70_);enable-background:new    ;}
	.st57{clip-path:url(#SVGID_72_);enable-background:new    ;}
	.st58{clip-path:url(#SVGID_74_);enable-background:new    ;}
	.st59{clip-path:url(#SVGID_76_);enable-background:new    ;}
	.st60{clip-path:url(#SVGID_78_);enable-background:new    ;}
	.st61{clip-path:url(#SVGID_80_);enable-background:new    ;}
	.st62{clip-path:url(#SVGID_82_);enable-background:new    ;}
	.st63{clip-path:url(#SVGID_84_);enable-background:new    ;}
	.st64{fill:#91650D;}
	.st65{clip-path:url(#SVGID_86_);enable-background:new    ;}
	.st66{clip-path:url(#SVGID_88_);enable-background:new    ;}
	.st67{clip-path:url(#SVGID_90_);enable-background:new    ;}
	.st68{clip-path:url(#SVGID_92_);enable-background:new    ;}
	.st69{fill:#7A550B;}
	.st70{fill:#7E580C;}
	.st71{fill:#835B0C;}
	.st72{clip-path:url(#SVGID_94_);enable-background:new    ;}
	.st73{fill:#714F0A;}
	.st74{clip-path:url(#SVGID_96_);enable-background:new    ;}
	.st75{clip-path:url(#SVGID_98_);enable-background:new    ;}
	.st76{clip-path:url(#SVGID_100_);enable-background:new    ;}
	.st77{clip-path:url(#SVGID_102_);enable-background:new    ;}
	.st78{clip-path:url(#SVGID_104_);enable-background:new    ;}
	.st79{fill:#E5A015;}
	.st80{clip-path:url(#SVGID_106_);enable-background:new    ;}
	.st81{fill:#7D570B;}
	.st82{clip-path:url(#SVGID_108_);enable-background:new    ;}
	.st83{clip-path:url(#SVGID_110_);enable-background:new    ;}
	.st84{clip-path:url(#SVGID_112_);enable-background:new    ;}
	.st85{clip-path:url(#SVGID_114_);enable-background:new    ;}
	.st86{fill:#987620;}
	.st87{clip-path:url(#SVGID_116_);enable-background:new    ;}
	.st88{fill:#785D19;}
	.st89{clip-path:url(#SVGID_118_);enable-background:new    ;}
	.st90{clip-path:url(#SVGID_120_);enable-background:new    ;}
	.st91{fill:#896A1D;}
	.st92{clip-path:url(#SVGID_122_);enable-background:new    ;}
	.st93{fill:#F2F2F1;}
	.st94{fill:#E64424;}
	.st95{fill:#CF9113;}
	.st96{clip-path:url(#SVGID_124_);enable-background:new    ;}
	.st97{clip-path:url(#SVGID_126_);enable-background:new    ;}
</style>
<g>
	<g>
		<path d="M265.9,117.4c0-7.6,4.5-12.3,10.5-12.3c2.9,0,5.1,1.4,6.5,2.9l-1.6,2c-1.2-1.3-2.8-2.2-4.8-2.2c-4.5,0-7.4,3.7-7.4,9.5
			c0,5.9,2.8,9.7,7.3,9.7c2.3,0,4-1,5.5-2.7l1.6,1.9c-1.9,2.2-4.2,3.4-7.2,3.4C270.3,129.6,265.9,125.1,265.9,117.4z"/>
		<path d="M287.5,111.7h14v17.5h-3v-15.1h-8.1v15.1h-3V111.7z"/>
		<path d="M307.5,111.7h2.4l0.2,2h0.1c1.6-1.3,3.6-2.5,5.6-2.5c4.5,0,6.9,3.5,6.9,8.9c0,6-3.6,9.4-7.6,9.4c-1.6,0-3.2-0.7-4.9-2
			l0.1,3.1v5.9h-3V111.7z M319.7,120.2c0-3.9-1.3-6.5-4.6-6.5c-1.5,0-3,0.8-4.7,2.4v9.2c1.6,1.3,3.1,1.8,4.3,1.8
			C317.6,127.1,319.7,124.5,319.7,120.2z"/>
		<path d="M326.4,124.7c0-3.8,3.3-5.7,10.7-6.5c0-2.3-0.8-4.4-3.6-4.4c-2,0-3.8,1-5.2,1.9l-1.2-2c1.6-1.1,4.1-2.3,6.9-2.3
			c4.3,0,6.1,2.8,6.1,7.2v10.7h-2.4l-0.2-2.1h-0.1c-1.7,1.4-3.6,2.5-5.8,2.5C328.6,129.6,326.4,127.8,326.4,124.7z M337.1,124.9
			v-4.9c-5.9,0.7-7.8,2.1-7.8,4.4c0,2,1.3,2.8,3.1,2.8C334,127.2,335.4,126.4,337.1,124.9z"/>
		<path d="M345.6,111.7h2.9v15.1h6.2v-15.1h2.9v15.1h6.2v-15.1h2.9v17.5h-21.1V111.7z"/>
		<path d="M372.5,111.7h2.9v7.3c0,1.9-0.2,4.2-0.3,6.5h0.1c0.7-1.1,1.7-2.7,2.3-3.7l6.6-10h2.7v17.5h-2.9v-7.3
			c0-1.9,0.2-4.2,0.3-6.5h-0.1c-0.7,1.1-1.7,2.7-2.3,3.7l-6.6,10h-2.7V111.7z"/>
		<path d="M392.9,111.7h6.7c3.8,0,6.4,1.3,6.4,4.4c0,1.9-1.1,3.2-2.9,3.7v0.1c2,0.5,3.6,1.7,3.6,4.2c0,3.5-2.9,5-6.9,5h-7V111.7z
			 M399.1,119c2.9,0,4.1-1,4.1-2.6c0-1.6-1.1-2.6-3.9-2.6h-3.5v5.2H399.1z M399.6,127.1c2.9,0,4.3-1.1,4.3-3.1
			c0-1.8-1.5-2.9-4.5-2.9h-3.6v5.9H399.6z"/>
		<path d="M410.1,124.7c0-3.8,3.3-5.7,10.7-6.5c0-2.3-0.8-4.4-3.6-4.4c-2,0-3.8,1-5.2,1.9l-1.2-2c1.6-1.1,4.1-2.3,6.9-2.3
			c4.3,0,6.1,2.8,6.1,7.2v10.7h-2.4l-0.2-2.1H421c-1.7,1.4-3.6,2.5-5.8,2.5C412.3,129.6,410.1,127.8,410.1,124.7z M420.8,124.9v-4.9
			c-5.9,0.7-7.8,2.1-7.8,4.4c0,2,1.3,2.8,3.1,2.8C417.7,127.2,419.1,126.4,420.8,124.9z"/>
		<path d="M429.3,111.7h2.9v7.3c0,1.9-0.2,4.2-0.3,6.5h0.1c0.7-1.1,1.7-2.7,2.3-3.7l6.6-10h2.7v17.5h-2.9v-7.3
			c0-1.9,0.2-4.2,0.3-6.5H441c-0.7,1.1-1.7,2.7-2.3,3.7l-6.6,10h-2.7V111.7z M431,103.1h2.4c0.1,2,0.8,3.8,3.2,3.8
			c2.4,0,3.1-1.7,3.2-3.8h2.4c-0.1,2.8-1.6,5.5-5.6,5.5S431.1,105.9,431,103.1z"/>
		<path d="M453.5,114.1h-5.9v-2.4h14.7v2.4h-5.9v15.1h-3V114.1z"/>
		<path d="M464.9,120.5c0-5.7,3.8-9.2,7.9-9.2c4.5,0,7,3.2,7,8.2c0,0.6-0.1,1.2-0.1,1.7h-11.8c0.2,3.7,2.5,6.1,5.8,6.1
			c1.7,0,3.1-0.5,4.4-1.4l1.1,1.9c-1.5,1-3.4,1.8-5.8,1.8C468.6,129.6,464.9,126.2,464.9,120.5z M477.1,119c0-3.5-1.6-5.4-4.3-5.4
			c-2.5,0-4.7,2-5,5.4H477.1z"/>
		<path d="M490,120.5c0-5.8,3.9-9.2,8.4-9.2c2.3,0,3.9,0.9,5.1,2.1l-1.5,2c-1-0.9-2.1-1.5-3.5-1.5c-3.2,0-5.5,2.7-5.5,6.7
			c0,4,2.2,6.7,5.4,6.7c1.6,0,3-0.8,4.1-1.7l1.3,2c-1.6,1.4-3.6,2.2-5.7,2.2C493.5,129.6,490,126.3,490,120.5z"/>
		<path d="M507.7,111.7h2.4l0.2,2h0.1c1.6-1.3,3.5-2.5,5.6-2.5c4.5,0,6.9,3.5,6.9,8.9c0,6-3.6,9.4-7.6,9.4c-1.6,0-3.2-0.7-4.8-2
			l0.1,3.1v5.9h-3V111.7z M519.9,120.2c0-3.9-1.3-6.5-4.6-6.5c-1.5,0-3,0.8-4.7,2.4v9.2c1.6,1.3,3.1,1.8,4.3,1.8
			C517.8,127.1,519.9,124.5,519.9,120.2z"/>
		<path d="M526.6,124.7c0-3.8,3.3-5.7,10.7-6.5c0-2.3-0.8-4.4-3.6-4.4c-2,0-3.8,1-5.2,1.9l-1.2-2c1.6-1.1,4.1-2.3,6.9-2.3
			c4.3,0,6.1,2.8,6.1,7.2v10.7h-2.4l-0.2-2.1h-0.1c-1.7,1.4-3.6,2.5-5.8,2.5C528.8,129.6,526.6,127.8,526.6,124.7z M537.3,124.9
			v-4.9c-5.9,0.7-7.8,2.1-7.8,4.4c0,2,1.3,2.8,3.1,2.8C534.2,127.2,535.6,126.4,537.3,124.9z"/>
		<path d="M544.2,127.4l1.3-1.9c1.6,1.3,3.3,1.8,5.1,1.8c2.4,0,4.3-1.2,4.3-3.2c0-2-1.6-3-4.5-3H548V119h2c2.8,0,4.2-1,4.2-2.8
			c0-1.8-1.5-2.7-3.6-2.7c-2,0-3.3,0.5-4.8,1.5l-1.2-2c1.7-1.2,3.6-1.9,6.1-1.9c3.4,0,6.4,1.5,6.4,4.7c0,1.7-1.1,3.2-2.9,3.9v0.1
			c2,0.5,3.6,1.8,3.6,4.4c0,3.2-3.3,5.3-7.1,5.3C548.4,129.6,546.2,129.1,544.2,127.4z"/>
		<path d="M560.5,136.4l0.6-2.4c0.3,0.1,0.9,0.3,1.3,0.3c2,0,3.2-1.6,3.9-3.8l0.4-1.3l-7-17.5h3.1l3.6,9.7c0.5,1.5,1.1,3.3,1.7,4.9
			h0.1c0.5-1.6,1-3.4,1.5-4.9l3.1-9.7h2.9l-6.6,18.9c-1.2,3.5-3,6.1-6.5,6.1C561.7,136.7,561,136.6,560.5,136.4z"/>
		<path d="M577.8,133.6c2-0.9,3.3-2.5,3.2-4.5l-0.3-2.7l1.4,2.2c-0.4,0.5-0.9,0.6-1.5,0.6c-1.1,0-2.1-0.7-2.1-2.1
			c0-1.3,1-2.1,2.2-2.1c1.6,0,2.5,1.3,2.5,3.5c0,3.1-1.8,5.5-4.7,6.7L577.8,133.6z"/>
		<path d="M267,154.9h3v7.1h8.4v-7.1h3v17.5h-3v-7.8H270v7.8h-3V154.9z"/>
		<path d="M285.9,163.7c0-5.7,3.8-9.2,7.9-9.2c4.5,0,7,3.2,7,8.2c0,0.6-0.1,1.2-0.1,1.7h-11.8c0.2,3.7,2.5,6.1,5.8,6.1
			c1.7,0,3.1-0.5,4.4-1.4l1.1,1.9c-1.5,1-3.4,1.8-5.8,1.8C289.6,172.8,285.9,169.4,285.9,163.7z M298.2,162.2c0-3.5-1.6-5.4-4.3-5.4
			c-2.5,0-4.7,2-5,5.4H298.2z"/>
		<path d="M311,163.7c0-5.8,3.9-9.2,8.4-9.2c2.3,0,3.9,0.9,5.1,2.1l-1.5,2c-1-0.9-2.1-1.5-3.5-1.5c-3.2,0-5.5,2.7-5.5,6.7
			s2.2,6.7,5.4,6.7c1.6,0,3-0.8,4.1-1.7l1.3,2c-1.6,1.4-3.6,2.2-5.7,2.2C314.5,172.8,311,169.5,311,163.7z"/>
		<path d="M332.5,157.3h-5.9v-2.4h14.7v2.4h-5.9v15.1h-3V157.3z"/>
		<path d="M344,163.7c0-5.7,3.8-9.2,7.9-9.2c4.5,0,7,3.2,7,8.2c0,0.6-0.1,1.2-0.1,1.7h-11.8c0.2,3.7,2.5,6.1,5.8,6.1
			c1.7,0,3.1-0.5,4.4-1.4l1.1,1.9c-1.5,1-3.4,1.8-5.8,1.8C347.7,172.8,344,169.4,344,163.7z M356.2,162.2c0-3.5-1.6-5.4-4.3-5.4
			c-2.5,0-4.7,2-5,5.4H356.2z"/>
		<path d="M361.8,163.7c0-5.8,3.9-9.2,8.4-9.2c2.3,0,3.9,0.9,5.1,2.1l-1.5,2c-1-0.9-2.1-1.5-3.5-1.5c-3.2,0-5.5,2.7-5.5,6.7
			s2.2,6.7,5.4,6.7c1.6,0,3-0.8,4.1-1.7l1.3,2c-1.6,1.4-3.6,2.2-5.7,2.2C365.4,172.8,361.8,169.5,361.8,163.7z"/>
		<path d="M379.5,154.9h3v7.1h8.4v-7.1h3v17.5h-3v-7.8h-8.4v7.8h-3V154.9z"/>
		<path d="M404.1,164l2.5,0.9l-5.3,7.6H398L404.1,164z M409.4,165.5h-3.2c-3.4,0-6.9-1.5-6.9-5.4s3-5.2,6.9-5.2h6.2v17.5h-3V165.5z
			 M409.4,163.3v-6.1h-2.7c-2.7,0-4.4,0.9-4.4,3c0,2.1,1.7,3.2,4.4,3.2H409.4z"/>
		<path d="M418.3,154.9h2.9v7.3c0,1.9-0.2,4.2-0.3,6.5h0.1c0.7-1.1,1.7-2.7,2.3-3.7l6.6-10h2.7v17.5h-2.9v-7.3
			c0-1.9,0.2-4.2,0.3-6.5H430c-0.7,1.1-1.7,2.7-2.3,3.7l-6.6,10h-2.7V154.9z M419.9,146.3h2.4c0.1,2,0.8,3.8,3.2,3.8
			c2.4,0,3.1-1.7,3.2-3.8h2.4c-0.1,2.8-1.6,5.5-5.6,5.5S420.1,149.1,419.9,146.3z"/>
		<path d="M442.4,157.3h-5.9v-2.4h14.7v2.4h-5.9v15.1h-3V157.3z"/>
		<path d="M453.9,163.7c0-5.7,3.8-9.2,7.9-9.2c4.5,0,7,3.2,7,8.2c0,0.6-0.1,1.2-0.1,1.7h-11.8c0.2,3.7,2.5,6.1,5.8,6.1
			c1.7,0,3.1-0.5,4.4-1.4l1.1,1.9c-1.5,1-3.4,1.8-5.8,1.8C457.6,172.8,453.9,169.4,453.9,163.7z M466.1,162.2c0-3.5-1.6-5.4-4.3-5.4
			c-2.5,0-4.7,2-5,5.4H466.1z"/>
		<path d="M471.7,163.7c0-5.8,3.9-9.2,8.4-9.2c2.3,0,3.9,0.9,5.1,2.1l-1.5,2c-1-0.9-2.1-1.5-3.5-1.5c-3.2,0-5.5,2.7-5.5,6.7
			s2.2,6.7,5.4,6.7c1.6,0,3-0.8,4.1-1.7l1.3,2c-1.6,1.4-3.6,2.2-5.7,2.2C475.3,172.8,471.7,169.5,471.7,163.7z"/>
		<path d="M489.4,154.9h3v6.4h3.3c4.2,0,7,1.6,7,5.5c0,3.9-2.8,5.6-7,5.6h-6.2V154.9z M495.4,170c2.9,0,4.4-1,4.4-3.2
			c0-2.2-1.4-3.2-4.4-3.2h-3v6.4H495.4z"/>
		<path d="M507.2,170.6c0-1.4,1-2.3,2.1-2.3s2.1,0.9,2.1,2.3c0,1.3-1,2.2-2.1,2.2S507.2,171.9,507.2,170.6z M507.9,151.6l-0.1-3.4h3
			l-0.1,3.4l-0.4,13.6h-2L507.9,151.6z"/>
	</g>
</g>
<g>
	<g>
		<g class="st0">
			<g class="st0">
				<defs>
					<path id="SVGID_1_" class="st0" d="M204,188.2l-12.2-0.9c1.3-1.9,1.4-4.1,1.1-6.4l12.2,0.9C205.3,184.2,205.3,186.3,204,188.2z
						"/>
				</defs>
				<clipPath id="SVGID_2_">
					<use xlink:href="#SVGID_1_"  style="overflow:visible;"/>
				</clipPath>
				<g class="st1">
					<path class="st2" d="M204,188.2l-12.2-0.9c0.4-0.6,0.7-1.1,0.8-1.7l12.2,0.9C204.6,187.1,204.4,187.7,204,188.2"/>
					<path class="st3" d="M204.8,186.5l-12.2-0.9c0.2-0.5,0.3-1.1,0.3-1.6l12.2,0.9C205.1,185.4,205,186,204.8,186.5"/>
					<path class="st4" d="M205.2,184.9l-12.2-0.9c0.1-0.9,0-1.9-0.1-2.8l12.2,0.9C205.2,183,205.2,184,205.2,184.9"/>
					<path class="st5" d="M205.1,182.1l-12.2-0.9c0-0.1,0-0.1,0-0.2l12.2,0.9C205.1,181.9,205.1,182,205.1,182.1"/>
				</g>
			</g>
			<g class="st0">
				<defs>
					<path id="SVGID_3_" class="st0" d="M191.7,187.3c4.1,0.3,8.2,0.6,12.2,0.9c-1,2.1-2.5,2.6-4.2,2.9c-0.1,0-0.2,0-0.2,0.1
						c-2.3-0.2-4.6-0.3-6.9-0.5c-0.8-0.1-1.6-0.1-2.4-0.2c-0.5,0-1.1-0.1-1.5-0.1c-0.2,0-0.5,0-0.7-0.1c-0.2,0-0.5-0.1-0.7-0.1
						c0.1,0,0.2,0,0.2-0.1C189.2,189.9,190.8,189.4,191.7,187.3z"/>
				</defs>
				<clipPath id="SVGID_4_">
					<use xlink:href="#SVGID_3_"  style="overflow:visible;"/>
				</clipPath>
				<g class="st6">
					<path class="st2" d="M124.5,208.3l-12.2-0.9c0.1,0,0.2,0,0.3-0.1c7.3-1.7,14.7-3.4,22-5c17.7-4,35.3-8.1,53-12.1
						c1.1-0.3,2.2-0.6,3.1-1.3l12.2,0.9c-0.9,0.8-1.9,1.1-3.1,1.3c-17.7,4-35.3,8.1-53,12.1c-7.3,1.7-14.7,3.3-22,5
						C124.7,208.3,124.6,208.3,124.5,208.3"/>
					<path class="st7" d="M202.8,189.8l-12.2-0.9c0.1-0.1,0.3-0.2,0.4-0.4l12.2,0.9C203.1,189.6,203,189.7,202.8,189.8"/>
					<path class="st2" d="M203.2,189.4l-12.2-0.9c0.3-0.3,0.5-0.7,0.8-1.2l12.2,0.9C203.8,188.7,203.5,189.1,203.2,189.4"/>
				</g>
			</g>
			<g class="st0">
				<defs>
					<path id="SVGID_5_" class="st0" d="M183.8,119.6c4.1,0.3,8.2,0.6,12.2,0.9c1,0.6,1.7,1.6,2,3l-12.2-0.9
						C185.5,121.2,184.8,120.2,183.8,119.6z"/>
				</defs>
				<clipPath id="SVGID_6_">
					<use xlink:href="#SVGID_5_"  style="overflow:visible;"/>
				</clipPath>
				<g class="st8">
					<path class="st5" d="M198,123.5l-12.2-0.9c-0.3-1.4-0.9-2.4-2-3l12.2,0.9C197,121.1,197.7,122.1,198,123.5"/>
				</g>
			</g>
			<g class="st0">
				<defs>
					<path id="SVGID_7_" class="st0" d="M183.8,119.6c0.1-0.8,0.2-1.6,0.4-2.3c4.1,0.3,8.2,0.6,12.2,0.9c-0.1,0.8-0.3,1.6-0.4,2.3
						C192.3,120.2,187.5,119.9,183.8,119.6z"/>
				</defs>
				<clipPath id="SVGID_8_">
					<use xlink:href="#SVGID_7_"  style="overflow:visible;"/>
				</clipPath>
				<g class="st9">
					<path class="st3" d="M196,120.5l-12.2-0.9c0.1-0.8,0.2-1.6,0.4-2.3c0.2-0.8,0.3-1.7,0.4-2.5l12.2,0.9c-0.1,0.8-0.2,1.6-0.4,2.5
						C196.2,118.9,196.1,119.7,196,120.5"/>
				</g>
			</g>
			<g class="st0">
				<defs>
					<path id="SVGID_9_" class="st0" d="M184.2,117.3c0.5-2.9,0.6-5.7,0.3-8.4c4.1,0.3,8.2,0.6,12.2,0.9c0.3,2.7,0.2,5.5-0.3,8.4
						c0,0,0,0,0,0C192.3,117.9,188.2,117.6,184.2,117.3z"/>
				</defs>
				<clipPath id="SVGID_10_">
					<use xlink:href="#SVGID_9_"  style="overflow:visible;"/>
				</clipPath>
				<g class="st10">
					<path class="st3" d="M196,120.5l-12.2-0.9c0.1-0.8,0.2-1.6,0.4-2.3c0.2-0.8,0.3-1.7,0.4-2.5l12.2,0.9c-0.1,0.8-0.2,1.6-0.4,2.5
						C196.2,118.9,196.1,119.7,196,120.5"/>
					<path class="st4" d="M196.8,115.7l-12.2-0.9c0.2-1.9,0.2-3.8,0-5.7l12.2,0.9C196.9,111.8,196.9,113.8,196.8,115.7"/>
					<path class="st5" d="M196.7,110l-12.2-0.9c0-0.1,0-0.2,0-0.3c-1-8.8-6.4-16.1-13.8-17.6c-0.1,0-0.2,0-0.4-0.1l12.2,0.9
						c0.1,0,0.2,0,0.4,0.1c7.4,1.5,12.7,8.8,13.8,17.6C196.7,109.8,196.7,109.9,196.7,110"/>
				</g>
			</g>
			<g class="st0">
				<defs>
					<path id="SVGID_11_" class="st0" d="M175.1,162.7l-12.2-0.9c0.4-0.7,0.7-1.5,1.1-2.2c4.6-8,9.2-16,14-23.7
						c2.7-4.3,5-9,7.8-13.2l12.2,0.9c-2.8,4.2-5.1,8.9-7.8,13.2c-4.8,7.8-9.4,15.8-14,23.7C175.8,161.2,175.5,161.9,175.1,162.7z"/>
				</defs>
				<clipPath id="SVGID_12_">
					<use xlink:href="#SVGID_11_"  style="overflow:visible;"/>
				</clipPath>
				<g class="st11">
					<path class="st12" d="M175.1,162.7l-12.2-0.9c0.4-0.7,0.7-1.5,1.1-2.2c4.6-8,9.2-16,14-23.7c2.7-4.3,5-9,7.8-13.2l12.2,0.9
						c-2.8,4.2-5.1,8.9-7.8,13.2c-4.8,7.8-9.4,15.8-14,23.7C175.8,161.2,175.5,161.9,175.1,162.7"/>
				</g>
			</g>
			<g class="st0">
				<defs>
					<path id="SVGID_13_" class="st0" d="M189.6,131.2l-12.2-0.9c2.9-2.9,4.8-6.7,6.4-10.7l12.2,0.9
						C194.4,124.5,192.5,128.4,189.6,131.2z"/>
				</defs>
				<clipPath id="SVGID_14_">
					<use xlink:href="#SVGID_13_"  style="overflow:visible;"/>
				</clipPath>
				<g class="st13">
					<path class="st14" d="M189.6,131.2l-12.2-0.9c0.4-0.4,0.7-0.8,1.1-1.2l12.2,0.9C190.3,130.5,190,130.9,189.6,131.2"/>
					<path class="st15" d="M190.7,130.1l-12.2-0.9c2.3-2.7,3.9-6,5.4-9.6l12.2,0.9C194.6,124,193,127.4,190.7,130.1"/>
				</g>
			</g>
			<g class="st0">
				<defs>
					<path id="SVGID_15_" class="st0" d="M172.9,160.7l-12.2-0.9c0-1.6,1-2.6,1.7-3.7c4.4-6.7,8.2-13.9,12.3-20.9
						c0.9-1.6,2.6-2.6,2.7-4.9l12.2,0.9c-0.1,2.3-1.8,3.3-2.7,4.9c-4.1,7-7.8,14.3-12.3,20.9C173.9,158.1,173,159.1,172.9,160.7z"/>
				</defs>
				<clipPath id="SVGID_16_">
					<use xlink:href="#SVGID_15_"  style="overflow:visible;"/>
				</clipPath>
				<g class="st16">
					<path class="st17" d="M172.9,160.7l-12.2-0.9c0-0.1,0-0.2,0-0.3l12.2,0.9C172.9,160.5,172.9,160.6,172.9,160.7"/>
					<path class="st18" d="M172.9,160.4l-12.2-0.9c0-0.3,0.1-0.6,0.2-0.8l12.2,0.9C173,159.9,173,160.1,172.9,160.4"/>
					<path class="st15" d="M173.1,159.6l-12.2-0.9c0.3-1,1-1.8,1.5-2.6c4.4-6.7,8.2-13.9,12.3-20.9c0.7-1.3,2-2.2,2.5-3.7l12.2,0.9
						c-0.5,1.5-1.7,2.4-2.5,3.7c-4.1,7-7.8,14.3-12.3,20.9C174.1,157.8,173.4,158.6,173.1,159.6"/>
					<path class="st18" d="M189.4,132.4l-12.2-0.9c0.1-0.3,0.1-0.6,0.2-0.9l12.2,0.9C189.5,131.9,189.5,132.1,189.4,132.4"/>
					<path class="st17" d="M189.6,131.5l-12.2-0.9c0-0.1,0-0.2,0-0.3l12.2,0.9C189.6,131.3,189.6,131.4,189.6,131.5"/>
				</g>
			</g>
			<g class="st0">
				<defs>
					<path id="SVGID_17_" class="st0" d="M177.3,130.3C177.3,130.3,177.3,130.3,177.3,130.3l12.2,0.9c0,0,0,0,0,0
						C185.5,130.9,181.4,130.6,177.3,130.3z"/>
				</defs>
				<clipPath id="SVGID_18_">
					<use xlink:href="#SVGID_17_"  style="overflow:visible;"/>
				</clipPath>
				<g class="st19">
					<path class="st12" d="M181.7,135.3l-12.2-0.9c0,0,0.1,0,0.1,0c0.2-0.1,0.3-0.1,0.4-0.1c2.2-0.6,4.4-1.7,6.6-3.3
						c0.2-0.2,0.5-0.4,0.7-0.6l12.2,0.9c-0.2,0.2-0.5,0.4-0.7,0.6c-2.2,1.7-4.4,2.8-6.6,3.3c-0.1,0-0.2,0-0.4,0.1
						C181.8,135.3,181.7,135.3,181.7,135.3"/>
				</g>
			</g>
			<g class="st0">
				<defs>
					<path id="SVGID_19_" class="st0" d="M177.3,130.3C177.3,130.3,177.3,130.3,177.3,130.3c0,0,0.8,0.1,1,0.1
						c3.8,0.3,7.5,0.6,11.3,0.8c-0.2,0.2-0.5,0.4-0.7,0.6c-4.1-0.3-8.1-0.6-12.2-0.9c4.1,0.3,8.1,0.6,12.2,0.9c0,0,0,0,0,0
						c0,0,0,0,0,0c-4.1-0.3-8.2-0.6-12.2-0.9c0,0,0,0,0,0C176.8,130.7,177.1,130.5,177.3,130.3z"/>
				</defs>
				<clipPath id="SVGID_20_">
					<use xlink:href="#SVGID_19_"  style="overflow:visible;"/>
				</clipPath>
				<g class="st20">
					<path class="st12" d="M181.7,135.3l-12.2-0.9c0,0,0.1,0,0.1,0c0.2-0.1,0.3-0.1,0.4-0.1c2.2-0.6,4.4-1.7,6.6-3.3
						c0.2-0.2,0.5-0.4,0.7-0.6l12.2,0.9c-0.2,0.2-0.5,0.4-0.7,0.6c-2.2,1.7-4.4,2.8-6.6,3.3c-0.1,0-0.2,0-0.4,0.1
						C181.8,135.3,181.7,135.3,181.7,135.3"/>
				</g>
			</g>
			<g class="st0">
				<defs>
					<path id="SVGID_21_" class="st0" d="M170,134.2c2.2-0.6,4.4-1.7,6.6-3.3c4.1,0.3,8.2,0.6,12.2,0.9c-2.2,1.7-4.4,2.8-6.6,3.3
						C178.1,134.9,174,134.5,170,134.2z"/>
				</defs>
				<clipPath id="SVGID_22_">
					<use xlink:href="#SVGID_21_"  style="overflow:visible;"/>
				</clipPath>
				<g class="st21">
					<path class="st12" d="M181.7,135.3l-12.2-0.9c0,0,0.1,0,0.1,0c0.2-0.1,0.3-0.1,0.4-0.1c2.2-0.6,4.4-1.7,6.6-3.3
						c0.2-0.2,0.5-0.4,0.7-0.6l12.2,0.9c-0.2,0.2-0.5,0.4-0.7,0.6c-2.2,1.7-4.4,2.8-6.6,3.3c-0.1,0-0.2,0-0.4,0.1
						C181.8,135.3,181.7,135.3,181.7,135.3"/>
				</g>
			</g>
			<g class="st0">
				<defs>
					<path id="SVGID_23_" class="st0" d="M170,134.2C170,134.2,170,134.2,170,134.2c4.1,0.3,8.2,0.6,12.2,0.9c0,0,0,0,0,0
						C178.1,134.9,174,134.5,170,134.2z"/>
				</defs>
				<clipPath id="SVGID_24_">
					<use xlink:href="#SVGID_23_"  style="overflow:visible;"/>
				</clipPath>
				<g class="st22">
					<path class="st12" d="M181.7,135.3l-12.2-0.9c0,0,0.1,0,0.1,0c0.2-0.1,0.3-0.1,0.4-0.1c2.2-0.6,4.4-1.7,6.6-3.3
						c0.2-0.2,0.5-0.4,0.7-0.6l12.2,0.9c-0.2,0.2-0.5,0.4-0.7,0.6c-2.2,1.7-4.4,2.8-6.6,3.3c-0.1,0-0.2,0-0.4,0.1
						C181.8,135.3,181.7,135.3,181.7,135.3"/>
				</g>
			</g>
			<g class="st0">
				<defs>
					<path id="SVGID_25_" class="st0" d="M170,134.2c0.1,0,0.2,0,0.3,0c0.3,0,0.6,0,0.9,0.1c3.7,0.3,7.3,0.5,11,0.8
						c-0.1,0-0.2,0-0.4,0.1c-4.1-0.3-8.2-0.6-12.2-0.9C169.8,134.3,169.9,134.3,170,134.2z"/>
				</defs>
				<clipPath id="SVGID_26_">
					<use xlink:href="#SVGID_25_"  style="overflow:visible;"/>
				</clipPath>
				<g class="st23">
					<path class="st12" d="M181.7,135.3l-12.2-0.9c0,0,0.1,0,0.1,0c0.2-0.1,0.3-0.1,0.4-0.1c2.2-0.6,4.4-1.7,6.6-3.3
						c0.2-0.2,0.5-0.4,0.7-0.6l12.2,0.9c-0.2,0.2-0.5,0.4-0.7,0.6c-2.2,1.7-4.4,2.8-6.6,3.3c-0.1,0-0.2,0-0.4,0.1
						C181.8,135.3,181.7,135.3,181.7,135.3"/>
				</g>
			</g>
			<g class="st0">
				<defs>
					<path id="SVGID_27_" class="st0" d="M169.6,134.3c0,0,0.1,0,0.1,0c0.3,0,0.5,0,0.8,0.1c3.8,0.3,7.6,0.6,11.4,0.8c0,0,0,0,0,0
						c0,0,0,0,0,0C177.7,134.9,173.7,134.6,169.6,134.3C169.6,134.3,169.6,134.3,169.6,134.3C169.6,134.3,169.6,134.3,169.6,134.3z"
						/>
				</defs>
				<clipPath id="SVGID_28_">
					<use xlink:href="#SVGID_27_"  style="overflow:visible;"/>
				</clipPath>
				<g class="st24">
					<path class="st12" d="M181.7,135.3l-12.2-0.9c0,0,0.1,0,0.1,0c0.2-0.1,0.3-0.1,0.4-0.1c2.2-0.6,4.4-1.7,6.6-3.3
						c0.2-0.2,0.5-0.4,0.7-0.6l12.2,0.9c-0.2,0.2-0.5,0.4-0.7,0.6c-2.2,1.7-4.4,2.8-6.6,3.3c-0.1,0-0.2,0-0.4,0.1
						C181.8,135.3,181.7,135.3,181.7,135.3"/>
				</g>
			</g>
			<g class="st0">
				<defs>
					<path id="SVGID_29_" class="st0" d="M184.5,108.8c-1-8.8-6.4-16.1-13.8-17.6c4.1,0.3,8.2,0.6,12.2,0.9
						c7.4,1.5,12.7,8.8,13.8,17.6C192.6,109.4,188.5,109.1,184.5,108.8z"/>
				</defs>
				<clipPath id="SVGID_30_">
					<use xlink:href="#SVGID_29_"  style="overflow:visible;"/>
				</clipPath>
				<g class="st25">
					<path class="st5" d="M196.7,110l-12.2-0.9c0-0.1,0-0.2,0-0.3c-1-8.8-6.4-16.1-13.8-17.6c-0.1,0-0.2,0-0.4-0.1l12.2,0.9
						c0.1,0,0.2,0,0.4,0.1c7.4,1.5,12.7,8.8,13.8,17.6C196.7,109.8,196.7,109.9,196.7,110"/>
				</g>
			</g>
			<g class="st0">
				<defs>
					<path id="SVGID_31_" class="st0" d="M171.2,100.8c4.1,0.3,8.2,0.6,12.2,0.9c0.2,0.4,0.3,0.9,0.4,1.4c0.1,0.5,0.1,1,0.1,1.5
						c0,0.1,0,0.2,0,0.4l-12.2-0.9c0-0.1,0-0.2,0-0.4c-0.1-0.6-0.1-1.1-0.1-1.5C171.5,101.7,171.4,101.2,171.2,100.8z"/>
				</defs>
				<clipPath id="SVGID_32_">
					<use xlink:href="#SVGID_31_"  style="overflow:visible;"/>
				</clipPath>
				<g class="st26">
					<path class="st27" d="M184,105l-12.2-0.9c0-0.1,0-0.2,0-0.4c0,0,0-0.1,0-0.1l12.2,0.9c0,0,0,0.1,0,0.1
						C183.9,104.8,184,104.9,184,105"/>
					<path class="st28" d="M183.9,104.5l-12.2-0.9c0-0.5-0.1-0.9-0.1-1.3l12.2,0.9C183.8,103.6,183.9,104.1,183.9,104.5"/>
					<path class="st27" d="M183.8,103.2l-12.2-0.9c0,0,0-0.1,0-0.1c-0.1-0.5-0.2-1-0.4-1.4l12.2,0.9c0.2,0.4,0.3,0.9,0.4,1.4
						C183.8,103.2,183.8,103.2,183.8,103.2"/>
				</g>
			</g>
			<g class="st0">
				<defs>
					<path id="SVGID_33_" class="st0" d="M170.7,91.2c-0.1,0-0.2,0-0.4-0.1l12.2,0.9c0.1,0,0.2,0,0.4,0.1c-2-0.2-4.1-0.3-6.1-0.5
						c-0.2,0-0.6,0-0.8-0.1c-0.5,0-1.1-0.1-1.6-0.1c-1-0.1-2-0.1-3-0.2C171.2,91.2,170.9,91.2,170.7,91.2z"/>
				</defs>
				<clipPath id="SVGID_34_">
					<use xlink:href="#SVGID_33_"  style="overflow:visible;"/>
				</clipPath>
				<g class="st29">
					<path class="st5" d="M196.7,110l-12.2-0.9c0-0.1,0-0.2,0-0.3c-1-8.8-6.4-16.1-13.8-17.6c-0.1,0-0.2,0-0.4-0.1l12.2,0.9
						c0.1,0,0.2,0,0.4,0.1c7.4,1.5,12.7,8.8,13.8,17.6C196.7,109.8,196.7,109.9,196.7,110"/>
				</g>
			</g>
			<g class="st0">
				<defs>
					<path id="SVGID_35_" class="st0" d="M170.3,91.1c4.1,0.3,8.2,0.6,12.2,0.9c0,0,0,0,0,0L170.3,91.1
						C170.3,91.1,170.3,91.1,170.3,91.1z"/>
				</defs>
				<clipPath id="SVGID_36_">
					<use xlink:href="#SVGID_35_"  style="overflow:visible;"/>
				</clipPath>
				<g class="st30">
					<path class="st5" d="M182.5,92l-12.2-0.9c-0.5-0.1-0.9-0.1-1.4-0.2l12.2,0.9C181.6,91.9,182.1,92,182.5,92"/>
				</g>
			</g>
			<g class="st0">
				<defs>
					<path id="SVGID_37_" class="st0" d="M173.3,114.9c-0.4-3.5-2.3-5.5-5.2-5.7l12.2,0.9c2.9,0.2,4.7,2.2,5.2,5.7
						c0.4,3.8-1.2,7.2-4.1,8.6l-12.2-0.9C172.1,122.1,173.7,118.7,173.3,114.9z"/>
				</defs>
				<clipPath id="SVGID_38_">
					<use xlink:href="#SVGID_37_"  style="overflow:visible;"/>
				</clipPath>
				<g class="st31">
					<path class="st32" d="M181.4,124.4l-12.2-0.9c0.6-0.3,1.1-0.6,1.6-1l12.2,0.9C182.5,123.8,182,124.1,181.4,124.4"/>
					<path class="st33" d="M183,123.4l-12.2-0.9c0.2-0.2,0.4-0.4,0.7-0.7l12.2,0.9C183.4,123,183.2,123.2,183,123.4"/>
					<path class="st32" d="M183.6,122.7l-12.2-0.9c0.7-0.8,1.2-1.7,1.5-2.8l12.2,0.9C184.8,121,184.3,121.9,183.6,122.7"/>
					<path class="st34" d="M185.2,119.9l-12.2-0.9c0.2-0.6,0.3-1.2,0.4-1.9l12.2,0.9C185.5,118.7,185.3,119.3,185.2,119.9"/>
					<path class="st28" d="M185.5,118.1l-12.2-0.9c0.1-0.7,0.1-1.4,0-2.1l12.2,0.9C185.6,116.7,185.6,117.4,185.5,118.1"/>
					<path class="st27" d="M185.5,116l-12.2-0.9c0,0,0-0.1,0-0.1c-0.4-3.5-2.3-5.5-5.2-5.7l12.2,0.9c2.9,0.2,4.8,2.2,5.2,5.7
						C185.5,115.9,185.5,115.9,185.5,116"/>
				</g>
			</g>
			<g class="st0">
				<defs>
					<path id="SVGID_39_" class="st0" d="M165.9,134.6c1.2,0.1,2.5,0,3.7-0.3c4.1,0.3,8.2,0.6,12.2,0.9c-1.2,0.3-2.5,0.4-3.7,0.3
						C174.4,135.2,169.5,134.9,165.9,134.6z"/>
				</defs>
				<clipPath id="SVGID_40_">
					<use xlink:href="#SVGID_39_"  style="overflow:visible;"/>
				</clipPath>
				<g class="st35">
					<path class="st36" d="M178.1,135.5l-12.2-0.9c1.2,0.1,2.4,0,3.6-0.2l12.2,0.9C180.5,135.5,179.3,135.6,178.1,135.5"/>
					<path class="st12" d="M181.7,135.3l-12.2-0.9c0,0,0.1,0,0.1,0c0.2-0.1,0.3-0.1,0.4-0.1c2.2-0.6,4.4-1.7,6.6-3.3
						c0.2-0.2,0.5-0.4,0.7-0.6l12.2,0.9c-0.2,0.2-0.5,0.4-0.7,0.6c-2.2,1.7-4.4,2.8-6.6,3.3c-0.1,0-0.2,0-0.4,0.1
						C181.8,135.3,181.7,135.3,181.7,135.3"/>
				</g>
			</g>
			<g class="st0">
				<defs>
					<path id="SVGID_41_" class="st0" d="M168,105c1.2-0.3,2.4-0.6,3.8-0.9L184,105c-1.3,0.3-2.6,0.6-3.8,0.9c0,0,0,0,0,0
						C176.1,105.6,172.1,105.3,168,105C168,105,168,105,168,105z"/>
				</defs>
				<clipPath id="SVGID_42_">
					<use xlink:href="#SVGID_41_"  style="overflow:visible;"/>
				</clipPath>
				<g class="st37">
					<path class="st32" d="M177.8,107.1l-12.2-0.9c0.2-0.7,0.9-0.9,2.4-1.2c1.2-0.3,2.4-0.6,3.8-0.9L184,105
						c-1.3,0.3-2.6,0.6-3.8,0.9C178.7,106.2,178,106.4,177.8,107.1"/>
				</g>
			</g>
			<g class="st0">
				<defs>
					<path id="SVGID_43_" class="st0" d="M170.3,91.1c-0.4-0.1-0.9-0.1-1.3-0.2l12.2,0.9c0.4,0,0.9,0.1,1.3,0.2
						c-3.9-0.3-7.9-0.6-11.8-0.9C170.5,91.1,170.4,91.1,170.3,91.1z"/>
				</defs>
				<clipPath id="SVGID_44_">
					<use xlink:href="#SVGID_43_"  style="overflow:visible;"/>
				</clipPath>
				<g class="st38">
					<path class="st5" d="M182.5,92l-12.2-0.9c-0.5-0.1-0.9-0.1-1.4-0.2l12.2,0.9C181.6,91.9,182.1,92,182.5,92"/>
				</g>
			</g>
			<g class="st0">
				<defs>
					<path id="SVGID_45_" class="st0" d="M167.3,112.9l12.2,0.9c1.6,0.1,2.6,1.2,2.8,3c0,0.1,0,0.2,0,0.3c0,0.2,0,0.5,0,0.7
						c-0.1,1.6-1.1,2.9-2.5,3.5c-0.2,0.1-0.3,0.1-0.5,0.2c0,0-0.1,0-0.1,0l-12.2-0.9c0,0,0.1,0,0.1,0c0.2,0,0.4-0.1,0.5-0.2
						c1.4-0.5,2.4-1.8,2.5-3.5c0-0.2,0-0.5,0-0.7c0-0.1,0-0.2,0-0.3C169.9,114.2,168.9,113.1,167.3,112.9z"/>
				</defs>
				<clipPath id="SVGID_46_">
					<use xlink:href="#SVGID_45_"  style="overflow:visible;"/>
				</clipPath>
				<g class="st39">
					<polyline class="st3" points="179.2,121.5 166.9,120.6 166.9,120.6 179.2,121.5 179.2,121.5 					"/>
					<path class="st2" d="M179.2,121.5l-12.2-0.9c0,0,0.1,0,0.1,0c0.2,0,0.4-0.1,0.5-0.2c0.5-0.2,0.9-0.4,1.2-0.7l12.2,0.9
						c-0.4,0.3-0.8,0.6-1.2,0.7C179.6,121.4,179.4,121.5,179.2,121.5C179.2,121.5,179.2,121.5,179.2,121.5"/>
					<path class="st7" d="M181,120.6l-12.2-0.9c0.1-0.1,0.2-0.2,0.3-0.3l12.2,0.9C181.3,120.4,181.1,120.5,181,120.6"/>
					<path class="st2" d="M181.4,120.2l-12.2-0.9c0.3-0.4,0.6-0.9,0.8-1.4l12.2,0.9C182,119.4,181.7,119.8,181.4,120.2"/>
					<path class="st3" d="M182.1,118.8l-12.2-0.9c0.1-0.3,0.2-0.6,0.2-0.9l12.2,0.9C182.3,118.3,182.2,118.6,182.1,118.8"/>
					<path class="st4" d="M182.3,117.9l-12.2-0.9c0,0,0,0,0-0.1c0-0.2,0-0.5,0-0.7c0-0.1,0-0.2,0-0.3l12.2,0.9c0,0.1,0,0.2,0,0.3
						C182.4,117.4,182.4,117.7,182.3,117.9C182.3,117.9,182.3,117.9,182.3,117.9"/>
					<path class="st5" d="M182.3,116.9l-12.2-0.9c0,0,0,0,0,0c-0.2-1.8-1.2-2.9-2.8-3l12.2,0.9C181.1,114,182.1,115.1,182.3,116.9
						C182.3,116.9,182.3,116.9,182.3,116.9"/>
				</g>
			</g>
			<g class="st0">
				<defs>
					<path id="SVGID_47_" class="st0" d="M166.5,112.9c0.3,0,0.5,0,0.8,0l12.2,0.9c-0.2,0-0.5,0-0.8,0
						C174.7,113.6,170.6,113.3,166.5,112.9z"/>
				</defs>
				<clipPath id="SVGID_48_">
					<use xlink:href="#SVGID_47_"  style="overflow:visible;"/>
				</clipPath>
				<g class="st40">
					<path class="st34" d="M178.1,114l-12.2-0.9c0.2,0,0.4-0.1,0.6-0.1c0.3,0,0.5,0,0.8,0l12.2,0.9c-0.2,0-0.5,0-0.8,0
						C178.5,113.9,178.3,113.9,178.1,114"/>
				</g>
			</g>
			<g class="st0">
				<defs>
					<path id="SVGID_49_" class="st0" d="M204,188.2l-12.2-0.9c-2.3-2.6-5-4.5-7.6-6.7c-4.5-3.9-8.9-8-13.4-11.9
						c-2.6-2.3-5.5-4.2-7.9-6.9l12.2,0.9c2.4,2.8,5.3,4.6,7.9,6.9c4.5,4,8.9,8.1,13.4,11.9C199,183.7,201.7,185.6,204,188.2z"/>
				</defs>
				<clipPath id="SVGID_50_">
					<use xlink:href="#SVGID_49_"  style="overflow:visible;"/>
				</clipPath>
				<g class="st41">
					<path class="st42" d="M204,188.2l-12.2-0.9c-2.3-2.6-5-4.5-7.6-6.7c-4.5-3.9-8.9-8-13.4-11.9c-2.6-2.3-5.5-4.2-7.9-6.9
						l12.2,0.9c2.4,2.8,5.3,4.6,7.9,6.9c4.5,4,8.9,8.1,13.4,11.9C199,183.7,201.7,185.6,204,188.2"/>
				</g>
			</g>
			<g>
				<path class="st43" d="M198,123.5c0.3,0.4,0.4,0.9,0.5,1.4c0,0.4,0.1,0.8,0.1,1.2c2.2,18.6,4.3,37.1,6.5,55.7
					c0.3,2.3,0.2,4.4-1.1,6.4c-2.3-2.6-5-4.5-7.6-6.7c-4.5-3.9-8.9-8-13.4-11.9c-2.6-2.3-5.5-4.2-7.9-6.9c0.4-0.7,0.7-1.5,1.1-2.2
					c4.6-8,9.2-16,14-23.7C192.9,132.4,195.1,127.7,198,123.5z"/>
			</g>
			<g class="st0">
				<defs>
					<path id="SVGID_51_" class="st0" d="M174.7,162.8l-12.2-0.9c0.1,0,0.2-0.1,0.4-0.1l12.2,0.9C175,162.7,174.8,162.7,174.7,162.8
						z"/>
				</defs>
				<clipPath id="SVGID_52_">
					<use xlink:href="#SVGID_51_"  style="overflow:visible;"/>
				</clipPath>
				<g class="st44">
					<path class="st45" d="M174.7,162.8l-12.2-0.9c0.1,0,0.1,0,0.2,0l12.2,0.9C174.8,162.7,174.8,162.8,174.7,162.8"/>
					<path class="st46" d="M174.9,162.7l-12.2-0.9c0.1,0,0.1,0,0.2,0l12.2,0.9C175,162.7,175,162.7,174.9,162.7"/>
				</g>
			</g>
			<g class="st0">
				<defs>
					<path id="SVGID_53_" class="st0" d="M178.5,110.3l-12.2-0.9c0.5,0,0.9-0.1,1.4-0.1c0.2,0,0.3,0,0.5,0l12.2,0.9
						c-0.2,0-0.3,0-0.5,0C179.4,110.1,178.9,110.3,178.5,110.3z"/>
				</defs>
				<clipPath id="SVGID_54_">
					<use xlink:href="#SVGID_53_"  style="overflow:visible;"/>
				</clipPath>
				<g class="st47">
					<path class="st3" d="M178.5,110.3l-12.2-0.9c0.5,0,0.9-0.1,1.4-0.1c0.2,0,0.3,0,0.5,0l12.2,0.9c-0.2,0-0.3,0-0.5,0
						C179.4,110.1,178.9,110.3,178.5,110.3"/>
				</g>
			</g>
			<g class="st0">
				<defs>
					<path id="SVGID_55_" class="st0" d="M162.2,162.3c0.1-0.1,0.2-0.3,0.3-0.4l12.2,0.9c-0.1,0.1-0.2,0.3-0.3,0.4
						C170.4,162.9,166.3,162.6,162.2,162.3z"/>
				</defs>
				<clipPath id="SVGID_56_">
					<use xlink:href="#SVGID_55_"  style="overflow:visible;"/>
				</clipPath>
				<g class="st48">
					<path class="st45" d="M164.5,179.7l-12.2-0.9c0.3-0.4,0.6-0.7,0.9-1.2c3.3-5.1,6.2-10.5,9.3-15.7l12.2,0.9
						c-3.1,5.3-6,10.7-9.3,15.7C165.1,178.9,164.9,179.3,164.5,179.7"/>
				</g>
			</g>
			<g class="st0">
				<defs>
					<path id="SVGID_57_" class="st0" d="M165.6,109.1c4.1,0.3,8.2,0.6,12.2,0.9c0.2,0.1,0.4,0.2,0.6,0.2l-12.2-0.9
						C166,109.3,165.8,109.3,165.6,109.1z"/>
				</defs>
				<clipPath id="SVGID_58_">
					<use xlink:href="#SVGID_57_"  style="overflow:visible;"/>
				</clipPath>
				<g class="st49">
					<path class="st27" d="M178.5,110.3l-12.2-0.9c-0.2,0-0.4-0.1-0.6-0.2l12.2,0.9C178.1,110.2,178.3,110.2,178.5,110.3"/>
				</g>
			</g>
			<g class="st0">
				<defs>
					<path id="SVGID_59_" class="st0" d="M165.6,113.1c0.3-0.1,0.6-0.1,0.9-0.2c4.1,0.3,8.2,0.6,12.2,0.9c0,0,0,0,0,0
						c-4.1-0.3-8.1-0.6-12.2-0.9c4.1,0.3,8.1,0.6,12.2,0.9c-0.3,0-0.6,0.1-0.9,0.2C173.8,113.7,169.7,113.4,165.6,113.1
						c4.1,0.3,8.2,0.6,12.2,0.9c0,0,0,0,0,0c-0.1,0-0.2,0.1-0.4,0.1l-12.2-0.9C165.3,113.2,165.5,113.1,165.6,113.1z"/>
				</defs>
				<clipPath id="SVGID_60_">
					<use xlink:href="#SVGID_59_"  style="overflow:visible;"/>
				</clipPath>
				<g class="st50">
					<path class="st32" d="M177.5,114.1l-12.2-0.9c0.1,0,0.2-0.1,0.4-0.1c0.1,0,0.2,0,0.3-0.1l12.2,0.9c-0.1,0-0.2,0-0.3,0.1
						C177.7,114.1,177.6,114.1,177.5,114.1"/>
					<path class="st34" d="M178.1,114l-12.2-0.9c0.2,0,0.4-0.1,0.6-0.1c0.3,0,0.5,0,0.8,0l12.2,0.9c-0.2,0-0.5,0-0.8,0
						C178.5,113.9,178.3,113.9,178.1,114"/>
				</g>
			</g>
			<g class="st0">
				<defs>
					<path id="SVGID_61_" class="st0" d="M165.6,109.1c-0.4-3.5-0.4-3.5,2.4-4.1c4.1,0.3,8.2,0.6,12.2,0.9c-2.7,0.6-2.7,0.6-2.4,4.1
						C174.2,109.8,169.3,109.4,165.6,109.1z"/>
				</defs>
				<clipPath id="SVGID_62_">
					<use xlink:href="#SVGID_61_"  style="overflow:visible;"/>
				</clipPath>
				<g class="st51">
					<path class="st28" d="M177.8,110l-12.2-0.9c-0.1-1.2-0.2-2-0.1-2.5l12.2,0.9C177.6,108.1,177.7,108.8,177.8,110"/>
					<path class="st34" d="M177.7,107.5l-12.2-0.9c0-0.2,0-0.3,0.1-0.4l12.2,0.9C177.7,107.2,177.7,107.4,177.7,107.5"/>
					<path class="st32" d="M177.8,107.1l-12.2-0.9c0.2-0.7,0.9-0.9,2.4-1.2c1.2-0.3,2.4-0.6,3.8-0.9L184,105
						c-1.3,0.3-2.6,0.6-3.8,0.9C178.7,106.2,178,106.4,177.8,107.1"/>
				</g>
			</g>
			<g class="st0">
				<defs>
					<path id="SVGID_63_" class="st0" d="M176.9,114.2l-12.2-0.9c0.1,0,0.2,0,0.3-0.1c0.1,0,0.2,0,0.3-0.1l12.2,0.9
						c-0.1,0-0.2,0.1-0.3,0.1C177.1,114.2,177,114.2,176.9,114.2z"/>
				</defs>
				<clipPath id="SVGID_64_">
					<use xlink:href="#SVGID_63_"  style="overflow:visible;"/>
				</clipPath>
				<g class="st52">
					<path class="st34" d="M176.9,114.2l-12.2-0.9c0.1,0,0.1,0,0.2,0l12.2,0.9C177,114.2,176.9,114.2,176.9,114.2"/>
					<path class="st32" d="M177,114.2l-12.2-0.9c0,0,0.1,0,0.1,0c0.1,0,0.2,0,0.3-0.1l12.2,0.9c-0.1,0-0.2,0.1-0.3,0.1
						C177.1,114.2,177.1,114.2,177,114.2"/>
				</g>
			</g>
			<g>
				<path class="st53" d="M196,120.5c1,0.6,1.7,1.6,2,3c-2.8,4.2-5.1,8.9-7.8,13.2c-4.8,7.8-9.4,15.8-14,23.7
					c-0.4,0.7-0.8,1.5-1.1,2.2c-0.1,0-0.2,0-0.4,0.1c-0.6-0.7-1.2-1.4-1.8-2c0-1.6,1-2.6,1.7-3.7c4.4-6.7,8.2-13.9,12.3-20.9
					c0.9-1.6,2.6-2.6,2.7-4.9C192.5,128.4,194.4,124.5,196,120.5z"/>
			</g>
			<g class="st0">
				<defs>
					<path id="SVGID_65_" class="st0" d="M165.9,120.7c-0.8-0.1-1.7-0.3-2.6-0.5l12.2,0.9c0.9,0.2,1.7,0.5,2.6,0.5
						C174.4,121.3,169.5,120.9,165.9,120.7z"/>
				</defs>
				<clipPath id="SVGID_66_">
					<use xlink:href="#SVGID_65_"  style="overflow:visible;"/>
				</clipPath>
				<g class="st54">
					<path class="st27" d="M178.1,121.6l-12.2-0.9c-0.8-0.1-1.7-0.3-2.6-0.5l12.2,0.9C176.4,121.2,177.3,121.5,178.1,121.6"/>
				</g>
			</g>
			<g class="st0">
				<defs>
					<path id="SVGID_67_" class="st0" d="M176.9,125.2l-12.2-0.9c-1-0.1-1.5-0.4-1.6-1.3c-0.1-0.6,0-1.5,0.3-2.8l12.2,0.9
						c-0.2,1.3-0.3,2.2-0.3,2.8C175.4,124.8,175.9,125.1,176.9,125.2z"/>
				</defs>
				<clipPath id="SVGID_68_">
					<use xlink:href="#SVGID_67_"  style="overflow:visible;"/>
				</clipPath>
				<g class="st55">
					<path class="st5" d="M176.9,125.2l-12.2-0.9c-1-0.1-1.5-0.4-1.6-1.3c0,0,0,0,0,0l12.2,0.9c0,0,0,0,0,0
						C175.4,124.8,175.9,125.1,176.9,125.2"/>
					<path class="st4" d="M175.3,123.8l-12.2-0.9c0-0.3,0-0.7,0-1.2l12.2,0.9C175.3,123.1,175.3,123.5,175.3,123.8"/>
					<path class="st3" d="M175.3,122.6l-12.2-0.9c0-0.5,0.1-1,0.2-1.6l12.2,0.9C175.4,121.7,175.4,122.2,175.3,122.6"/>
				</g>
			</g>
			<g class="st0">
				<defs>
					<path id="SVGID_69_" class="st0" d="M164.1,113.5c0.2,0,0.4-0.1,0.6-0.1l12.2,0.9c-0.2,0-0.4,0.1-0.6,0.1
						c-0.4,0.1-0.8,0.2-1.4,0.3l-12.2-0.9C163.2,113.7,163.7,113.6,164.1,113.5z"/>
				</defs>
				<clipPath id="SVGID_70_">
					<use xlink:href="#SVGID_69_"  style="overflow:visible;"/>
				</clipPath>
				<g class="st56">
					<path class="st32" d="M174.9,114.7l-12.2-0.9c0.6-0.1,1-0.2,1.4-0.3c0.2,0,0.4-0.1,0.6-0.1l12.2,0.9c-0.2,0-0.4,0.1-0.6,0.1
						C175.9,114.5,175.5,114.6,174.9,114.7"/>
				</g>
			</g>
			<g class="st0">
				<defs>
					<path id="SVGID_71_" class="st0" d="M174.9,114.7l-12.2-0.9c0-3.7-0.1-7.3-0.1-11l12.2,0.9C174.8,107.4,174.9,111,174.9,114.7z
						"/>
				</defs>
				<clipPath id="SVGID_72_">
					<use xlink:href="#SVGID_71_"  style="overflow:visible;"/>
				</clipPath>
				<g class="st57">
					<path class="st4" d="M174.9,114.7l-12.2-0.9c0-3.7-0.1-7.3-0.1-11l12.2,0.9C174.8,107.4,174.9,111,174.9,114.7"/>
				</g>
			</g>
			<g class="st0">
				<defs>
					<path id="SVGID_73_" class="st0" d="M174.8,103.7l-12.2-0.9c2.9-0.7,5.8-1.3,8.6-2l12.2,0.9C180.6,102.3,177.7,103,174.8,103.7
						z"/>
				</defs>
				<clipPath id="SVGID_74_">
					<use xlink:href="#SVGID_73_"  style="overflow:visible;"/>
				</clipPath>
				<g class="st58">
					<path class="st2" d="M174.8,103.7l-12.2-0.9c2.9-0.7,5.8-1.3,8.6-2l12.2,0.9C180.6,102.3,177.7,103,174.8,103.7"/>
				</g>
			</g>
			<g class="st0">
				<defs>
					<path id="SVGID_75_" class="st0" d="M178.1,135.5l-12.2-0.9c-2.1-0.2-4.2-0.8-6.3-2.1c-3-1.7-5.2-4.5-7.1-7.7l12.2,0.9
						c1.9,3.2,4.2,6,7.1,7.7C173.9,134.7,176,135.4,178.1,135.5z"/>
				</defs>
				<clipPath id="SVGID_76_">
					<use xlink:href="#SVGID_75_"  style="overflow:visible;"/>
				</clipPath>
				<g class="st59">
					<path class="st27" d="M178.1,135.5l-12.2-0.9c-2.1-0.2-4.2-0.8-6.3-2.1c-3-1.7-5.2-4.5-7.1-7.7l12.2,0.9c1.9,3.2,4.2,6,7.1,7.7
						C173.9,134.7,176,135.4,178.1,135.5"/>
				</g>
			</g>
			<g class="st0">
				<defs>
					<path id="SVGID_77_" class="st0" d="M169,91l12.2,0.9c-1.4-0.1-2.7,0-4.1,0.3c-0.1,0-0.1,0-0.2,0c-7.1,1.7-12.9,8.9-14.3,18.4
						c0,0.1,0,0.2,0,0.3c0,0.1,0,0.2,0,0.3c0,0.1,0,0.2,0,0.2c-0.2,2-0.2,3.9,0,5.8c0.3,2.9,1.2,5.7,2.2,8.4l-12.2-0.9
						c-1-2.7-1.8-5.5-2.2-8.4c-0.2-1.9-0.3-3.8,0-5.8c0-0.1,0-0.2,0-0.2c0-0.1,0-0.2,0-0.3c0-0.1,0-0.2,0-0.3
						c1.4-9.5,7.2-16.7,14.3-18.4c0.1,0,0.1,0,0.2,0C166.2,91,167.6,90.9,169,91z"/>
				</defs>
				<clipPath id="SVGID_78_">
					<use xlink:href="#SVGID_77_"  style="overflow:visible;"/>
				</clipPath>
				<g class="st60">
					<path class="st27" d="M164.7,125.7l-12.2-0.9c-1-2.7-1.8-5.5-2.2-8.4c0-0.1,0-0.2,0-0.3l12.2,0.9c0,0.1,0,0.2,0,0.3
						C162.8,120.3,163.7,123,164.7,125.7"/>
					<path class="st28" d="M162.5,117l-12.2-0.9c-0.2-1.7-0.2-3.4,0-5.1l12.2,0.9C162.3,113.7,162.3,115.4,162.5,117"/>
					<path class="st34" d="M162.4,111.9l-12.2-0.9c0-0.1,0-0.2,0-0.4c0-0.1,0-0.2,0-0.2c0-0.1,0-0.2,0-0.3c0-0.1,0-0.2,0-0.3
						c0.2-1.5,0.6-3,1-4.4l12.2,0.9c-0.4,1.4-0.8,2.9-1,4.4c0,0.1,0,0.2,0,0.3c0,0.1,0,0.2,0,0.3c0,0.1,0,0.2,0,0.2
						C162.5,111.7,162.4,111.8,162.4,111.9"/>
					<path class="st32" d="M163.6,106.2l-12.2-0.9c1-3.3,2.6-6.1,4.6-8.4l12.2,0.9C166.2,100.1,164.6,102.9,163.6,106.2"/>
					<path class="st33" d="M168.2,97.8L156,96.9c0.6-0.7,1.2-1.3,1.9-1.9l12.2,0.9C169.4,96.5,168.8,97.1,168.2,97.8"/>
					<path class="st32" d="M170.1,95.9L157.8,95c2-1.8,4.4-3.1,6.8-3.7c0.1,0,0.1,0,0.2,0c0.1,0,0.1,0,0.2,0l12.2,0.9
						c-0.1,0-0.1,0-0.2,0c-0.1,0-0.1,0-0.2,0C174.4,92.8,172.1,94.1,170.1,95.9"/>
					<path class="st34" d="M177.3,92.1l-12.2-0.9c1.3-0.3,2.6-0.4,3.9-0.3l12.2,0.9C179.9,91.8,178.6,91.9,177.3,92.1"/>
				</g>
			</g>
			<g class="st0">
				<defs>
					<path id="SVGID_79_" class="st0" d="M162.2,162.3c4.1,0.3,8.2,0.6,12.2,0.9c-3,5.1-5.9,10.4-9,15.3c-4.1-0.3-8.2-0.6-12.2-0.9
						C156.3,172.7,159.2,167.4,162.2,162.3z"/>
				</defs>
				<clipPath id="SVGID_80_">
					<use xlink:href="#SVGID_79_"  style="overflow:visible;"/>
				</clipPath>
				<g class="st61">
					<path class="st45" d="M164.5,179.7l-12.2-0.9c0.3-0.4,0.6-0.7,0.9-1.2c3.3-5.1,6.2-10.5,9.3-15.7l12.2,0.9
						c-3.1,5.3-6,10.7-9.3,15.7C165.1,178.9,164.9,179.3,164.5,179.7"/>
				</g>
			</g>
			<g class="st0">
				<defs>
					<path id="SVGID_81_" class="st0" d="M165.4,178.5c-4.1-0.3-8.2-0.6-12.2-0.9C157.3,177.9,161.3,178.2,165.4,178.5
						C165.4,178.5,165.4,178.5,165.4,178.5z"/>
				</defs>
				<clipPath id="SVGID_82_">
					<use xlink:href="#SVGID_81_"  style="overflow:visible;"/>
				</clipPath>
				<g class="st62">
					<path class="st45" d="M164.5,179.7l-12.2-0.9c0.3-0.4,0.6-0.7,0.9-1.2c3.3-5.1,6.2-10.5,9.3-15.7l12.2,0.9
						c-3.1,5.3-6,10.7-9.3,15.7C165.1,178.9,164.9,179.3,164.5,179.7"/>
				</g>
			</g>
			<g class="st0">
				<defs>
					<path id="SVGID_83_" class="st0" d="M148.6,181.2c1.7-0.5,3.3-1.7,4.6-3.6c4.1,0.3,8.2,0.6,12.2,0.9c-1.3,1.9-2.9,3.2-4.6,3.6
						C156.8,181.8,152.7,181.5,148.6,181.2z"/>
				</defs>
				<clipPath id="SVGID_84_">
					<use xlink:href="#SVGID_83_"  style="overflow:visible;"/>
				</clipPath>
				<g class="st63">
					<path class="st45" d="M160.4,182.3l-12.2-0.9c0,0,0.1,0,0.1,0c0.1,0,0.2-0.1,0.3-0.1c1-0.3,2-0.8,2.8-1.6l12.2,0.9
						c-0.9,0.8-1.8,1.3-2.8,1.6c-0.1,0-0.2,0.1-0.3,0.1C160.5,182.2,160.4,182.3,160.4,182.3"/>
					<path class="st64" d="M163.7,180.6l-12.2-0.9c0.3-0.3,0.6-0.6,0.9-0.9l12.2,0.9C164.3,180,164,180.3,163.7,180.6"/>
					<path class="st45" d="M164.5,179.7l-12.2-0.9c0.3-0.4,0.6-0.7,0.9-1.2c3.3-5.1,6.2-10.5,9.3-15.7l12.2,0.9
						c-3.1,5.3-6,10.7-9.3,15.7C165.1,178.9,164.9,179.3,164.5,179.7"/>
				</g>
			</g>
			<g class="st0">
				<defs>
					<path id="SVGID_85_" class="st0" d="M160.5,182.2c-0.2,0-0.4,0-0.5,0c-2.9-0.2-5.8-0.4-8.8-0.7
						C154.3,181.8,157.4,182,160.5,182.2C160.5,182.2,160.5,182.2,160.5,182.2z"/>
				</defs>
				<clipPath id="SVGID_86_">
					<use xlink:href="#SVGID_85_"  style="overflow:visible;"/>
				</clipPath>
				<g class="st65">
					<path class="st45" d="M160.4,182.3l-12.2-0.9c0,0,0.1,0,0.1,0c0.1,0,0.2-0.1,0.3-0.1c1-0.3,2-0.8,2.8-1.6l12.2,0.9
						c-0.9,0.8-1.8,1.3-2.8,1.6c-0.1,0-0.2,0.1-0.3,0.1C160.5,182.2,160.4,182.3,160.4,182.3"/>
				</g>
			</g>
			<g class="st0">
				<defs>
					<path id="SVGID_87_" class="st0" d="M148.3,181.3c0.1,0,0.2-0.1,0.3-0.1c4.1,0.3,8.2,0.6,12.2,0.9c-0.1,0-0.2,0.1-0.3,0.1
						C156.4,181.9,152.3,181.6,148.3,181.3c4.1,0.3,8.2,0.6,12.2,0.9c-0.2,0-0.4,0.1-0.6,0.1c-4.1-0.3-8.2-0.6-12.2-0.9
						C147.8,181.4,148.1,181.4,148.3,181.3z"/>
				</defs>
				<clipPath id="SVGID_88_">
					<use xlink:href="#SVGID_87_"  style="overflow:visible;"/>
				</clipPath>
				<g class="st66">
					<path class="st46" d="M158.6,182.4l-12.2-0.9c0.4,0,0.9,0,1.3,0c0.2,0,0.3,0,0.5-0.1l12.2,0.9c-0.2,0-0.3,0.1-0.5,0.1
						C159.4,182.4,159,182.4,158.6,182.4"/>
					<path class="st45" d="M160.4,182.3l-12.2-0.9c0,0,0.1,0,0.1,0c0.1,0,0.2-0.1,0.3-0.1c1-0.3,2-0.8,2.8-1.6l12.2,0.9
						c-0.9,0.8-1.8,1.3-2.8,1.6c-0.1,0-0.2,0.1-0.3,0.1C160.5,182.2,160.4,182.3,160.4,182.3"/>
				</g>
			</g>
			<g class="st0">
				<defs>
					<path id="SVGID_89_" class="st0" d="M146.3,181.5c0.4,0,0.9,0,1.3,0c4.1,0.3,8.2,0.6,12.2,0.9c-0.4,0.1-0.9,0.1-1.3,0
						C154.9,182.1,150,181.7,146.3,181.5z"/>
				</defs>
				<clipPath id="SVGID_90_">
					<use xlink:href="#SVGID_89_"  style="overflow:visible;"/>
				</clipPath>
				<g class="st67">
					<path class="st46" d="M158.6,182.4l-12.2-0.9c0.4,0,0.9,0,1.3,0c0.2,0,0.3,0,0.5-0.1l12.2,0.9c-0.2,0-0.3,0.1-0.5,0.1
						C159.4,182.4,159,182.4,158.6,182.4"/>
				</g>
			</g>
			<g class="st0">
				<defs>
					<path id="SVGID_91_" class="st0" d="M158.8,178.9l-12.2-0.9c0.4,0,0.8,0,1.2-0.1c1.5-0.3,2.9-1.6,4.2-3.7
						c2.4-4.2,4.8-8.4,7.3-12.5c0.4-0.7,0.7-1.6,1.5-1.8l12.2,0.9c-0.8,0.2-1.1,1.1-1.5,1.8c-2.4,4.2-4.8,8.4-7.3,12.5
						c-1.3,2.1-2.7,3.4-4.2,3.7C159.6,178.9,159.2,178.9,158.8,178.9z"/>
				</defs>
				<clipPath id="SVGID_92_">
					<use xlink:href="#SVGID_91_"  style="overflow:visible;"/>
				</clipPath>
				<g class="st68">
					<path class="st69" d="M158.8,178.9l-12.2-0.9c0.4,0,0.8,0,1.1-0.1l12.2,0.9C159.5,178.9,159.2,178.9,158.8,178.9"/>
					<path class="st70" d="M159.9,178.8l-12.2-0.9c0,0,0,0,0.1,0c0.8-0.2,1.5-0.6,2.2-1.2l12.2,0.9
						C161.5,178.2,160.7,178.6,159.9,178.8C160,178.8,159.9,178.8,159.9,178.8"/>
					<path class="st71" d="M162.2,177.6l-12.2-0.9c0.3-0.2,0.5-0.5,0.8-0.8l12.2,0.9C162.7,177.1,162.4,177.4,162.2,177.6"/>
					<path class="st70" d="M162.9,176.8l-12.2-0.9c0.4-0.5,0.8-1.1,1.2-1.8c2.4-4.2,4.8-8.4,7.3-12.5c0.3-0.4,0.5-1,0.8-1.3
						l12.2,0.9c-0.3,0.4-0.5,0.9-0.8,1.3c-2.4,4.2-4.8,8.4-7.3,12.5C163.8,175.8,163.4,176.3,162.9,176.8"/>
					<path class="st71" d="M172.2,161.2l-12.2-0.9c0.1-0.1,0.1-0.1,0.2-0.2l12.2,0.9C172.3,161.1,172.3,161.1,172.2,161.2"/>
					<path class="st70" d="M172.4,161l-12.2-0.9c0.1-0.1,0.3-0.2,0.5-0.3l12.2,0.9C172.7,160.8,172.6,160.9,172.4,161"/>
				</g>
			</g>
			<g class="st0">
				<defs>
					<path id="SVGID_93_" class="st0" d="M158.6,182.4l-12.2-0.9c-1.6-0.1-3.2-0.8-4.6-2.1l12.2,0.9
						C155.4,181.6,157,182.3,158.6,182.4z"/>
				</defs>
				<clipPath id="SVGID_94_">
					<use xlink:href="#SVGID_93_"  style="overflow:visible;"/>
				</clipPath>
				<g class="st72">
					<path class="st73" d="M158.6,182.4l-12.2-0.9c-1.6-0.1-3.2-0.8-4.6-2.1l12.2,0.9C155.4,181.6,157,182.3,158.6,182.4"/>
				</g>
			</g>
			<g class="st0">
				<defs>
					<path id="SVGID_95_" class="st0" d="M158.8,178.9l-12.2-0.9c-1.2-0.1-2.4-0.7-3.6-1.8c-3.3-2.9-6.5-5.8-9.7-8.7
						c-0.5-0.4-0.9-1-1.5-1.1l12.2,0.9c0.6,0,1.1,0.6,1.5,1.1c3.2,2.9,6.5,5.8,9.7,8.7C156.4,178.2,157.6,178.8,158.8,178.9z"/>
				</defs>
				<clipPath id="SVGID_96_">
					<use xlink:href="#SVGID_95_"  style="overflow:visible;"/>
				</clipPath>
				<g class="st74">
					<path class="st42" d="M158.8,178.9l-12.2-0.9c-1.2-0.1-2.4-0.7-3.6-1.8c-3.3-2.9-6.5-5.8-9.7-8.7c-0.5-0.4-0.9-1-1.5-1.1
						l12.2,0.9c0.6,0,1.1,0.6,1.5,1.1c3.2,2.9,6.5,5.8,9.7,8.7C156.4,178.2,157.6,178.8,158.8,178.9"/>
				</g>
			</g>
			<g class="st0">
				<defs>
					<path id="SVGID_97_" class="st0" d="M131.7,166.5l12.2,0.9c-0.1,0-0.2,0-0.3,0l-12.2-0.9C131.5,166.5,131.6,166.5,131.7,166.5z
						"/>
				</defs>
				<clipPath id="SVGID_98_">
					<use xlink:href="#SVGID_97_"  style="overflow:visible;"/>
				</clipPath>
				<g class="st75">
					<path class="st69" d="M143.6,167.4l-12.2-0.9c0.1,0,0.2,0,0.3,0l12.2,0.9C143.8,167.4,143.7,167.4,143.6,167.4"/>
				</g>
			</g>
			<g class="st0">
				<defs>
					<path id="SVGID_99_" class="st0" d="M154,180.3l-12.2-0.9c-3-2.6-5.9-5.3-8.8-7.9c-0.9-0.8-1.8-1.5-2.8-2.3l12.2,0.9
						c0.9,0.8,1.9,1.5,2.8,2.3C148.1,175.1,151,177.7,154,180.3z"/>
				</defs>
				<clipPath id="SVGID_100_">
					<use xlink:href="#SVGID_99_"  style="overflow:visible;"/>
				</clipPath>
				<g class="st76">
					<path class="st73" d="M154,180.3l-12.2-0.9c-3-2.6-5.9-5.3-8.8-7.9c-0.9-0.8-1.8-1.5-2.8-2.3l12.2,0.9c0.9,0.8,1.9,1.5,2.8,2.3
						C148.1,175.1,151,177.7,154,180.3"/>
				</g>
			</g>
			<g class="st0">
				<defs>
					<path id="SVGID_101_" class="st0" d="M142.4,170.2l-12.2-0.9c0.4-0.9,0.8-1.8,1.2-2.7l12.2,0.9
						C143.2,168.3,142.8,169.2,142.4,170.2z"/>
				</defs>
				<clipPath id="SVGID_102_">
					<use xlink:href="#SVGID_101_"  style="overflow:visible;"/>
				</clipPath>
				<g class="st77">
					<path class="st70" d="M142.4,170.2l-12.2-0.9c0.4-0.9,0.8-1.8,1.2-2.7l12.2,0.9C143.2,168.3,142.8,169.2,142.4,170.2"/>
				</g>
			</g>
			<g class="st0">
				<defs>
					<path id="SVGID_103_" class="st0" d="M134.6,202.3c17.6-4,35.1-8,52.7-12c4.1,0.3,8.2,0.6,12.2,0.9c-17.5,4-35.1,8-52.6,12
						c-4.1-0.3-8.1-0.6-12.2-0.9c4.1,0.3,8.1,0.6,12.2,0.9c0,0-0.1,0-0.1,0c0,0,0,0,0,0C142.7,203,138.7,202.7,134.6,202.3
						c4.1,0.3,8.1,0.6,12.2,0.9c-7.3,1.7-14.6,3.3-21.8,5c-4.1-0.3-8.1-0.6-12.2-0.9c4.1,0.3,8.1,0.6,12.2,0.9c0,0-0.1,0-0.1,0l0,0
						c-0.7,0.2-1.4,0.3-2.1,0.2l-12.2-0.9c0.7,0.1,1.4-0.1,2.1-0.2C119.9,205.7,127.3,204,134.6,202.3z"/>
				</defs>
				<clipPath id="SVGID_104_">
					<use xlink:href="#SVGID_103_"  style="overflow:visible;"/>
				</clipPath>
				<g class="st78">
					<path class="st3" d="M122.7,208.5l-12.2-0.9c0.6,0,1.2,0,1.8-0.2l12.2,0.9C123.9,208.5,123.3,208.6,122.7,208.5"/>
					<path class="st2" d="M124.5,208.3l-12.2-0.9c0.1,0,0.2,0,0.3-0.1c7.3-1.7,14.7-3.4,22-5c17.7-4,35.3-8.1,53-12.1
						c1.1-0.3,2.2-0.6,3.1-1.3l12.2,0.9c-0.9,0.8-1.9,1.1-3.1,1.3c-17.7,4-35.3,8.1-53,12.1c-7.3,1.7-14.7,3.3-22,5
						C124.7,208.3,124.6,208.3,124.5,208.3"/>
				</g>
			</g>
			<g>
				<path class="st79" d="M142.4,170.2c0.9,0.8,1.9,1.5,2.8,2.3c2.9,2.6,5.9,5.3,8.8,7.9c1.8,1.6,3.9,2.3,5.9,2
					c0.2,0,0.4-0.1,0.6-0.1c0.1,0,0.2-0.1,0.3-0.1c1.7-0.5,3.3-1.7,4.6-3.6c3.3-5.1,6.2-10.5,9.3-15.7c0.1,0,0.2-0.1,0.4-0.1
					c2.4,2.8,5.3,4.6,7.9,6.9c4.5,4,8.9,8.1,13.4,11.9c2.6,2.2,5.3,4.1,7.6,6.7c-1,2.1-2.5,2.6-4.2,2.9c-17.7,4-35.3,8.1-53,12.1
					c-7.3,1.7-14.7,3.3-22,5c-1.6,0.4-3.2,0.5-4.5-1c1.5-3.4,3.6-6.2,5.5-9.3c3.5-6,6.9-12.1,10.5-18c1.9-3.2,4.1-6.2,5.7-9.7
					C142.1,170.2,142.3,170.2,142.4,170.2z"/>
			</g>
			<g class="st0">
				<defs>
					<path id="SVGID_105_" class="st0" d="M122.7,208.5l-12.2-0.9c-0.8-0.1-1.6-0.4-2.3-1.2l12.2,0.9
						C121.1,208.1,121.9,208.4,122.7,208.5z"/>
				</defs>
				<clipPath id="SVGID_106_">
					<use xlink:href="#SVGID_105_"  style="overflow:visible;"/>
				</clipPath>
				<g class="st80">
					<path class="st81" d="M122.7,208.5l-12.2-0.9c-0.8-0.1-1.6-0.4-2.3-1.2l12.2,0.9C121.1,208.1,121.9,208.4,122.7,208.5"/>
				</g>
			</g>
			<g class="st0">
				<defs>
					<path id="SVGID_107_" class="st0" d="M120.4,207.3l-12.2-0.9c1.5-3.4,3.6-6.2,5.5-9.3c3.5-6,6.9-12.1,10.5-18
						c1.9-3.2,4.1-6.2,5.7-9.7l12.2,0.9c-1.6,3.5-3.8,6.5-5.7,9.7c-3.6,5.9-6.9,12.1-10.5,18C124,201.1,121.9,203.9,120.4,207.3z"/>
				</defs>
				<clipPath id="SVGID_108_">
					<use xlink:href="#SVGID_107_"  style="overflow:visible;"/>
				</clipPath>
				<g class="st82">
					<path class="st45" d="M120.4,207.3l-12.2-0.9c1.5-3.4,3.6-6.2,5.5-9.3c3.5-6,6.9-12.1,10.5-18c1.9-3.2,4.1-6.2,5.7-9.7
						l12.2,0.9c-1.6,3.5-3.8,6.5-5.7,9.7c-3.6,5.9-6.9,12.1-10.5,18C124,201.1,121.9,203.9,120.4,207.3"/>
				</g>
			</g>
			<g class="st0">
				<defs>
					<path id="SVGID_109_" class="st0" d="M116.8,136.7l-12.2-0.9c16-3.6,31.9-7.3,47.9-10.9l12.2,0.9
						C148.7,129.4,132.7,133,116.8,136.7z"/>
				</defs>
				<clipPath id="SVGID_110_">
					<use xlink:href="#SVGID_109_"  style="overflow:visible;"/>
				</clipPath>
				<g class="st83">
					<path class="st12" d="M116.8,136.7l-12.2-0.9c16-3.6,31.9-7.3,47.9-10.9l12.2,0.9C148.7,129.4,132.7,133,116.8,136.7"/>
				</g>
			</g>
			<g>
				<path class="st43" d="M116.8,136.7c16-3.6,31.9-7.3,47.9-10.9c1.9,3.2,4.2,6,7.1,7.7c3.4,2,6.7,2.5,10,1.8
					c0.2-0.1,0.3-0.1,0.4-0.1c2.2-0.6,4.4-1.7,6.6-3.3c0.2-0.2,0.5-0.4,0.7-0.6c-0.1,2.3-1.8,3.3-2.7,4.9c-4.1,7-7.8,14.3-12.3,20.9
					c-0.7,1.1-1.7,2.1-1.7,3.7c-0.8,0.2-1.1,1.1-1.5,1.8c-2.4,4.2-4.8,8.4-7.3,12.5c-1.3,2.1-2.7,3.4-4.2,3.7
					c-1.5,0.3-3.2-0.2-4.8-1.7c-3.3-2.9-6.5-5.8-9.7-8.7c-0.5-0.5-1-1.2-1.8-1c-0.1-1-0.8-1.4-1.4-1.8c-3.8-2.9-7.3-6.2-10.9-9.4
					c-2.8-2.5-5.6-5.2-8.6-7.5c-3.5-2.8-6.9-5.8-10.2-9.1C113.5,137.5,115.1,137,116.8,136.7z"/>
			</g>
			<g class="st0">
				<defs>
					<path id="SVGID_111_" class="st0" d="M143.6,167.4l-12.2-0.9c-0.1-1-0.8-1.4-1.4-1.8c-3.8-2.9-7.3-6.2-10.9-9.4
						c-2.8-2.5-5.6-5.2-8.6-7.5c-3.5-2.8-6.9-5.8-10.2-9.1l12.2,0.9c3.2,3.3,6.7,6.3,10.2,9.1c2.9,2.4,5.7,5,8.6,7.5
						c3.6,3.2,7.2,6.5,10.9,9.4C142.8,166,143.5,166.4,143.6,167.4z"/>
				</defs>
				<clipPath id="SVGID_112_">
					<use xlink:href="#SVGID_111_"  style="overflow:visible;"/>
				</clipPath>
				<g class="st84">
					<path class="st42" d="M143.6,167.4l-12.2-0.9c-0.1-1-0.8-1.4-1.4-1.8c-3.8-2.9-7.3-6.2-10.9-9.4c-2.8-2.5-5.6-5.2-8.6-7.5
						c-3.5-2.8-6.9-5.8-10.2-9.1l12.2,0.9c3.2,3.3,6.7,6.3,10.2,9.1c2.9,2.4,5.7,5,8.6,7.5c3.6,3.2,7.2,6.5,10.9,9.4
						C142.8,166,143.5,166.4,143.6,167.4"/>
				</g>
			</g>
			<g class="st0">
				<defs>
					<path id="SVGID_113_" class="st0" d="M112.6,139.6l-12.2-0.9c1-2,2.5-2.5,4.2-2.9l12.2,0.9C115.1,137,113.5,137.5,112.6,139.6z
						"/>
				</defs>
				<clipPath id="SVGID_114_">
					<use xlink:href="#SVGID_113_"  style="overflow:visible;"/>
				</clipPath>
				<g class="st85">
					<path class="st12" d="M112.6,139.6l-12.2-0.9c0.2-0.5,0.5-0.9,0.8-1.2l12.2,0.9C113.1,138.7,112.8,139.1,112.6,139.6"/>
					<path class="st86" d="M113.3,138.4l-12.2-0.9c0.1-0.1,0.2-0.3,0.4-0.4l12.2,0.9C113.6,138.1,113.5,138.3,113.3,138.4"/>
					<path class="st12" d="M113.7,138l-12.2-0.9c0.9-0.8,2-1.1,3.1-1.3l12.2,0.9C115.7,136.9,114.6,137.2,113.7,138"/>
				</g>
			</g>
			<g class="st0">
				<defs>
					<path id="SVGID_115_" class="st0" d="M142,170.2l-12.2-0.9c-5.2-4.9-10.5-9.7-15.9-14.2c-4.3-3.5-8.4-7.5-12.6-11.2
						c-0.7-0.6-1.4-1.1-2-1.6l12.2,0.9c0.7,0.5,1.4,1,2,1.6c4.2,3.7,8.3,7.7,12.6,11.2C131.6,160.5,136.8,165.3,142,170.2z"/>
				</defs>
				<clipPath id="SVGID_116_">
					<use xlink:href="#SVGID_115_"  style="overflow:visible;"/>
				</clipPath>
				<g class="st87">
					<path class="st88" d="M142,170.2l-12.2-0.9c-5.2-4.9-10.5-9.7-15.9-14.2c-4.3-3.5-8.4-7.5-12.6-11.2c-0.7-0.6-1.4-1.1-2-1.6
						l12.2,0.9c0.7,0.5,1.4,1,2,1.6c4.2,3.7,8.3,7.7,12.6,11.2C131.6,160.5,136.8,165.3,142,170.2"/>
				</g>
			</g>
			<g class="st0">
				<defs>
					<path id="SVGID_117_" class="st0" d="M120.4,207.3l-12.2-0.9c-1.5-1.1-2.1-2.8-2.4-4.8c-1.1-9.5-2.2-19-3.3-28.6
						c-1.1-9.5-2.2-19-3.3-28.6l12.2,0.9c1.1,9.5,2.2,19,3.3,28.6c1.1,9.5,2.2,19,3.3,28.6C118.3,204.5,118.9,206.3,120.4,207.3z"/>
				</defs>
				<clipPath id="SVGID_118_">
					<use xlink:href="#SVGID_117_"  style="overflow:visible;"/>
				</clipPath>
				<g class="st89">
					<path class="st42" d="M120.4,207.3l-12.2-0.9c-1.5-1.1-2.1-2.8-2.4-4.8c-1.1-9.5-2.2-19-3.3-28.6c-1.1-9.5-2.2-19-3.3-28.6
						l12.2,0.9c1.1,9.5,2.2,19,3.3,28.6c1.1,9.5,2.2,19,3.3,28.6C118.3,204.5,118.9,206.3,120.4,207.3"/>
				</g>
			</g>
			<g>
				<path class="st43" d="M111.4,143.3c0.7,0.5,1.4,1,2,1.6c4.2,3.7,8.3,7.7,12.6,11.2c5.5,4.5,10.7,9.3,15.9,14.2
					c-1.6,3.5-3.8,6.5-5.7,9.7c-3.6,5.9-6.9,12.1-10.5,18c-1.8,3.1-4,5.9-5.5,9.3c-1.5-1.1-2.1-2.8-2.4-4.8
					c-1.1-9.5-2.2-19-3.3-28.6c-1.1-9.5-2.2-19-3.3-28.6c0-0.2-0.1-0.5-0.1-0.7C111.2,144.2,111.2,143.7,111.4,143.3z"/>
			</g>
			<g class="st0">
				<defs>
					<path id="SVGID_119_" class="st0" d="M111.4,145.4l-12.2-0.9c0-0.2-0.1-0.5-0.1-0.7c-0.1-0.5-0.1-0.9,0.2-1.4l12.2,0.9
						c-0.2,0.5-0.2,0.9-0.2,1.4C111.3,144.9,111.4,145.1,111.4,145.4z"/>
				</defs>
				<clipPath id="SVGID_120_">
					<use xlink:href="#SVGID_119_"  style="overflow:visible;"/>
				</clipPath>
				<g class="st90">
					<path class="st42" d="M111.4,145.4l-12.2-0.9c0-0.2-0.1-0.5-0.1-0.7c0,0,0,0,0,0l12.2,0.9c0,0,0,0,0,0
						C111.3,144.9,111.4,145.1,111.4,145.4"/>
					<path class="st91" d="M111.3,144.6l-12.2-0.9c0-0.2,0-0.5,0-0.7l12.2,0.9C111.3,144.2,111.3,144.4,111.3,144.6"/>
					<path class="st36" d="M111.3,143.9L99,143c0-0.1,0-0.3,0.1-0.4l12.2,0.9C111.3,143.6,111.3,143.8,111.3,143.9"/>
					<path class="st12" d="M111.4,143.5l-12.2-0.9c0-0.1,0.1-0.1,0.1-0.2l12.2,0.9C111.4,143.4,111.4,143.4,111.4,143.5"/>
				</g>
			</g>
			<g>
				<path class="st53" d="M112.6,139.6c3.2,3.3,6.7,6.3,10.2,9.1c2.9,2.4,5.7,5,8.6,7.5c3.6,3.2,7.2,6.5,10.9,9.4
					c0.6,0.4,1.2,0.8,1.4,1.8c-0.4,0.9-0.8,1.8-1.2,2.7c-0.1,0-0.2,0.1-0.4,0.1c-5.2-4.9-10.5-9.7-15.9-14.2
					c-4.3-3.5-8.4-7.5-12.6-11.2c-0.7-0.6-1.4-1.1-2-1.6C111.4,141.8,111.8,140.6,112.6,139.6z"/>
			</g>
			<g class="st0">
				<defs>
					<path id="SVGID_121_" class="st0" d="M111.4,143.3l-12.2-0.9c-0.1-1.4,0.4-2.6,1.1-3.7l12.2,0.9
						C111.8,140.6,111.4,141.8,111.4,143.3z"/>
				</defs>
				<clipPath id="SVGID_122_">
					<use xlink:href="#SVGID_121_"  style="overflow:visible;"/>
				</clipPath>
				<g class="st92">
					<path class="st17" d="M111.4,143.3l-12.2-0.9c0-0.3,0-0.6,0-0.9l12.2,0.9C111.4,142.7,111.4,143,111.4,143.3"/>
					<path class="st18" d="M111.5,142.4l-12.2-0.9c0-0.4,0.1-0.7,0.2-1.1l12.2,0.9C111.6,141.6,111.5,142,111.5,142.4"/>
					<path class="st15" d="M111.7,141.3l-12.2-0.9c0.2-0.6,0.5-1.2,0.9-1.7l12.2,0.9C112.2,140.1,111.9,140.7,111.7,141.3"/>
				</g>
			</g>
			<g>
				<path class="st93" d="M87.1,105.3c40.4-9.2,80.9-18.5,121.3-27.7c4.6,39.4,9.2,78.9,13.7,118.4c-40.4,9.2-80.9,18.5-121.3,27.7
					C96.3,184.3,91.7,144.9,87.1,105.3z M205.1,181.9c-2.2-18.6-4.3-37.1-6.5-55.7c0-0.4-0.1-0.8-0.1-1.2c-0.1-0.5-0.2-1-0.5-1.4
					c-0.3-1.4-0.9-2.4-2-3c0.1-0.8,0.2-1.6,0.4-2.3c0.5-2.9,0.6-5.7,0.3-8.4c-1-8.8-6.4-16.1-13.8-17.6c-0.1,0-0.2,0-0.4-0.1
					c-1.8-0.3-3.6-0.3-5.4,0.1c-7.3,1.8-13.2,9-14.6,18.5c0,0.1,0,0.2,0,0.3c0,0.1,0,0.2,0,0.3c-0.3,2.2-0.2,4.2,0,6
					c0.3,2.9,1.2,5.7,2.2,8.4c-16,3.6-31.9,7.3-47.9,10.9c-1.7,0.4-3.2,0.9-4.2,2.9c-0.8,1.1-1.2,2.3-1.1,3.7
					c-0.2,0.5-0.2,0.9-0.2,1.4c0,0.2,0.1,0.5,0.1,0.7c1.1,9.5,2.2,19,3.3,28.6s2.2,19,3.3,28.6c0.2,2,0.9,3.8,2.4,4.8
					c1.3,1.5,2.9,1.3,4.5,1c7.3-1.7,14.7-3.4,22-5c17.7-4,35.3-8.1,53-12.1c1.7-0.4,3.2-0.9,4.2-2.9
					C205.3,186.3,205.3,184.2,205.1,181.9"/>
			</g>
			<g>
				<path class="st94" d="M196.7,109.7c-1-8.8-6.4-16.1-13.8-17.6c-0.1,0-0.2,0-0.4-0.1c-1.8-0.3-3.6-0.3-5.5,0.1
					c-0.1,0-0.1,0-0.2,0c-7.1,1.7-12.9,8.9-14.3,18.4c0,0.1,0,0.2,0,0.3c0,0.1,0,0.2,0,0.3c0,0.1,0,0.2,0,0.2c-0.2,2-0.2,3.9,0,5.8
					c0.3,2.9,1.2,5.7,2.2,8.4c0.1,0.2,0.3,0.5,0.4,0.7c0.1,0.2,0.3,0.4,0.4,0.7c0.1,0.1,0.1,0.2,0.2,0.3c0.5,0.8,1.1,1.5,1.6,2.2
					c0.1,0.1,0.1,0.1,0.2,0.2c0.4,0.5,0.8,0.9,1.3,1.4c0,0,0,0,0,0c0.1,0.1,0.3,0.3,0.4,0.4c0.8,0.7,1.7,1.4,2.6,1.9
					c3.4,2,6.7,2.5,10,1.8c0,0,0,0,0,0c0.1,0,0.2,0,0.2,0c0.1,0,0.1,0,0.2,0c2.2-0.6,4.4-1.7,6.6-3.3c0.2-0.2,0.5-0.4,0.7-0.6
					c2.9-2.9,4.8-6.7,6.4-10.7c0.1-0.8,0.2-1.6,0.4-2.3C196.9,115.3,197,112.4,196.7,109.7z M181.4,124.4c-0.5,0.2-0.9,0.4-1.4,0.5
					c-0.1,0-0.1,0-0.2,0c-0.6,0.1-1.2,0.2-1.8,0.2c-1.9,0.1-2.6-0.1-2.8-1.3c-0.1-0.6,0-1.5,0.3-2.8c1.3,0.3,2.4,0.7,3.6,0.5
					c0,0,0.1,0,0.1,0c0.2,0,0.4-0.1,0.5-0.2c1.4-0.5,2.4-1.8,2.5-3.5c0-0.2,0-0.5,0-0.7c0-0.1,0-0.2,0-0.3c-0.2-2.1-1.6-3.2-3.6-3
					c-0.3,0-0.6,0.1-0.9,0.2c-0.1,0-0.2,0.1-0.4,0.1c-0.1,0-0.2,0.1-0.3,0.1c-0.1,0-0.2,0-0.3,0.1c-0.2,0-0.4,0.1-0.6,0.1
					c-0.4,0.1-0.8,0.2-1.4,0.3c0-3.7-0.1-7.3-0.1-11c2.9-0.7,5.8-1.3,8.6-2c0.2,0.4,0.3,0.9,0.4,1.4c0.1,0.5,0.1,1,0.1,1.5
					c0,0.1,0,0.2,0,0.4c-1.3,0.3-2.6,0.6-3.8,0.9c-2.7,0.6-2.7,0.6-2.4,4.1c0.6,0.4,1.3,0.1,2,0.1c3.2,0,5.2,2,5.7,5.7
					C186,119.6,184.3,123.1,181.4,124.4"/>
			</g>
			<g>
				<path class="st93" d="M183.4,101.7c0.2,0.4,0.3,0.9,0.4,1.4c0.1,0.5,0.1,1,0.1,1.5c0,0.1,0,0.2,0,0.4c-1.3,0.3-2.6,0.6-3.8,0.9
					c-2.7,0.6-2.7,0.6-2.4,4.1c0.6,0.4,1.3,0.1,2,0.1c3.2,0,5.2,2,5.7,5.7c0.4,3.8-1.2,7.2-4.1,8.6c-0.5,0.2-0.9,0.4-1.4,0.5
					c-0.1,0-0.1,0-0.2,0c-0.6,0.1-1.2,0.2-1.8,0.2c-1.9,0.1-2.6-0.1-2.8-1.3c-0.1-0.6,0-1.5,0.3-2.8c1.3,0.3,2.4,0.7,3.6,0.5
					c0,0,0.1,0,0.1,0c0.2,0,0.4-0.1,0.5-0.2c1.4-0.5,2.4-1.8,2.5-3.5c0-0.2,0-0.5,0-0.7c0-0.1,0-0.2,0-0.3c-0.2-2.1-1.6-3.2-3.6-3
					c-0.3,0-0.6,0.1-0.9,0.2c-0.1,0-0.2,0.1-0.4,0.1c-0.1,0-0.2,0.1-0.3,0.1s-0.2,0-0.3,0.1c-0.2,0-0.4,0.1-0.6,0.1
					c-0.4,0.1-0.8,0.2-1.4,0.3c0-3.7-0.1-7.3-0.1-11C177.7,103,180.6,102.3,183.4,101.7z"/>
			</g>
			<g>
				<path class="st95" d="M172.9,160.7c0.6,0.7,1.2,1.4,1.8,2c-3.1,5.3-6,10.7-9.3,15.7c-1.3,1.9-2.9,3.2-4.6,3.6
					c-0.1,0-0.2,0.1-0.3,0.1c-0.2,0-0.4,0.1-0.6,0.1c-2,0.3-4.1-0.4-5.9-2c-3-2.6-5.9-5.3-8.8-7.9c-0.9-0.8-1.8-1.5-2.8-2.3
					c0.4-0.9,0.8-1.8,1.2-2.7c0.8-0.1,1.3,0.6,1.8,1c3.2,2.9,6.5,5.8,9.7,8.7c1.7,1.5,3.3,2,4.8,1.7c1.5-0.3,2.9-1.6,4.2-3.7
					c2.4-4.2,4.8-8.4,7.3-12.5C171.9,161.8,172.1,161,172.9,160.7z"/>
			</g>
			<g class="st0">
				<defs>
					<path id="SVGID_123_" class="st0" d="M87.1,105.3l-12.2-0.9c40.4-9.2,80.9-18.5,121.3-27.7l12.2,0.9
						C168,86.9,127.5,96.1,87.1,105.3z"/>
				</defs>
				<clipPath id="SVGID_124_">
					<use xlink:href="#SVGID_123_"  style="overflow:visible;"/>
				</clipPath>
				<g class="st96">
					<path class="st2" d="M87.1,105.3l-12.2-0.9c40.4-9.2,80.9-18.5,121.3-27.7l12.2,0.9C168,86.9,127.5,96.1,87.1,105.3"/>
				</g>
			</g>
			<g class="st0">
				<defs>
					<path id="SVGID_125_" class="st0" d="M100.8,223.7l-12.2-0.9C84,183.4,79.4,144,74.8,104.4l12.2,0.9
						C91.7,144.9,96.3,184.3,100.8,223.7z"/>
				</defs>
				<clipPath id="SVGID_126_">
					<use xlink:href="#SVGID_125_"  style="overflow:visible;"/>
				</clipPath>
				<g class="st97">
					<path class="st5" d="M100.8,223.7l-12.2-0.9C84,183.4,79.4,144,74.8,104.4l12.2,0.9C91.7,144.9,96.3,184.3,100.8,223.7"/>
				</g>
			</g>
		</g>
	</g>
</g>
</svg>
