<?xml version="1.0" encoding="utf-8"?>
<!-- Generator: Adobe Illustrator 24.3.0, SVG Export Plug-In . SVG Version: 6.00 Build 0)  -->
<svg version="1.1" id="Слой_1" xmlns="http://www.w3.org/2000/svg" xmlns:xlink="http://www.w3.org/1999/xlink" x="0px" y="0px"
	 viewBox="0 0 700 150" style="enable-background:new 0 0 700 150;" xml:space="preserve">
<g>
	<g>
		<path d="M92.6,105.8v2.1l0.1,14.5v1.9h-46l0.1-4.6l0.4-53l-0.3-25.2l-0.1-17.1l-0.1-3h34.4c14.1,0,24.7,0.6,32,1.8
			c7.3,1.2,13.3,3.4,18.3,6.5c6.6,4.2,11.8,10,15.4,17.4c2.8,5.7,4.1,11.6,4.1,17.9c0,6.7-1.6,13.2-4.7,19.3
			c-3.7,7.3-9,13-15.8,16.9c-6.8,3.9-14.7,5.9-23.6,5.9C103.5,107.1,98.8,106.6,92.6,105.8z M92.7,26.5v5l-0.3,50.3l0.2,18.8
			c4,1.1,9.1,1.6,15.4,1.6c5.7,0,11-1.1,16.1-3.4c5.1-2.3,9.4-5.4,12.9-9.6c6-7,9-15.1,9-24.3c0-8.8-3-16.7-8.9-23.9
			c-4.2-5.1-9.7-8.8-16.3-11.1c-6.7-2.3-15.3-3.5-25.8-3.5H92.7z"/>
		<path d="M233.6,21.4l0.1,3.8l-0.2,26.5l-0.1,11.5l-0.2,20.9l0.3,37.2v2.9h-38.5v-3.5l0.2-12l0.1-21.7l0.2-28.4l-0.1-15.3
			l-0.2-16.8l0.1-5.1H233.6z"/>
		<path d="M335.4,74.1v-9.2c-0.1-6.4-0.2-10.3-0.3-11.8c-0.2-1.5-0.6-2.8-1.4-3.9c-1.8-2.8-6-4.2-12.7-4.2
			c-10.3,0-18.2,3.2-23.8,9.6c-2.3,2.6-4.2,3.9-5.7,3.9c-1.2,0-2.2-0.4-3-1.2c-0.9-0.8-1.3-1.7-1.3-2.8c0-3.2,3.7-6.4,11.2-9.8
			c7.1-3.2,16.3-4.8,27.6-4.8c18.6,0,31.7,2.8,39.3,8.4c3.3,2.5,5.5,5.2,6.5,8.3c1,3.1,1.5,8.5,1.5,16.2v29.9
			c-0.2,5.5,0,9.7,0.5,12.5c0.5,2.8,1.7,5.8,3.6,9h-42.2v-7.9c-4.6,3.2-9.2,5.5-13.7,7.2c-4.5,1.6-9,2.4-13.4,2.4
			c-7.5,0-14.1-2.2-20-6.6c-7.6-5.7-11.4-13.2-11.4-22.3c0-8.1,3.1-14.6,9.2-19.6c7.1-5.9,16-8.8,26.6-8.8c4.3,0,8.1,0.4,11.5,1.2
			C327.4,70.6,331.2,72,335.4,74.1z M335.4,79.5c-6.3-3.2-11.2-4.7-14.7-4.7c-2.9,0-4.8,1.2-5.7,3.5c-0.5,1.3-0.8,4.9-0.8,10.9v18
			c0,4,0.2,6.4,0.4,7.2c0.5,2.3,2.2,3.5,5.1,3.5c2.3,0,4.9-0.7,7.7-2.1c2.8-1.4,5.4-3.2,7.8-5.5L335.4,79.5z"/>
		<path d="M463,15.5l-0.8,24.3l-0.1,2.3c4.4,0,8.3-0.2,11.9-0.5c0.6,0,1.1-0.1,1.6-0.1c2.2,0,3.3,1,3.3,3.1c0,1.9-1.2,2.8-3.5,2.8
			c-0.7,0-1.6,0-2.6-0.2c-4-0.3-6.8-0.5-8.5-0.5h-2.2L462,61.4l0.3,29.3l0.2,15.7c0,3.7,0.3,6.2,0.8,7.7c0.6,1.5,1.5,2.2,2.9,2.2
			c1.8,0,3.8-1.1,5.8-3.2c2-2.1,3.6-4.7,4.8-7.8c1.1-2.9,2.3-4.4,3.8-4.4c1.7,0,2.6,1,2.6,2.9c0,1.9-0.9,4.3-2.6,7.1
			c-1.7,2.8-3.8,5.3-6.2,7.4c-5.9,5.2-13.6,7.8-23.1,7.8c-8.9,0-15.8-2.7-20.6-8.1c-2.5-2.7-4.2-5.7-5.2-9.1c-1-3.3-1.4-8-1.4-13.9
			v-5.6l0.1-15.9V46.6c-0.7,0-1.2-0.1-1.5-0.1c-0.5,0-1.5,0.1-3,0.2c-1.3,0.1-2.3,0.2-3.2,0.2c-2.5,0-3.7-0.9-3.7-2.8
			c0-1.8,1.2-2.7,3.5-2.7c1.1,0,1.9,0,2.3,0.1l5.5,0.4v-8.5C438.9,27.8,451.9,21.9,463,15.5z"/>
		<path d="M536.2,126.1c-9.4,0-19.4-5.1-19.4-23.5c0-14.5,6.2-30.1,17.7-39.2c6.3-4.8,16.2-9.6,24.7-9.6c11.3,0,16.4,6.3,16.4,13.6
			c0,16.2-23.5,22.4-38.7,25.3c-0.2,1.4-0.3,4.8-0.3,5.9c0,8,2.5,15.1,10.8,15.1c7.6,0,15.3-4.5,22.7-12.2l2.5,4.9
			C561.1,120.2,548,126.1,536.2,126.1z M537.5,86.9c16-3.9,21-10.3,21-18.5c0-5.1-2.6-7.3-6.2-7.3C548.3,61.1,540.4,65.9,537.5,86.9
			z"/>
		<path d="M655,65.3l-0.2,28.9l0.3,30h-38.7l0.1-4.1l0.1-15.4l0.3-27.6l-0.4-30.7l-0.1-4.4h38.6v15.5c5.8-6.1,9.8-10,12-11.6
			c5.2-3.7,10.1-5.5,14.7-5.5c2.8,0,5.1,0.6,7,1.8c1.8,1.2,2.7,2.7,2.7,4.6c0,1.5-0.6,2.7-1.7,3.6c-1.1,1-2.5,1.4-4.1,1.4
			c-1.1,0-2.2-0.3-3.5-0.9c-2.2-1.1-4-1.6-5.5-1.6c-3.6,0-7.1,1.2-10.5,3.7C662.9,55.5,659.1,59.6,655,65.3z"/>
	</g>
</g>
</svg>
