<?xml version="1.0" encoding="utf-8"?>
<!-- Generator: Adobe Illustrator 24.3.0, SVG Export Plug-In . SVG Version: 6.00 Build 0)  -->
<svg version="1.1" id="Слой_1" xmlns="http://www.w3.org/2000/svg" xmlns:xlink="http://www.w3.org/1999/xlink" x="0px" y="0px"
	 viewBox="0 0 100 100" style="enable-background:new 0 0 100 100;" xml:space="preserve">
<style type="text/css">
	.st0{fill:#070504;}
	.st1{fill:#ECECEC;}
	.st2{fill:#BB735E;}
</style>
<g>
	<g>
		<path class="st0" d="M47.7,100c-7.9,0-15.9,0-23.8,0c-0.3-0.5-0.6-1-0.9-1.5c0.3-1.6,1.5-1.5,2.7-1.5c6.7,0,13.4,0,20.1,0
			c2.3,0,2.6-0.4,2.7-2.6c0-0.5,0-1,0-1.6c0-29,0-57.9,0-86.9c0-2.6-0.4-3-2.9-3c-13.3,0-26.6,0-39.8,0C3.4,2.9,3,3.3,3,5.8
			C3,16.9,3,27.9,3,39c0,0.5-0.3,1.2,0.5,1.5c1-0.5,1.3-1.6,1.9-2.4c0.5-0.6,1-0.8,1.7-0.6s1,0.8,0.9,1.5c-0.2,0.7-0.1,1.1,0.5,1.5
			c0.8,0.5,1.3,1.2,0.7,2.1c-0.6,1-1.5,0.7-2.4,0.3C6,42.5,3,43.5,2.7,44.2c-0.7,2.3,0.8,4.3,3.2,4.3c7.3,0,14.6,0,21.9,0
			c5,0,10,0,15,0c1.1,0,2.1,0.3,2,1.6c0,1.1-0.9,1.4-1.9,1.5c-0.5,0-0.9,0-1.4,0c-11.8,0-23.7,0-35.5,0c-2.7,0-3,0.3-3,3.1
			c0,4.1,0,8.2,0,12.3c0,1.2-0.1,2.2-1.4,2.7c-0.7,0.1-0.9-0.7-1.5-0.8c0-5.3,0-10.7,0-16c1.2-1.8,1.2-3.6,0-5.5c0-14.3,0-28.6,0-43
			C0.5,1.9,1.9,0.5,4.3,0c14.5,0,28.9,0,43.4,0c0.9,0.5,1.7,1,2.6,1.4c0.9-0.5,1.7-1,2.5-1.4c14.3,0,28.6,0,43,0
			c2.1,0.7,3.6,2.2,4.3,4.3c0,6.1,0,12.2,0,18.4c-0.5,0.2-0.8,0.8-1.5,0.9c-1.5-0.3-1.4-1.5-1.4-2.6c0-4.9,0-9.8,0-14.6
			c0-2.5-0.9-3.4-3.3-3.4c-6.5-0.1-12.8,0-19.2,0c-0.4,0-0.9-0.2-1.2,0.5c1,1.1,2.4,1.4,3.6,2.1C78,6.1,78.5,6.7,78,7.7
			c-0.4,0.9-1.2,1.1-2.1,0.6c-0.8-0.4-1.6-0.7-2.5-1.1c-0.3,0.3-0.5,0.5-0.7,0.8c-0.6,1-1.3,2-2.6,1.2c-1.3-0.8-0.5-1.9,0.1-2.9
			c1-1.7,0.1-3.3-2-3.3c-4.4,0-8.7,0-13.1,0c-3,0-3.6,0.6-3.6,3.5c0,29,0,57.9,0,86.9c0,0.6-0.1,1.2,0.1,1.7C52,96.5,53,97,54.3,97
			c0.7,0,1.7,0.4,1.9-0.8c0.5-2.9,1.4-5.6,2.3-8.5c-0.8,0-1.4-0.1-2-0.1c-0.9-0.1-1.5-0.6-1.4-1.5c0-0.8,0.6-1.3,1.4-1.4
			c0.7,0,1.4,0,2.1,0c0.6,0,1.1-0.1,1.5-0.7c1-2,2-4,3-6c-0.9-0.7-1.8-1.3-2.6-1.9c-0.7-0.5-1.1-1.2-0.5-2c0.6-0.9,1.4-0.9,2.2-0.4
			c0.9,0.6,1.8,1.2,2.7,1.8c0.8-1.1,1.5-2,2.1-2.8c0.7-0.9,1.5-1.8,2.4-2.9c-1-0.9-2-1.7-2.9-2.6c-0.7-0.7-0.9-1.5-0.1-2.2
			s1.6-0.5,2.2,0.2c0.8,0.9,1.6,1.9,2.4,2.9c0.8-0.7,1.2-1,1.6-1.3c2.4-2.2,2.4-2.2,0.9-5c-0.5-0.9-0.5-1.6,0.3-2.2
			c0.9-0.6,1.6-0.2,2.2,0.5s0.9,1.7,1.9,2.3c1.6-1,3.1-2.1,4.7-3.1c-0.4-1-0.8-1.7-1.1-2.5c-0.4-0.9-0.1-1.5,0.7-2
			c0.8-0.5,1.5-0.1,2,0.6c0.4,0.7,0.8,1.5,1.2,2.3c2.5-1.1,5.7-1.4,4.9-5.4c-0.2-0.9,0.5-1.5,1.4-1.6s1.4,0.5,1.5,1.4
			c0.1,0.7-0.2,1.4,0.4,2c3.5-0.3,3.6-0.3,3.6-3.5c0-7,0-13.9,0-20.9c0-1.1,0-2.3,1.4-2.6c0.6,0,1,0.6,1.5,0.9c0,22.8,0,45.6,0,68.4
			c-0.9,1.9-2.3,3.2-4.3,3.9c-14.5,0-28.9,0-43.4,0c-0.7-0.5-1.4-1-2-1.5C49.3,99.1,48.5,99.5,47.7,100z M59.3,97
			c1.7,0,3.3-0.1,4.8,0c1.3,0.1,1.8-0.4,2.1-1.6c0.8-3.6,2.2-6.9,3.9-10.1c5.7-10.4,14.1-17.7,25.4-21.6c0.6-0.2,1.5-0.2,1.5-1.2
			c0-2,0-4,0-6C78,61,62.2,78.3,59.3,97z M97.1,66.5c-14,4-25.9,18-27.8,30.3c0.2,0.1,0.4,0.1,0.5,0.1c1.6,0,3.3,0,4.9,0
			c1,0,1.5-0.4,1.8-1.3c3.4-9.9,9.8-17.1,19.4-21.5c0.6-0.3,1.2-0.5,1.2-1.3C97.1,70.8,97.1,68.6,97.1,66.5z M88.8,97.1
			c1.6,0,3.2,0,4.7,0c2.7,0,3.5-0.8,3.5-3.5c0-4.7,0-9.5,0-14.2c0-0.7,0.3-1.5-0.3-2.4c-8.5,4.2-14.4,10.7-17.5,19.9
			c2.2,0,4.1,0,6.2,0c0.1-2,0.4-3.8-0.6-5.6c-0.4-0.7-0.4-1.6,0.5-2.1c0.8-0.5,1.5-0.3,2,0.5c0.2,0.3,0.3,0.7,0.7,0.8
			c1.7-0.1,2.3-1,2.1-2.6c-0.1-0.6,0-1.2,0-1.8c0.1-0.9,0.5-1.5,1.5-1.5s1.4,0.6,1.4,1.5c0,1.3,0,2.6,0,3.9c0.1,1.5-0.5,2.3-1.9,2.7
			C88.5,93.7,88.5,93.7,88.8,97.1z"/>
		<path class="st0" d="M0,95.7c0-7.3,0-14.6,0-21.9c0.4-0.4,0.8-0.9,1.5-1C3.1,73.2,3,74.4,3,75.6c0,6.3,0,12.5,0,18.7
			C3,96.6,3.4,97,5.8,97c3.8,0,7.5,0,11.3,0c1.2,0,2.2,0.1,2.5,1.6c-0.3,0.5-0.6,1-0.9,1.5c-4.8,0-9.6,0-14.5,0
			C1.9,99.5,0.5,98.1,0,95.7z"/>
		<path class="st1" d="M100,4.3c-0.7-2.1-2.2-3.6-4.3-4.3c1.4,0,2.9,0,4.3,0C100,1.4,100,2.9,100,4.3z"/>
		<path class="st1" d="M95.7,100c2-0.7,3.4-2,4.3-3.9c0,1.3,0,2.6,0,3.9C98.6,100,97.1,100,95.7,100z"/>
		<path class="st1" d="M100,27.7c-0.5-0.2-0.8-0.8-1.5-0.9c0-1.1,0-2.2,0-3.4c0.6,0,1-0.6,1.5-0.9C100,24.3,100,26,100,27.7z"/>
		<path class="st1" d="M18.8,100c0.3-0.5,0.6-1,0.9-1.5c1.1,0,2.2,0,3.3,0c0.3,0.5,0.6,1,0.9,1.5C22.1,100,20.4,100,18.8,100z"/>
		<path class="st1" d="M1.5,72.9c-0.6,0.1-1.1,0.5-1.5,1c0-1.7,0-3.4,0-5.1c0.6,0.1,0.9,0.8,1.5,0.8C1.5,70.6,1.5,71.8,1.5,72.9z"/>
		<path class="st1" d="M4.3,0C1.9,0.5,0.5,1.9,0,4.3C0,2.9,0,1.4,0,0C1.4,0,2.9,0,4.3,0z"/>
		<path class="st1" d="M0,95.7c0.5,2.4,1.9,3.8,4.3,4.3c-1.4,0-2.9,0-4.3,0C0,98.6,0,97.1,0,95.7z"/>
		<path class="st1" d="M52.7,0c-0.8,0.5-1.6,0.9-2.5,1.4C49.4,1,48.5,0.5,47.7,0C49.3,0,51,0,52.7,0z"/>
		<path class="st1" d="M0,47.3c1.2,1.8,1.2,3.6,0,5.5C0,50.9,0,49.1,0,47.3z"/>
		<path class="st1" d="M47.7,100c0.8-0.5,1.7-0.9,2.6-1.5c0.6,0.4,1.3,0.9,2,1.5C50.8,100,49.2,100,47.7,100z"/>
		<path class="st2" d="M1.5,72.9c0-1.1,0-2.2,0.1-3.3C2.8,69.1,3,68.1,3,66.9c0-4.1,0-8.2,0-12.3c0-2.7,0.3-3.1,3-3.1
			c11.8,0,23.7,0,35.5,0c0.5,0,0.9,0,1.4,0c1,0,1.9-0.3,1.9-1.5c0-1.3-0.9-1.6-2-1.6c-5,0-10,0-15,0c-7.3,0-14.6,0-21.9,0
			c-2.4,0-3.9-2-3.2-4.3c0.2-0.7,3.2-1.7,4.1-1.3c0.9,0.5,1.8,0.8,2.4-0.3c0.5-0.9,0.1-1.6-0.7-2.1C7.9,40,7.8,39.6,8,38.9
			s-0.2-1.3-0.9-1.5s-1.2,0-1.7,0.6c-0.7,0.8-0.9,1.9-1.9,2.4c-0.8-0.3-0.5-1-0.5-1.5C3,27.8,3,16.8,3,5.7c0-2.4,0.4-2.9,2.8-2.9
			c13.3,0,26.6,0,39.8,0c2.5,0,2.9,0.4,2.9,3c0,29,0,57.9,0,86.9c0,0.5,0,1,0,1.6c-0.1,2.2-0.4,2.6-2.7,2.6c-6.7,0-13.4,0-20.1,0
			c-1.2,0-2.4,0-2.7,1.5c-1.1,0-2.2,0-3.3,0c-0.3-1.4-1.4-1.6-2.5-1.6c-3.8,0-7.5,0-11.3,0c-2.4,0-2.8-0.3-2.8-2.7
			C3,88.1,3,81.9,3,75.6C3,74.4,3.1,73.2,1.5,72.9z M8.5,73.2L8.5,73.2c0,4.9,0,9.9,0,14.8c0,2.1,1.2,3.5,3,4.4s3.6,0.5,5.1-0.8
			c1.3-1.1,1.8-2.6,1.8-4.3c0-7.7,0-15.4,0-23c0-3,1.3-4.7,3.5-4.7c2.3,0,3.5,1.6,3.5,4.6c0,3.3,0,6.6,0,10c0,1.1,0.3,2,1.6,2
			c1.2,0,1.4-1,1.4-2c0-3.7,0.1-7.4,0-11.1c-0.1-2.3-1-4.2-3-5.4c-2.1-1.3-4.3-1.4-6.5-0.3c-2.3,1.2-3.4,3.2-3.4,5.7
			c0,7.7,0,15.4,0,23c0,0.5,0,1,0,1.6c-0.1,1.2-0.6,2.2-2,2.2c-1.5,0-2-1-2.1-2.3c0-0.5,0-1,0-1.6c0-8.8,0-17.7,0-26.5
			c0-1.1,0.5-2.8-1.5-2.8c-1.9,0-1.4,1.7-1.4,2.9C8.5,64.1,8.5,68.7,8.5,73.2z M25.6,7.3c-5.6,0.2-9.9,2.6-12.9,7.4
			c-0.6,0.9-0.6,1.7,0,2.7c3,4.8,7.3,7.4,12.9,7.4s10-2.5,13-7.3c0.6-1,0.6-1.9,0-2.9C35.6,9.9,31.3,7.5,25.6,7.3z M19.8,41.2
			c3.3-1.7,5.4-4.5,9.2-4.4c2.3,0.1,4.6,0.1,6.8,0c2.4-0.1,3.8-1.3,4.2-3.4c0.2-0.9,0-1.6-0.9-1.9s-1.6,0.1-1.8,1
			c-0.3,1.3-1,1.5-2.1,1.5c-6.3,0-12.6,0-18.9,0c-1,0-1.8-0.2-2.1-1.3c-0.3-1-0.9-1.4-1.9-1.1c-1,0.4-1,1.2-0.8,2.1
			c0.4,2,2,3,4.6,3.2c1.4,0.1,2.9-0.3,4.4,0.3c-0.8,0.6-1.4,1-2,1.6c-1.9,1.9-1,5.3,1.5,6c0.9,0.2,1.9,0.4,2.3-0.7
			c0.5-1.1-0.2-1.7-1.2-2C20.9,42,20.6,41.8,19.8,41.2z M37,76.2c0.8,0,1.6,0,2.3,0c0.9,0,1.5-0.5,1.5-1.4c0-0.8-0.5-1.4-1.3-1.4
			c-1.6-0.1-3.2-0.1-4.8,0c-0.8,0-1.3,0.7-1.2,1.5s0.6,1.3,1.4,1.3C35.5,76.2,36.2,76.2,37,76.2z M37.1,71L37.1,71
			c0.8,0,1.6,0.1,2.3,0c0.9-0.1,1.5-0.6,1.4-1.5c0-0.8-0.6-1.3-1.4-1.4c-1.5-0.1-3.1-0.1-4.7,0c-0.8,0-1.3,0.6-1.3,1.4
			s0.5,1.3,1.3,1.4C35.5,71.1,36.3,71,37.1,71z M37.3,62.9L37.3,62.9c-0.8,0-1.7-0.1-2.5,0c-0.7,0.1-1.2,0.5-1.3,1.3
			s0.3,1.4,1.2,1.5c1.7,0.2,3.4,0.2,5,0c0.8-0.1,1.1-0.7,1.1-1.4c0-0.7-0.4-1.3-1.2-1.3C38.8,62.9,38,62.9,37.3,62.9z M36.9,60.5
			C36.9,60.6,36.9,60.6,36.9,60.5c0.8,0,1.7,0.1,2.5,0c0.9,0,1.3-0.6,1.3-1.4c0-0.7-0.4-1.3-1.1-1.3c-1.7-0.1-3.4-0.1-5,0
			c-0.8,0-1.1,0.7-1.1,1.4s0.4,1.3,1.1,1.4C35.4,60.6,36.1,60.5,36.9,60.5z M24.3,28.7c0,1.1,0,2.4,1.5,2.4c1.4,0,1.4-1.3,1.4-2.3
			c0-1.1,0-2.3-1.5-2.3C24.3,26.5,24.3,27.7,24.3,28.7z M20.1,30c1,0,2.5-2,2.5-3c0-0.8-0.5-1.3-1.3-1.4c-0.9-0.1-2.5,2-2.4,3.1
			C18.9,29.6,19.4,30,20.1,30z M30.2,25.6c-0.9,0.2-1.5,0.7-1.2,1.6c0.4,1.2,0.7,2.6,2.3,2.8c0.9,0.1,1.4-0.6,1.4-1.5
			C32.7,27.4,31.1,25.6,30.2,25.6z M26.9,79.4c-0.9,0.2-1.4,0.7-1.4,1.6c0.1,0.8,0.6,1.3,1.4,1.3c0.9,0,1.5-0.6,1.5-1.5
			S27.8,79.5,26.9,79.4z M35.5,80.8c-0.2-0.8-0.6-1.4-1.5-1.4c-0.8,0-1.4,0.5-1.4,1.3c-0.1,0.9,0.5,1.5,1.4,1.6
			C34.8,82.3,35.3,81.8,35.5,80.8z M40.9,79.4c-0.9,0.2-1.5,0.7-1.4,1.6s0.7,1.4,1.6,1.3c0.8-0.1,1.3-0.7,1.3-1.5
			C42.4,79.9,41.8,79.5,40.9,79.4z M6.2,92.9c0.8-0.1,1.4-0.5,1.4-1.4c0-0.8-0.5-1.4-1.3-1.5c-0.9-0.1-1.5,0.4-1.6,1.3
			C4.7,92.2,5.3,92.7,6.2,92.9z M28.4,91.5C28.3,90.6,27.9,90,27,90c-0.8,0-1.4,0.5-1.4,1.3c-0.1,0.9,0.4,1.5,1.3,1.6
			C27.7,92.9,28.2,92.3,28.4,91.5z M34,92.9c0.9-0.1,1.5-0.6,1.4-1.5c0-0.8-0.6-1.3-1.4-1.4c-0.9,0-1.5,0.5-1.5,1.4
			S33.1,92.8,34,92.9z M40.9,89.9c-0.8,0.2-1.4,0.7-1.3,1.6c0.1,0.9,0.7,1.4,1.6,1.3c0.8-0.1,1.3-0.7,1.3-1.5
			C42.4,90.5,41.8,90,40.9,89.9z M30.7,54.3c-0.7,0.2-1.4,0.6-1.3,1.5c0,0.8,0.5,1.3,1.3,1.4c0.9,0,1.5-0.5,1.5-1.4
			C32.3,54.9,31.7,54.5,30.7,54.3z M46,39.6c-0.2-0.8-0.5-1.3-1.4-1.4c-0.9,0-1.5,0.5-1.5,1.4c0,0.8,0.5,1.3,1.3,1.4
			C45.4,41,45.8,40.5,46,39.6z M41.7,40.8c-0.2-0.8-0.6-1.4-1.6-1.3c-0.8,0.1-1.3,0.6-1.3,1.4c0,0.9,0.6,1.4,1.5,1.3
			C41.2,42.1,41.6,41.6,41.7,40.8z M8.6,17.5c0-0.8-0.4-1.4-1.3-1.5c-0.8-0.1-1.4,0.3-1.5,1.2c-0.1,0.9,0.4,1.5,1.3,1.5
			C8,18.8,8.5,18.3,8.6,17.5z M25.5,86.2c0.2,0.9,0.7,1.4,1.6,1.3c0.8-0.1,1.3-0.7,1.3-1.4c0-0.9-0.6-1.4-1.6-1.3
			C26,84.8,25.6,85.4,25.5,86.2z M33.9,87.5c0.9,0,1.5-0.5,1.5-1.3c0.1-0.9-0.5-1.5-1.4-1.5s-1.4,0.5-1.4,1.3
			C32.5,86.9,33,87.5,33.9,87.5z M42.5,86.1c-0.2-0.8-0.5-1.3-1.4-1.4c-1,0-1.5,0.5-1.5,1.4s0.6,1.4,1.6,1.4
			C42,87.5,42.3,86.9,42.5,86.1z"/>
		<path class="st2" d="M98.5,23.5c0,1.1,0,2.2,0,3.4c-1.5,0.3-1.4,1.5-1.4,2.6c0,7,0,13.9,0,20.9c0,3.2-0.1,3.3-3.6,3.5
			c-0.6-0.6-0.3-1.4-0.4-2c-0.2-0.9-0.6-1.5-1.5-1.4s-1.5,0.7-1.4,1.6c0.8,4-2.4,4.3-4.9,5.4c-0.4-0.8-0.8-1.6-1.2-2.3
			c-0.5-0.7-1.1-1.1-2-0.6c-0.8,0.4-1,1.1-0.7,2c0.3,0.8,0.7,1.5,1.1,2.5c-1.6,1.1-3.1,2.1-4.7,3.1c-1-0.6-1.2-1.6-1.9-2.3
			c-0.6-0.7-1.3-1.2-2.2-0.5c-0.8,0.6-0.8,1.4-0.3,2.2c1.5,2.8,1.5,2.8-0.9,5c-0.4,0.3-0.8,0.7-1.6,1.3c-0.8-1-1.5-2-2.4-2.9
			c-0.6-0.7-1.5-0.9-2.2-0.2c-0.8,0.7-0.6,1.6,0.1,2.2c0.9,0.9,1.8,1.7,2.9,2.6c-0.9,1.1-1.7,2-2.4,2.9c-0.7,0.9-1.3,1.8-2.1,2.8
			c-0.9-0.6-1.8-1.3-2.7-1.8c-0.8-0.5-1.6-0.4-2.2,0.4c-0.5,0.8-0.1,1.5,0.5,2c0.8,0.6,1.7,1.2,2.6,1.9c-1,2-2.1,4-3,6
			c-0.3,0.7-0.8,0.7-1.5,0.7s-1.4,0-2.1,0c-0.8,0-1.4,0.6-1.4,1.4c0,0.9,0.5,1.4,1.4,1.5c0.6,0,1.2,0.1,2,0.1
			c-0.9,2.9-1.8,5.6-2.3,8.5c-0.1,1.3-1.1,0.9-1.8,1c-1.3,0-2.3-0.5-2.7-1.8c-0.1-0.6-0.1-1.2-0.1-1.7c0-29,0-57.9,0-86.9
			c0-2.9,0.6-3.5,3.6-3.5c4.4,0,8.7,0,13.1,0c2.1,0,3,1.6,2,3.3c-0.6,1-1.4,2-0.1,2.9c1.3,0.8,2-0.2,2.6-1.2
			c0.2-0.3,0.4-0.5,0.7-0.8c0.9,0.4,1.7,0.7,2.5,1.1c0.9,0.4,1.7,0.2,2.1-0.6c0.5-0.9-0.1-1.6-0.9-2.1c-1.2-0.7-2.7-1-3.6-2.1
			C73.8,2.8,74.3,3,74.7,3c6.4,0,12.7-0.1,19.1-0.1c2.4,0,3.2,0.9,3.3,3.4c0,4.9,0,9.8,0,14.6C97.1,22.1,97.1,23.2,98.5,23.5z
			 M54.3,43.2c0,7.3,0,14.6,0,21.8c0,1.2,0.2,2.4,1.7,2.2c1.4-0.2,1.3-1.4,1.3-2.4c0-14.4,0-28.9,0-43.3c0-1.1,0-2.4-1.6-2.4
			s-1.5,1.3-1.5,2.4C54.3,28.8,54.3,36,54.3,43.2z M67.2,38.7c0,5.8,0,11.7,0,17.5c0,1.1-0.1,2.4,1.5,2.4s1.6-1.3,1.6-2.4
			c0-11.6,0-23.1,0-34.7c0-1.1,0-2.4-1.6-2.4s-1.5,1.3-1.5,2.4C67.2,27.2,67.2,32.9,67.2,38.7z M80.1,35.5c0,4.8,0,9.5,0,14.3
			c0,1.1,0,2.4,1.5,2.5c1.5,0,1.6-1.2,1.6-2.4c0-9.4,0-18.9,0-28.3c0-1.1,0.1-2.4-1.5-2.5c-1.7,0-1.6,1.4-1.6,2.6
			C80.1,26.3,80.1,30.9,80.1,35.5z M93.1,12.3c0-1.5-0.2-2.7-0.8-3.8c-0.9-1.8-2.2-3.1-4.4-3.1c-2.1,0-3.4,1.3-4.2,3
			c-1.2,2.6-1.2,5.3,0.3,7.9c2,3.4,6,3.4,8,0C92.9,15.1,93.1,13.6,93.1,12.3z M75,36.6c1.1,0.5,2.2,1.2,2.9,0c0.8-1.3-0.3-2-1.1-2.7
			c-0.7-0.6-1.4-1.3-2.2-1.8c-1.2-0.8-2.2-0.5-2.5,0.9c-0.3,2.1-0.2,4.3,0,6.4c0.1,0.8,0.6,1.3,1.5,1.3s1.4-0.6,1.5-1.5
			C75.1,38.4,75,37.6,75,36.6z M62.1,25.2c0.7-0.1,1.3-0.1,1.8-0.3c0.9-0.4,1.3-1.3,0.7-2.1c-1-1.4-2.6-0.8-4-0.8
			c-1.1,0-1.5,0.8-1.7,1.8c-0.5,2.7,0.9,4.4,2.8,6c0.8,0.6,1.6,1.1,2.4,0.2c0.8-0.8,0.3-1.6-0.3-2.4C63.2,26.9,62.2,26.5,62.1,25.2z
			 M62.1,55.4c0.4,0.5,0.7,0.8,1,1.1c0.7,0.8,1.4,1.2,2.3,0.5s0.6-1.6,0-2.4c-0.7-0.9-1.3-1.7-2-2.6c-1-1.2-1.9-1.1-2.8,0.1
			c-0.3,0.5-0.7,0.9-1,1.4c-0.6,1.1-2.3,2.2-0.6,3.4C60.6,58.2,61,56.3,62.1,55.4z M75.2,26.6c0.4,0.4,0.7,0.8,0.9,1.1
			c0.6,0.8,1.4,1.2,2.3,0.5s0.6-1.6,0-2.4c-0.7-0.9-1.4-1.9-2.2-2.7c-0.8-0.9-1.7-0.9-2.5,0.1c-0.4,0.5-0.8,1-1.1,1.6
			c-0.6,1.1-2.2,2.3-0.6,3.5C73.6,29.4,74.2,27.5,75.2,26.6z M64.6,35.9c0-0.9,0-1.5,0-2.1c0-0.9-0.3-1.6-1.2-1.7
			c-0.9-0.1-1.5,0.4-1.7,1.2c-0.1,0.4-0.1,0.8-0.7,1c-2,0.8-2.1,1.5-0.6,3c0.9,0.8,1.5,2.4,3.1,1.9C65.2,38.5,64.3,36.9,64.6,35.9z
			 M63.6,45.3c0-1.1,0.1-1.8,0-2.5c-0.1-0.8-0.6-1.4-1.5-1.4c-1,0-1.4,0.6-1.5,1.5c-0.1,0.7-0.1,1.4,0,2.1c0.1,1.3-0.5,3.1,1.6,3.1
			C64.2,48,63.5,46.1,63.6,45.3z M77,46.5c-0.3-1.1,0.6-3.1-1.5-3.1S74,45.3,74,46.5c0,1.2-0.4,3,1.5,3S76.9,47.7,77,46.5z
			 M56.6,8.7c-0.8,0.1-1.5,0.6-1.5,1.5s0.6,1.5,1.4,1.5c0.9,0,1.5-0.6,1.5-1.5S57.5,8.8,56.6,8.7z M91.4,40.9
			c-0.1-0.9-0.6-1.4-1.5-1.5c-0.8,0-1.3,0.5-1.4,1.3c-0.1,0.9,0.4,1.5,1.3,1.5C90.8,42.3,91.3,41.7,91.4,40.9z"/>
		<path class="st2" d="M59.3,97C62.2,78.3,78,61,97.1,56.4c0,2,0,4,0,6c0,1-0.9,1-1.5,1.2C84.4,67.5,76,74.8,70.2,85.2
			c-1.8,3.2-3.1,6.6-3.9,10.1c-0.3,1.2-0.8,1.7-2.1,1.6C62.6,96.9,61,97,59.3,97z"/>
		<path class="st2" d="M97.1,66.5c0,2.2,0,4.3,0,6.4c0,0.8-0.6,1.1-1.2,1.3c-9.6,4.4-16,11.6-19.4,21.5c-0.3,1-0.8,1.4-1.8,1.3
			c-1.6-0.1-3.2,0-4.9,0c-0.2,0-0.4-0.1-0.5-0.1C71.2,84.4,83.1,70.4,97.1,66.5z"/>
		<path class="st2" d="M88.8,97.1c-0.3-3.4-0.3-3.4,2.4-4.3c1.4-0.5,2-1.3,1.9-2.7c-0.1-1.3,0-2.6,0-3.9c0-0.9-0.5-1.5-1.4-1.5
			s-1.4,0.6-1.5,1.5c0,0.6-0.1,1.2,0,1.8c0.2,1.6-0.4,2.5-2.1,2.6c-0.4-0.1-0.5-0.5-0.7-0.8c-0.5-0.7-1.3-0.9-2-0.5
			c-0.8,0.5-0.9,1.3-0.5,2.1c1,1.8,0.7,3.6,0.6,5.6c-2.1,0-4.1,0-6.2,0c3.1-9.2,9-15.6,17.5-19.9c0.6,0.8,0.3,1.6,0.3,2.4
			c0,4.7,0,9.5,0,14.2c0,2.7-0.8,3.5-3.5,3.5C92,97.1,90.5,97.1,88.8,97.1z"/>
		<path class="st0" d="M8.5,73.2c0-4.6,0-9.1,0-13.7c0-1.1-0.5-2.8,1.4-2.9c1.9,0,1.5,1.6,1.5,2.8c0,8.8,0,17.7,0,26.5
			c0,0.5,0,1,0,1.6c0.1,1.3,0.6,2.3,2.1,2.3c1.4,0,1.9-1,2-2.2c0.1-0.5,0-1,0-1.6c0-7.7,0-15.4,0-23c0-2.6,1.1-4.5,3.4-5.7
			c2.2-1.2,4.4-1,6.5,0.3c2,1.2,2.9,3.2,3,5.4c0.1,3.7,0,7.4,0,11.1c0,1-0.3,1.9-1.4,2c-1.3,0-1.6-0.9-1.6-2c0-3.3,0-6.6,0-10
			c0-3-1.3-4.7-3.5-4.6c-2.2,0-3.5,1.8-3.5,4.7c0,7.7,0,15.4,0,23c0,1.7-0.5,3.2-1.8,4.3c-1.5,1.3-3.3,1.7-5.1,0.8
			c-1.8-0.9-3-2.3-3-4.4C8.5,83.1,8.5,78.2,8.5,73.2L8.5,73.2z"/>
		<path class="st0" d="M25.6,7.3c5.7,0.1,10,2.5,13,7.3c0.6,1,0.6,1.9,0,2.9c-3,4.8-7.4,7.3-13,7.3s-9.9-2.6-12.9-7.4
			c-0.6-0.9-0.6-1.7,0-2.7C15.7,9.9,20.1,7.5,25.6,7.3z M25.7,21.9c3.9-0.1,7.1-1.6,9.6-4.5c0.9-1,0.7-1.7,0-2.7
			c-4.8-6-14.3-5.9-19.1,0.1c-0.7,1-0.7,1.6,0,2.5C18.7,20.3,21.9,21.8,25.7,21.9z"/>
		<path class="st0" d="M19.8,41.2c0.8,0.5,1,0.8,1.3,0.9c1,0.3,1.7,0.9,1.2,2s-1.5,1-2.3,0.7c-2.5-0.7-3.4-4.1-1.5-6
			c0.5-0.5,1.2-1,2-1.6c-1.6-0.6-3-0.2-4.4-0.3c-2.6-0.1-4.1-1.2-4.6-3.2c-0.2-0.9-0.2-1.7,0.8-2.1c1-0.3,1.6,0.1,1.9,1.1
			c0.3,1.1,1.1,1.3,2.1,1.3c6.3,0,12.6,0,18.9,0c1.1,0,1.9-0.2,2.2-1.4c0.2-0.9,0.9-1.3,1.8-1c0.9,0.3,1.1,1,0.9,1.9
			c-0.4,2-1.8,3.3-4.2,3.4c-2.3,0.1-4.6,0.1-6.8,0C25.3,36.7,23.1,39.6,19.8,41.2z"/>
		<path class="st0" d="M37,76.2c-0.7,0-1.4,0-2.1,0c-0.8,0-1.4-0.5-1.4-1.3s0.4-1.4,1.2-1.5c1.6-0.1,3.2-0.1,4.8,0
			c0.8,0,1.3,0.6,1.3,1.4c0,0.9-0.6,1.4-1.5,1.4C38.5,76.2,37.7,76.2,37,76.2z"/>
		<path class="st0" d="M37.1,71c-0.8,0-1.6,0.1-2.3,0c-0.8-0.1-1.3-0.6-1.3-1.4s0.5-1.4,1.3-1.4c1.5-0.1,3.1-0.1,4.7,0
			c0.8,0,1.4,0.5,1.4,1.4c0.1,0.9-0.5,1.4-1.4,1.5C38.6,71.1,37.8,71,37.1,71L37.1,71z"/>
		<path class="st0" d="M37.3,62.9c0.8,0,1.6-0.1,2.3,0s1.1,0.6,1.2,1.3c0,0.7-0.3,1.3-1.1,1.4c-1.7,0.3-3.4,0.2-5,0
			c-0.8-0.1-1.2-0.7-1.2-1.5c0.1-0.7,0.5-1.2,1.3-1.3C35.6,62.9,36.4,62.9,37.3,62.9L37.3,62.9z"/>
		<path class="st0" d="M36.9,60.5c-0.8,0-1.6,0.1-2.3,0c-0.8-0.1-1.1-0.6-1.1-1.4c0-0.7,0.3-1.3,1.1-1.4c1.7-0.1,3.4-0.1,5,0
			c0.8,0,1.1,0.6,1.1,1.3c0,0.8-0.4,1.4-1.3,1.4C38.6,60.6,37.8,60.6,36.9,60.5C36.9,60.6,36.9,60.6,36.9,60.5z"/>
		<path class="st0" d="M24.3,28.7c0-1.1,0-2.3,1.5-2.2c1.5,0,1.4,1.2,1.5,2.3c0,1.1,0,2.3-1.4,2.3C24.2,31.2,24.3,29.9,24.3,28.7z"
			/>
		<path class="st0" d="M20.1,30c-0.7-0.1-1.2-0.5-1.3-1.3c-0.1-1.1,1.5-3.2,2.4-3.1c0.8,0.1,1.3,0.6,1.3,1.4
			C22.6,28.1,21,30,20.1,30z"/>
		<path class="st0" d="M30.2,25.6c0.9-0.1,2.4,1.8,2.4,2.9c0,0.9-0.5,1.6-1.4,1.5c-1.6-0.2-1.9-1.6-2.3-2.8
			C28.7,26.3,29.4,25.8,30.2,25.6z"/>
		<path class="st0" d="M26.9,79.4c0.9,0.1,1.5,0.5,1.5,1.4s-0.6,1.5-1.5,1.5c-0.8,0-1.4-0.5-1.4-1.3C25.4,80.1,26,79.6,26.9,79.4z"
			/>
		<path class="st0" d="M35.5,80.8c-0.2,1-0.7,1.5-1.6,1.5c-0.9-0.1-1.4-0.6-1.4-1.6c0.1-0.8,0.6-1.3,1.4-1.3
			C34.9,79.4,35.3,80,35.5,80.8z"/>
		<path class="st0" d="M40.9,79.4c0.9,0.1,1.5,0.5,1.5,1.4c0,0.8-0.5,1.4-1.3,1.5c-0.9,0.1-1.5-0.4-1.6-1.3
			C39.5,80.1,40,79.6,40.9,79.4z"/>
		<path class="st0" d="M6.2,92.9c-1-0.2-1.5-0.7-1.4-1.6s0.7-1.4,1.6-1.3c0.8,0.1,1.3,0.6,1.3,1.5C7.6,92.4,7,92.8,6.2,92.9z"/>
		<path class="st0" d="M28.4,91.5c-0.2,0.9-0.7,1.5-1.6,1.4s-1.4-0.7-1.3-1.6c0.1-0.8,0.6-1.3,1.4-1.3C27.9,90,28.3,90.6,28.4,91.5z
			"/>
		<path class="st0" d="M34,92.9c-0.9-0.1-1.5-0.6-1.5-1.5S33.1,90,34,90c0.8,0,1.3,0.6,1.4,1.4C35.5,92.2,34.9,92.7,34,92.9z"/>
		<path class="st0" d="M40.9,89.9c0.9,0.1,1.5,0.5,1.5,1.4c0,0.8-0.5,1.4-1.3,1.5c-0.9,0.1-1.5-0.4-1.6-1.3
			C39.5,90.6,40.1,90.1,40.9,89.9z"/>
		<path class="st0" d="M30.7,54.3c1,0.1,1.6,0.6,1.5,1.5c0,0.9-0.6,1.4-1.5,1.4c-0.8,0-1.3-0.6-1.3-1.4C29.4,54.9,30,54.5,30.7,54.3
			z"/>
		<path class="st0" d="M46,39.6c-0.2,0.8-0.6,1.4-1.5,1.4c-0.8,0-1.3-0.6-1.3-1.4c0-0.9,0.5-1.4,1.5-1.4
			C45.5,38.3,45.8,38.9,46,39.6z"/>
		<path class="st0" d="M41.7,40.8c-0.1,0.7-0.5,1.3-1.3,1.4c-0.9,0.1-1.5-0.5-1.5-1.3s0.4-1.3,1.3-1.4C41,39.4,41.5,40,41.7,40.8z"
			/>
		<path class="st0" d="M8.6,17.5c-0.1,0.8-0.6,1.3-1.4,1.3c-1,0-1.4-0.6-1.3-1.5c0-0.9,0.6-1.3,1.4-1.3C8.2,16.1,8.6,16.6,8.6,17.5z
			"/>
		<path class="st0" d="M25.5,86.2c0.1-0.8,0.5-1.4,1.3-1.4c0.9-0.1,1.5,0.5,1.6,1.3c0,0.8-0.4,1.4-1.3,1.4
			C26.2,87.6,25.7,87,25.5,86.2z"/>
		<path class="st0" d="M33.9,87.5c-0.8-0.1-1.4-0.6-1.3-1.5c0.1-0.8,0.6-1.3,1.4-1.3c0.9,0,1.5,0.6,1.4,1.5
			C35.4,87,34.8,87.5,33.9,87.5z"/>
		<path class="st0" d="M42.5,86.1c-0.1,0.8-0.5,1.4-1.3,1.4c-0.9,0.1-1.5-0.5-1.6-1.4c0-0.9,0.5-1.4,1.5-1.4
			C41.9,84.8,42.3,85.3,42.5,86.1z"/>
		<path class="st0" d="M54.3,43.2c0-7.2,0-14.4,0-21.6c0-1.1-0.1-2.4,1.5-2.4s1.6,1.3,1.6,2.4c0,14.4,0,28.9,0,43.3
			c0,1.1,0.1,2.3-1.3,2.4c-1.6,0.2-1.7-1-1.7-2.2C54.3,57.7,54.3,50.5,54.3,43.2z"/>
		<path class="st0" d="M67.2,38.7c0-5.7,0-11.4,0-17.2c0-1.1-0.1-2.4,1.5-2.4s1.6,1.3,1.6,2.4c0,11.6,0,23.1,0,34.7
			c0,1.1,0,2.4-1.6,2.4s-1.5-1.3-1.5-2.4C67.2,50.4,67.2,44.5,67.2,38.7z"/>
		<path class="st0" d="M80.1,35.5c0-4.6,0-9.2,0-13.9c0-1.2-0.1-2.6,1.6-2.6c1.6,0,1.5,1.3,1.5,2.5c0,9.4,0,18.9,0,28.3
			c0,1.2-0.1,2.4-1.6,2.4s-1.5-1.3-1.5-2.5C80.1,45,80.1,40.3,80.1,35.5z"/>
		<path class="st0" d="M93.1,12.3c0,1.3-0.2,2.8-1,4.1c-2,3.4-6.1,3.4-8,0c-1.4-2.5-1.5-5.2-0.3-7.9c0.8-1.7,2.1-3,4.2-3
			c2.2,0,3.4,1.3,4.4,3.1C92.9,9.6,93.1,10.9,93.1,12.3z M86,12.4c0.2,1.2,0.2,2.9,2,3.4c1,0.3,2.2-1.8,2-3.7c-0.2-1.3-0.1-3-2-3.4
			C87,8.5,86,10.2,86,12.4z"/>
		<path class="st0" d="M75,36.6c0,1,0,1.8,0,2.6c-0.1,0.9-0.5,1.5-1.5,1.5c-0.9,0-1.4-0.5-1.5-1.3c-0.2-2.1-0.3-4.3,0-6.4
			c0.2-1.4,1.3-1.7,2.5-0.9c0.8,0.5,1.5,1.2,2.2,1.8c0.9,0.7,1.9,1.4,1.1,2.7C77.2,37.8,76.1,37.1,75,36.6z"/>
		<path class="st0" d="M62.1,25.2c0.1,1.3,1.1,1.7,1.7,2.4c0.7,0.8,1.1,1.6,0.3,2.4c-0.8,0.9-1.6,0.4-2.4-0.2
			c-1.9-1.6-3.3-3.3-2.8-6c0.2-1,0.6-1.8,1.7-1.8c1.4,0,3-0.7,4,0.8c0.6,0.8,0.2,1.7-0.7,2.1C63.4,25,62.8,25,62.1,25.2z"/>
		<path class="st0" d="M62.1,55.4c-1,0.9-1.5,2.8-3.1,1.6c-1.7-1.3,0-2.4,0.6-3.4c0.3-0.5,0.6-1,1-1.4c0.9-1.2,1.9-1.3,2.8-0.1
			c0.7,0.8,1.4,1.7,2,2.6c0.6,0.8,0.9,1.6,0,2.4c-0.9,0.8-1.7,0.3-2.3-0.5C62.8,56.2,62.5,55.9,62.1,55.4z"/>
		<path class="st0" d="M75.2,26.6c-1,0.9-1.6,2.8-3.2,1.6c-1.6-1.2,0-2.4,0.6-3.5c0.3-0.6,0.7-1.1,1.1-1.6c0.8-1,1.7-1,2.5-0.1
			s1.5,1.8,2.2,2.7c0.6,0.8,0.9,1.7,0,2.4c-0.9,0.7-1.7,0.3-2.3-0.5C75.9,27.4,75.6,27,75.2,26.6z"/>
		<path class="st0" d="M64.6,35.9c-0.2,1,0.7,2.6-1,3.2c-1.6,0.6-2.2-1-3.1-1.9c-1.5-1.5-1.4-2.2,0.6-3c0.6-0.2,0.6-0.6,0.7-1
			c0.2-0.9,0.8-1.4,1.7-1.2c0.9,0.1,1.2,0.9,1.2,1.7C64.6,34.4,64.6,35.1,64.6,35.9z"/>
		<path class="st0" d="M63.6,45.3c-0.1,0.9,0.6,2.7-1.5,2.8c-2.1,0-1.5-1.9-1.6-3.1c-0.1-0.7,0-1.4,0-2.1c0.1-0.8,0.5-1.5,1.5-1.5
			s1.4,0.6,1.5,1.4C63.7,43.4,63.6,44.2,63.6,45.3z"/>
		<path class="st0" d="M77,46.5c-0.1,1.3,0.4,3.1-1.5,3c-1.9,0-1.5-1.8-1.5-3c0-1.3-0.5-3.2,1.5-3.1C77.6,43.4,76.8,45.3,77,46.5z"
			/>
		<path class="st0" d="M56.6,8.7c0.9,0.1,1.5,0.6,1.5,1.5s-0.6,1.5-1.5,1.5s-1.5-0.6-1.4-1.5C55.1,9.2,55.7,8.8,56.6,8.7z"/>
		<path class="st0" d="M91.4,40.9c-0.2,0.9-0.6,1.4-1.6,1.4c-1-0.1-1.4-0.7-1.3-1.5s0.6-1.3,1.4-1.3C90.9,39.4,91.3,40,91.4,40.9z"
			/>
		<path class="st2" d="M25.7,21.9c-3.8-0.1-7-1.6-9.5-4.6c-0.7-0.9-0.8-1.6,0-2.5c4.7-6,14.2-6.1,19.1-0.1c0.8,1,0.9,1.7,0,2.7
			C32.7,20.3,29.6,21.9,25.7,21.9z M29.8,16.9c0-2.3-1.9-4-4.1-4s-4.1,1.9-4.1,4.1c0,2.3,2,4.2,4.3,4.1C28.1,21,29.9,19.2,29.8,16.9
			z"/>
		<path class="st2" d="M86,12.4c0-2.2,1-3.9,2-3.7c1.8,0.4,1.8,2,2,3.4c0.2,1.8-1,4-2,3.7C86.2,15.3,86.2,13.6,86,12.4z"/>
		<path class="st0" d="M29.8,16.9c0,2.3-1.7,4.1-4,4.2c-2.3,0.1-4.3-1.8-4.3-4.1c0-2.2,1.9-4.1,4.1-4.1
			C27.9,12.9,29.8,14.6,29.8,16.9z M25.8,18.3c0.7-0.2,1.2-0.5,1.2-1.3s-0.6-1.2-1.3-1.2c-0.7,0-1.2,0.5-1.1,1.3
			C24.6,17.8,25.1,18.2,25.8,18.3z"/>
		<path class="st2" d="M25.8,18.3c-0.7-0.1-1.2-0.4-1.2-1.2c0-0.8,0.4-1.3,1.1-1.3s1.2,0.4,1.3,1.2C27,17.7,26.5,18.1,25.8,18.3z"/>
	</g>
</g>
</svg>
